<svg width="189" height="186" viewBox="0 0 189 186" fill="none" xmlns="http://www.w3.org/2000/svg">
<g clip-path="url(#clip0_536_2888)">
<path d="M46.6967 88.4323C47.3897 89.1253 47.7794 90.0652 47.7794 91.0452C47.7794 92.0253 47.3897 92.9652 46.6967 93.6582C46.1799 94.175 45.5214 94.5266 44.8046 94.6692C44.0878 94.8117 43.3447 94.7389 42.6695 94.4592C41.9943 94.1796 41.4175 93.7058 41.0115 93.0982C40.6055 92.4905 40.3879 91.7761 40.3879 91.0452C40.388 90.3144 40.6055 89.6 41.0115 88.9923C41.4175 88.3847 41.9943 87.9109 42.6695 87.6312C43.3447 87.3516 44.0878 87.2787 44.8046 87.4213C45.5214 87.5639 46.1799 87.9155 46.6967 88.4323ZM71.6774 113.413C72.3704 114.106 72.7602 115.046 72.7602 116.026C72.7602 117.006 72.3704 117.946 71.6774 118.639C71.1606 119.156 70.5022 119.507 69.7854 119.65C69.0686 119.793 68.3255 119.72 67.6502 119.44C66.9751 119.16 66.3983 118.687 65.9923 118.079C65.5862 117.471 65.3687 116.757 65.3687 116.026C65.3687 115.295 65.5862 114.581 65.9923 113.973C66.3983 113.365 66.9751 112.892 67.6502 112.612C68.3255 112.332 69.0685 112.259 69.7854 112.402C70.5022 112.545 71.1606 112.896 71.6774 113.413ZM96.6582 138.394C97.3512 139.087 97.7409 140.027 97.7409 141.007C97.7409 141.987 97.3512 142.927 96.6582 143.62C96.1414 144.137 95.4829 144.488 94.7661 144.631C94.0493 144.773 93.3062 144.7 92.631 144.421C91.9558 144.141 91.379 143.667 90.973 143.06C90.567 142.452 90.3495 141.738 90.3495 141.007C90.3495 140.276 90.567 139.562 90.973 138.954C91.379 138.346 91.9558 137.872 92.631 137.593C93.3062 137.313 94.0493 137.24 94.7661 137.383C95.4829 137.525 96.1414 137.877 96.6582 138.394ZM71.6774 63.4515C72.3704 64.1445 72.7602 65.0844 72.7602 66.0645C72.7602 67.0445 72.3704 67.9845 71.6774 68.6775C71.1606 69.1943 70.5021 69.5458 69.7854 69.6884C69.0685 69.831 68.3255 69.7582 67.6502 69.4785C66.9751 69.1988 66.3983 68.7251 65.9923 68.1174C65.5862 67.5097 65.3687 66.7953 65.3687 66.0645C65.3687 65.3336 65.5862 64.6192 65.9923 64.0115C66.3983 63.4039 66.9751 62.9302 67.6502 62.6505C68.3255 62.3708 69.0685 62.298 69.7854 62.4406C70.5022 62.5832 71.1606 62.9347 71.6774 63.4515ZM96.6582 88.4323C97.3512 89.1253 97.7409 90.0652 97.7409 91.0452C97.7409 92.0253 97.3512 92.9652 96.6582 93.6582C96.1414 94.175 95.4829 94.5266 94.7661 94.6692C94.0493 94.8118 93.3062 94.7389 92.631 94.4592C91.9558 94.1796 91.379 93.7058 90.973 93.0982C90.567 92.4905 90.3495 91.7761 90.3495 91.0452C90.3495 90.3144 90.567 89.6 90.973 88.9923C91.379 88.3847 91.9558 87.9109 92.631 87.6312C93.3062 87.3516 94.0493 87.2787 94.7661 87.4213C95.4829 87.5639 96.1414 87.9155 96.6582 88.4323ZM121.639 113.413C122.332 114.106 122.722 115.046 122.722 116.026C122.722 117.006 122.332 117.946 121.639 118.639C121.122 119.156 120.464 119.507 119.747 119.65C119.03 119.793 118.287 119.72 117.612 119.44C116.937 119.16 116.36 118.687 115.954 118.079C115.548 117.471 115.33 116.757 115.33 116.026C115.33 115.295 115.548 114.581 115.954 113.973C116.36 113.365 116.937 112.892 117.612 112.612C118.287 112.332 119.03 112.259 119.747 112.402C120.464 112.545 121.122 112.896 121.639 113.413ZM145.421 87.6312C146.096 87.9109 146.673 88.3847 147.079 88.9923C147.485 89.6 147.702 90.3144 147.702 91.0452C147.702 91.7761 147.485 92.4905 147.079 93.0982C146.673 93.7058 146.096 94.1796 145.421 94.4592C144.746 94.7389 144.003 94.8117 143.286 94.6692C142.569 94.5266 141.911 94.175 141.394 93.6582C140.701 92.9652 140.311 92.0253 140.311 91.0452C140.311 90.0652 140.701 89.1253 141.394 88.4323C141.911 87.9155 142.569 87.5639 143.286 87.4213C144.003 87.2787 144.746 87.3516 145.421 87.6312ZM96.6582 38.4708C97.3512 39.1638 97.7409 40.1037 97.7409 41.0837C97.7409 42.0638 97.3512 43.0037 96.6582 43.6967C96.1414 44.2135 95.4829 44.5651 94.7661 44.7077C94.0493 44.8502 93.3062 44.7774 92.631 44.4977C91.9558 44.2181 91.379 43.7443 90.973 43.1367C90.567 42.529 90.3495 41.8146 90.3495 41.0837C90.3495 40.3529 90.567 39.6385 90.973 39.0308C91.379 38.4232 91.9558 37.9494 92.631 37.6697C93.3062 37.39 94.0493 37.3172 94.7661 37.4598C95.4829 37.6024 96.1414 37.954 96.6582 38.4708ZM121.639 63.4515C122.332 64.1445 122.722 65.0844 122.722 66.0645C122.722 67.0445 122.332 67.9845 121.639 68.6775C121.122 69.1943 120.464 69.5458 119.747 69.6884C119.03 69.831 118.287 69.7582 117.612 69.4785C116.937 69.1988 116.36 68.7251 115.954 68.1174C115.548 67.5098 115.33 66.7954 115.33 66.0645C115.33 65.3336 115.548 64.6192 115.954 64.0115C116.36 63.4039 116.937 62.9302 117.612 62.6505C118.287 62.3708 119.03 62.298 119.747 62.4406C120.464 62.5832 121.122 62.9347 121.639 63.4515Z" fill="white" stroke="#101010" stroke-width="3"/>
</g>
<defs>
<clipPath id="clip0_536_2888">
<rect width="133" height="133" fill="white" transform="translate(94.0452 -3) rotate(45)"/>
</clipPath>
</defs>
</svg>
