<svg width="36" height="36" viewBox="0 0 36 36" fill="none" xmlns="http://www.w3.org/2000/svg">
<g clip-path="url(#clip0_387_917)">
<path d="M19.3696 -0.0605447L19.3833 -0.057615L19.397 -0.0537087L19.4292 -0.0449197C19.4802 -0.0315228 19.5454 -0.0226491 19.6519 -0.0146462C19.7332 -0.00855012 19.9222 0.00125656 20.0757 0.02051L20.5591 0.0878928C20.8795 0.137777 21.1977 0.198078 21.5142 0.266604L21.9878 0.375979L21.9976 0.377932L22.606 0.541018L22.6138 0.543948L22.6216 0.545901L23.0571 0.677737L23.0659 0.680666L23.4478 0.809573C24.3324 1.12192 25.181 1.51473 25.9946 1.98242C27.8106 3.0264 29.3488 4.39043 30.6138 6.04981C31.7664 7.562 32.6335 9.22684 33.2046 11.042C33.5548 12.1552 33.7777 13.2923 33.8755 14.4541C33.935 15.1614 33.9448 15.8707 33.9038 16.5781C33.8354 17.759 33.6255 18.9143 33.2984 20.042C32.7851 21.8105 31.9303 23.3848 30.9849 24.8594C29.6202 26.9879 28.3018 29.1196 26.94 31.2695C25.8564 32.9801 24.401 34.2847 22.5835 35.1553L22.2153 35.3232C21.3487 35.7006 20.4473 35.9445 19.5191 36.0674C19.4354 36.0784 19.353 36.0841 19.2808 36.0879L19.2739 36.0889L19.1011 36.0957C19.0571 36.0975 19.0192 36.0994 18.9859 36.1025L18.9048 36.1152L18.8862 36.1191L18.8355 36.1348H18.6802L18.5318 36.1367C18.1675 36.1409 17.8091 36.1426 17.4429 36.1426H17.2456L17.1519 36.0957H17.1333C17.105 36.0955 17.0532 36.0947 16.9985 36.0918C16.2036 36.0501 15.4623 35.8607 14.7798 35.6377C13.6078 35.2547 12.5421 34.6716 11.5845 33.9072C10.591 33.1141 9.7903 32.1666 9.13234 31.1152C7.80122 28.988 6.46125 26.8647 5.11867 24.7432C4.51539 23.7899 3.90066 22.7734 3.44191 21.6553C2.86965 20.2602 2.48448 18.8072 2.3257 17.292C2.23684 16.4435 2.2043 15.5794 2.26613 14.7051C2.33888 13.6767 2.50635 12.6598 2.77589 11.6592C3.27613 9.80243 4.08723 8.08872 5.19679 6.52246C6.56175 4.59589 8.27486 3.03529 10.3501 1.87793C11.1752 1.41784 12.0405 1.02636 12.9487 0.725588L13.4038 0.581057C14.4692 0.260026 15.5666 0.0414309 16.6978 -0.0390603L16.7456 -0.0498025H16.7573L16.7925 -0.057615L16.8462 -0.0693337H16.9351C17.6937 -0.0754858 18.441 -0.0751931 19.1987 -0.0751931H19.3101L19.3696 -0.0605447ZM18.2368 2.73242C17.2579 2.71523 16.2807 2.81789 15.3101 3.02442C14.4685 3.20354 13.6553 3.46026 12.8696 3.79981C11.4062 4.43237 10.1087 5.30495 8.97902 6.42383C8.13614 7.25868 7.42277 8.19608 6.82863 9.22949C5.76791 11.0746 5.17357 13.0485 5.07374 15.1621C5.0205 16.2905 5.1376 17.4149 5.39796 18.5352C5.698 19.8257 6.17447 21.0382 6.84913 22.1602C7.56259 23.3464 8.3097 24.5021 9.06007 25.6973C9.87463 26.9947 10.6992 28.2987 11.5142 29.6006C11.9983 30.3739 12.5483 31.0483 13.2183 31.5898C14.7521 32.8293 16.4899 33.405 18.4644 33.3184C19.2543 33.2836 20.0159 33.1303 20.7505 32.8535L21.0562 32.7314C22.5631 32.0933 23.7339 31.0559 24.6216 29.6377C26.074 27.3171 27.5347 25.0002 28.9956 22.6865C29.6823 21.5988 30.2164 20.454 30.5777 19.2334L30.6724 18.8936C31.1073 17.2601 31.2001 15.6026 30.9663 13.916C30.8225 12.8787 30.5488 11.8718 30.1509 10.8984C29.3509 8.94175 28.1804 7.25924 26.5747 5.85742C26.0588 5.40706 25.5045 5.00293 24.9165 4.64063C22.8769 3.38402 20.6466 2.77499 18.2368 2.73242Z" fill="white"/>
<path d="M20.9286 21.6688C20.656 21.1739 20.5319 20.6531 20.481 20.1049C20.4428 19.6941 20.4518 19.2845 20.5051 18.8822C20.5798 18.3179 20.7221 17.7644 20.93 17.2304C21.363 16.1184 21.9758 15.124 22.8704 14.3205C23.3884 13.8554 23.9668 13.4902 24.6502 13.3004C25.7826 12.9859 26.8181 13.4294 27.3651 14.484C27.6084 14.9533 27.7294 15.4562 27.7583 15.9815C27.8653 17.9298 27.1976 19.6131 25.9815 21.1041C25.4534 21.7516 24.8206 22.2756 24.0473 22.6091C23.3755 22.8988 22.6895 22.9899 21.9925 22.6786C21.522 22.4685 21.1875 22.1175 20.9286 21.6688Z" fill="white"/>
<path d="M11.2087 22.0809C10.1062 21.2395 9.37403 20.1465 8.8763 18.8804C8.52144 17.9777 8.32707 17.0453 8.38985 16.0776C8.44637 15.2066 8.66474 14.3796 9.34817 13.7636C9.86389 13.2988 10.4732 13.1152 11.1693 13.2291C12.1468 13.3892 12.9119 13.9194 13.5809 14.6064C14.575 15.6271 15.2077 16.8448 15.5277 18.2293C15.7009 18.9784 15.7716 19.732 15.6366 20.4922C15.5067 21.2239 15.2465 21.8974 14.6438 22.3833C14.1467 22.7841 13.5778 22.9326 12.9423 22.8414C12.2963 22.7487 11.7377 22.4649 11.2087 22.0809Z" fill="white"/>
<path d="M20.0934 28.2584C20.6213 27.6616 20.922 26.9851 20.9337 26.1931C20.9354 26.0846 20.9757 26.0255 21.0931 26.0268C21.346 26.0296 21.599 26.0288 21.8519 26.0271C21.9554 26.0265 22.0038 26.0617 21.9994 26.1763C21.9466 27.5711 21.3655 28.6964 20.232 29.5107C19.4313 30.0861 18.5232 30.3266 17.5365 30.1529C15.8893 29.863 14.8771 28.8524 14.349 27.3108C14.2321 26.9699 14.189 26.6134 14.158 26.2561C14.141 26.0601 14.1709 26.0297 14.3657 26.0293C14.5849 26.029 14.8044 26.0352 15.0233 26.0267C15.1626 26.0213 15.2032 26.0747 15.2132 26.2108C15.276 27.0697 15.5794 27.8274 16.2291 28.413C16.8762 28.9962 17.6351 29.2495 18.5121 29.1098C19.1363 29.0103 19.6502 28.7137 20.0934 28.2584Z" fill="white"/>
</g>
<defs>
<clipPath id="clip0_387_917">
<rect width="36" height="36" fill="white"/>
</clipPath>
</defs>
</svg>
