<svg width="46" height="42" viewBox="0 0 46 42" fill="none" xmlns="http://www.w3.org/2000/svg">
<path d="M15.6537 5.20967C16.0983 4.06077 16.7096 3.00304 17.6174 2.14592C21.2484 -1.33728 27.2507 -0.461921 29.7146 3.91487C31.5672 7.23394 33.5309 10.4801 35.439 13.7627C38.6254 19.2154 41.8488 24.6682 44.9982 30.1392C47.6474 34.7166 44.7759 40.4976 39.5146 41.2817C36.2912 41.7559 33.2715 40.297 31.6042 37.452C28.8068 32.6558 25.991 27.8596 23.1936 23.0816C23.138 22.9722 23.0639 22.881 22.9898 22.7898C22.6934 22.5527 22.5637 22.2062 22.3785 21.8962C21.1373 19.7443 19.859 17.6106 18.6178 15.4769C17.8212 14.0909 16.9875 12.7232 16.1909 11.3372C15.4684 10.0971 15.135 8.74758 15.172 7.32512C15.2276 6.59566 15.3202 5.86619 15.6537 5.20967Z" fill="#3C8BD9"/>
<path d="M15.654 5.20898C15.4872 5.8655 15.339 6.52202 15.302 7.21501C15.2464 8.74689 15.6354 10.1694 16.4135 11.5006C18.4513 14.9474 20.4891 18.4123 22.5084 21.8773C22.6937 22.1873 22.8419 22.4973 23.0271 22.7891C21.9156 24.6857 20.8041 26.5641 19.674 28.4607C18.1179 31.105 16.5617 33.7676 14.987 36.4119C14.9129 36.4119 14.8944 36.3754 14.8759 36.3207C14.8574 36.1748 14.9129 36.0471 14.95 35.9012C15.7095 33.1658 15.0797 30.7403 13.1715 28.6613C12.0044 27.403 10.5224 26.6917 8.81803 26.4547C6.59496 26.1446 4.63125 26.71 2.87132 28.0777C2.55639 28.3148 2.35261 28.6613 1.9821 28.8437C1.90799 28.8437 1.87094 28.8072 1.85242 28.7525C2.74164 27.2388 3.61235 25.7252 4.50157 24.2116C8.16964 17.9382 11.8377 11.6648 15.5243 5.40959C15.5613 5.33664 15.6169 5.28193 15.654 5.20898Z" fill="#FABC04"/>
<path d="M1.92625 28.8062C2.27823 28.4962 2.6117 28.1679 2.98221 27.8761C7.48392 24.3747 14.2458 26.9096 15.2276 32.4535C15.4684 33.7848 15.3388 35.0614 14.9312 36.3379C14.9127 36.4474 14.8941 36.5385 14.8571 36.648C14.6904 36.9398 14.5422 37.2498 14.3569 37.5416C12.7081 40.2223 10.2813 41.5536 7.09488 41.353C3.44535 41.0977 0.573883 38.3987 0.0736921 34.8243C-0.16714 33.0918 0.184846 31.4688 1.0926 29.9734C1.27785 29.6451 1.50016 29.3533 1.70394 29.0251C1.79657 28.9521 1.75952 28.8062 1.92625 28.8062Z" fill="#34A852"/>
<path d="M1.92648 28.8073C1.85238 28.8803 1.85238 29.0079 1.7227 29.0262C1.70417 28.8985 1.77827 28.8256 1.85238 28.7344L1.92648 28.8073Z" fill="#FABC04"/>
<path d="M14.8571 36.6499C14.783 36.5222 14.8571 36.431 14.9312 36.3398C14.9497 36.3581 14.9868 36.3946 15.0053 36.4128L14.8571 36.6499Z" fill="#E1C025"/>
</svg>
