<svg width="46" height="46" viewBox="0 0 46 46" fill="none" xmlns="http://www.w3.org/2000/svg">
<path fill-rule="evenodd" clip-rule="evenodd" d="M0 11.0273H45.9776V42.1584C45.9776 44.2743 44.2626 45.9895 42.1465 45.9895H3.83109C1.71518 45.9895 0 44.2736 0 42.1584V11.0273Z" fill="#518FF5"/>
<path fill-rule="evenodd" clip-rule="evenodd" d="M16.2216 33.0155L28.1617 22.0977L46 39.9094L45.9917 42.1585C45.9838 44.2745 44.2625 45.99 42.146 45.99H29.2532L16.2216 33.0155Z" fill="url(#paint0_linear_412_524)"/>
<path fill-rule="evenodd" clip-rule="evenodd" d="M0 3.84314C0 1.72712 1.71495 0.0117188 3.83109 0.0117188H42.1465C44.2624 0.0117188 45.9776 1.7269 45.9776 3.84314V11.0271H0V3.84314Z" fill="#4758B8"/>
<path fill-rule="evenodd" clip-rule="evenodd" d="M21.073 5.27939H16.5225C15.597 5.27939 14.8469 6.0299 14.8469 6.95573C14.8469 7.88168 15.5971 8.63196 16.5225 8.63196H29.455C30.3805 8.63196 31.1306 7.88146 31.1306 6.95573C31.1306 6.02967 30.3804 5.27939 29.455 5.27939H24.9044V4.80053C24.9044 3.74202 24.0468 2.88477 22.9887 2.88477C21.9305 2.88477 21.073 3.74247 21.073 4.80053V5.27939Z" fill="white"/>
<g filter="url(#filter0_d_412_524)">
<path d="M15.4119 22.5519C14.451 22.5519 13.672 21.7728 13.672 20.812C13.672 19.8511 14.451 19.0721 15.4119 19.0721C16.3728 19.0721 17.1518 19.8511 17.1518 20.812C17.1518 21.7728 16.3728 22.5519 15.4119 22.5519ZM33.974 27.8985L23.4674 17.3919C23.0471 16.9717 22.4634 16.7149 21.8214 16.7149H13.6496C13.3427 16.7138 13.0386 16.7735 12.7548 16.8904C12.4711 17.0074 12.2133 17.1793 11.9962 17.3963C11.7792 17.6133 11.6073 17.8712 11.4903 18.1549C11.3734 18.4387 11.3137 18.7427 11.3148 19.0497V27.2214C11.3148 27.8635 11.5716 28.4472 12.0035 28.8675L22.4985 39.3741C22.9304 39.7943 23.5141 40.0628 24.1562 40.0628C24.7982 40.0628 25.3819 39.7943 25.8022 39.3741L33.974 31.2023C34.4059 30.782 34.6627 30.1983 34.6627 29.5562C34.6627 28.9025 34.3942 28.3188 33.974 27.8985Z" fill="black"/>
</g>
<path d="M15.4119 22.5519C14.451 22.5519 13.672 21.7728 13.672 20.812C13.672 19.8511 14.451 19.0721 15.4119 19.0721C16.3728 19.0721 17.1518 19.8511 17.1518 20.812C17.1518 21.7728 16.3728 22.5519 15.4119 22.5519ZM33.974 27.8985L23.4674 17.3919C23.0471 16.9717 22.4634 16.7149 21.8214 16.7149H13.6496C13.3427 16.7138 13.0386 16.7735 12.7548 16.8904C12.4711 17.0074 12.2133 17.1793 11.9962 17.3963C11.7792 17.6133 11.6073 17.8712 11.4903 18.1549C11.3734 18.4387 11.3137 18.7427 11.3148 19.0497V27.2214C11.3148 27.8635 11.5716 28.4472 12.0035 28.8675L22.4985 39.3741C22.9304 39.7943 23.5141 40.0628 24.1562 40.0628C24.7982 40.0628 25.3819 39.7943 25.8022 39.3741L33.974 31.2023C34.4059 30.782 34.6627 30.1983 34.6627 29.5562C34.6627 28.9025 34.3942 28.3188 33.974 27.8985Z" fill="white"/>
<defs>
<filter id="filter0_d_412_524" x="-43.5901" y="-38.19" width="181.962" height="181.962" filterUnits="userSpaceOnUse" color-interpolation-filters="sRGB">
<feFlood flood-opacity="0" result="BackgroundImageFix"/>
<feColorMatrix in="SourceAlpha" type="matrix" values="0 0 0 0 0 0 0 0 0 0 0 0 0 0 0 0 0 0 127 0" result="hardAlpha"/>
<feOffset dx="24.4021" dy="24.4021"/>
<feGaussianBlur stdDeviation="39.6535"/>
<feColorMatrix type="matrix" values="0 0 0 0 0 0 0 0 0 0 0 0 0 0 0 0 0 0 0.16 0"/>
<feBlend mode="normal" in2="BackgroundImageFix" result="effect1_dropShadow_412_524"/>
<feBlend mode="normal" in="SourceGraphic" in2="effect1_dropShadow_412_524" result="shape"/>
</filter>
<linearGradient id="paint0_linear_412_524" x1="2994.06" y1="2411.34" x2="661.615" y2="-495.727" gradientUnits="userSpaceOnUse">
<stop stop-color="#4385F5"/>
<stop offset="1" stop-color="#3569D3"/>
</linearGradient>
</defs>
</svg>
