<svg width="46" height="46" viewBox="0 0 46 46" fill="none" xmlns="http://www.w3.org/2000/svg">
<path d="M27.0002 44.1157L19.0155 36.3297L36.1636 18.8184L44.4305 26.9206L27.0002 44.1157Z" fill="#8AB4F8"/>
<path d="M27.0341 9.69154L19.0782 1.56836L1.68187 18.8001C-0.560625 21.0426 -0.560625 24.6781 1.68187 26.9232L18.8169 44.1706L26.9191 36.5911L13.864 22.8617L27.0341 9.69154Z" fill="#4285F4"/>
<path d="M44.3155 18.9338L27.0655 1.68384C24.8204 -0.561278 21.1796 -0.561278 18.9345 1.68384C16.6894 3.92895 16.6894 7.56975 18.9345 9.81486L36.1845 27.0649C38.4296 29.31 42.0704 29.31 44.3155 27.0649C46.5606 24.8197 46.5606 21.179 44.3155 18.9338Z" fill="#8AB4F8"/>
<path d="M22.868 46.0004C25.9715 46.0004 28.4874 43.4845 28.4874 40.381C28.4874 37.2776 25.9715 34.7617 22.868 34.7617C19.7646 34.7617 17.2487 37.2776 17.2487 40.381C17.2487 43.4845 19.7646 46.0004 22.868 46.0004Z" fill="#246FDB"/>
</svg>
