<svg width="28" height="25" viewBox="0 0 28 25" fill="none" xmlns="http://www.w3.org/2000/svg">
<g clip-path="url(#clip0_706_2211)">
<path d="M24.2012 7.91007L18.1535 2.57463C16.6881 1.28195 14.8289 0.642826 13.0007 0.7198C11.1747 0.834335 9.39433 1.6642 8.06997 3.10309L2.61345 9.04144C1.97719 9.72816 1.48521 10.5349 1.1665 11.4141C0.847784 12.2933 0.708793 13.2271 0.757714 14.1606C0.806635 15.0941 1.04248 16.0083 1.45134 16.8493C1.86021 17.6904 2.43382 18.4413 3.13838 19.0577L3.90227 19.7316C5.25991 20.9308 12.147 23.4718 12.7642 23.6837L12.1905 12.738C12.173 12.4043 11.924 12.1127 11.5978 12.006L7.93807 10.7958C7.65735 11.0565 7.29755 11.2165 6.91552 11.2505C6.5335 11.2844 6.15105 11.1905 5.82862 10.9835C5.5062 10.7765 5.26218 10.4683 5.13516 10.1075C5.00813 9.74672 5.00533 9.35398 5.12721 8.99135C5.24908 8.62873 5.48868 8.3169 5.80812 8.10517C6.12756 7.89344 6.50864 7.79388 6.8911 7.82222C7.27357 7.85056 7.63562 8.00519 7.92002 8.26167C8.20442 8.51815 8.39495 8.86184 8.4615 9.23843L12.0227 10.4164C12.5049 10.5743 13.0115 10.6457 13.5189 10.6272C14.0258 10.5944 14.5225 10.4704 14.9852 10.2611L18.4075 8.71718C18.4311 8.38716 18.5497 8.07091 18.7491 7.80641C18.9485 7.54192 19.2202 7.34043 19.5317 7.22615C19.8431 7.11187 20.181 7.08967 20.5047 7.1622C20.8284 7.23474 21.1242 7.39893 21.3566 7.63505C21.5889 7.87117 21.7479 8.16918 21.8145 8.49328C21.8811 8.81738 21.8524 9.15378 21.7319 9.46207C21.6114 9.77036 21.4042 10.0374 21.1351 10.2312C20.8661 10.425 20.5467 10.5372 20.2154 10.5544C19.811 10.5769 19.4118 10.4553 19.0891 10.2114L15.5717 11.7977C15.2589 11.938 15.0415 12.2501 15.0592 12.5876L15.6328 23.5333C16.2252 23.2581 22.8071 20.0112 24.0341 18.6765L24.7223 17.9262C25.3587 17.2397 25.851 16.4332 26.17 15.5542C26.489 14.6752 26.6284 13.7414 26.5798 12.8079C26.5312 11.8745 26.2958 10.9602 25.8873 10.1191C25.4788 9.27788 24.9055 8.52679 24.2012 7.91007ZM13.3934 8.2134C12.9822 8.23495 12.5738 8.13443 12.2199 7.92453C11.866 7.71464 11.5825 7.40481 11.4053 7.03422C11.2281 6.66363 11.1651 6.24894 11.2243 5.84257C11.2835 5.43621 11.4622 5.05643 11.7378 4.75127C12.0134 4.44612 12.3736 4.22928 12.7728 4.12819C13.1719 4.02709 13.5922 4.04629 13.9803 4.18334C14.3685 4.32039 14.7071 4.56915 14.9534 4.89815C15.1997 5.22715 15.3426 5.62161 15.364 6.03165C15.3923 6.58131 15.2006 7.11975 14.8312 7.52879C14.4617 7.93783 13.9446 8.18405 13.3934 8.2134Z" fill="white"/>
</g>
<defs>
<clipPath id="clip0_706_2211">
<rect width="26" height="23" fill="white" transform="translate(0 1.36133) rotate(-3)"/>
</clipPath>
</defs>
</svg>
