<svg width="110" height="97" viewBox="0 0 110 97" fill="none" xmlns="http://www.w3.org/2000/svg">
<g clip-path="url(#clip0_109_1260)">
<path d="M100.799 32.9212L76.4293 9.11214C70.5241 3.34358 62.8108 0.241046 55.0694 0.161682C47.3295 0.241046 39.6236 3.34358 33.7096 9.11214L9.34109 32.9212C6.50087 35.6734 4.24363 38.9629 2.70241 42.5959C1.1612 46.2289 0.367188 50.1318 0.367188 54.0746C0.367188 58.0174 1.1612 61.9203 2.70241 65.5532C4.24363 69.1862 6.50087 72.4757 9.34109 75.2279L12.4193 78.2349C17.8897 83.5861 46.4247 95.8096 48.9854 96.8383V50.6061C48.9854 49.1966 47.9978 47.9136 46.6435 47.3919L31.449 41.4866C30.2053 42.5226 28.6497 43.117 27.0281 43.1758C25.4066 43.2346 23.8115 42.7546 22.4951 41.8115C21.1787 40.8685 20.216 39.5162 19.7592 37.9684C19.3024 36.4207 19.3775 34.7657 19.9727 33.2652C20.568 31.7646 21.6493 30.504 23.0458 29.6827C24.4423 28.8614 26.0744 28.5261 27.684 28.7299C29.2937 28.9337 30.7891 29.665 31.9339 30.8081C33.0787 31.9513 33.8076 33.441 34.0053 35.042L48.7903 40.79C50.793 41.5615 52.9174 41.974 55.065 42.0084C57.2139 41.982 59.3403 41.5693 61.3412 40.79L76.1424 35.042C76.3149 33.6571 76.8861 32.3511 77.7871 31.281C78.6882 30.2109 79.8809 29.4222 81.222 29.0096C82.5631 28.597 83.9955 28.578 85.3472 28.955C86.6988 29.332 87.9122 30.0889 88.8416 31.1348C89.771 32.1807 90.3769 33.4711 90.5864 34.851C90.7959 36.2308 90.6002 37.6415 90.0228 38.9135C89.4454 40.1855 88.5108 41.2647 87.3313 42.0215C86.1518 42.7783 84.7776 43.1805 83.3737 43.1797C81.6603 43.1853 80.0007 42.5852 78.6913 41.4866L63.4791 47.3919C62.1263 47.9136 61.1387 49.1805 61.1387 50.6061V96.8383C63.7024 95.8096 92.2299 83.5861 97.7092 78.2349L100.783 75.2264C103.624 72.4754 105.882 69.1868 107.425 65.5546C108.967 61.9223 109.763 58.0199 109.764 54.0772C109.766 50.1346 108.973 46.2316 107.434 42.5982C105.894 38.9648 103.638 35.6745 100.799 32.9212ZM55.0694 31.8131C53.3272 31.8131 51.624 31.2995 50.1753 30.3372C48.7267 29.375 47.5977 28.0073 46.931 26.4072C46.2643 24.8071 46.0899 23.0464 46.4299 21.3478C46.77 19.6492 47.6091 18.0889 48.8412 16.8644C50.0732 15.6398 51.643 14.8059 53.3518 14.4682C55.0607 14.1305 56.8319 14.3042 58.4415 14.9671C60.0511 15.6301 61.4267 16.7527 62.3945 18.1929C63.3622 19.633 63.8786 21.3262 63.8783 23.0581C63.876 25.3796 62.9471 27.6053 61.2956 29.2467C59.6441 30.8882 57.4048 31.8111 55.0694 31.8131Z" fill="#7DBA28"/>
</g>
<defs>
<clipPath id="clip0_109_1260">
<rect width="110" height="97" fill="white"/>
</clipPath>
</defs>
</svg>
