<svg preserveAspectRatio="none" width="100%" height="100%" overflow="visible" style="display: block;" viewBox="0 0 84 28" fill="none" xmlns="http://www.w3.org/2000/svg">
<g id="Icon" clip-path="url(#clip0_0_9)">
<path id="Vector" d="M0.076355 14.5352C0.0763552 14.2019 0.0763552 13.8686 0.095206 13.4776C0.173961 12.936 0.255922 12.4533 0.285879 11.9673C0.305287 11.6525 0.248712 11.333 0.23165 10.9887C0.252637 10.8535 0.268157 10.7452 0.308413 10.6208C0.352701 10.3342 0.372252 10.0638 0.389301 9.76757C0.402511 9.65768 0.418224 9.57353 0.460997 9.47478C0.510086 9.22345 0.532115 8.98673 0.553864 8.72659C0.567123 8.65898 0.580661 8.61478 0.619053 8.55931C0.660338 8.40195 0.676769 8.25586 0.6915 8.08362C0.709942 7.97334 0.730086 7.88921 0.777348 7.79127C0.8219 7.6427 0.839333 7.50795 0.857278 7.34936C0.873395 7.28124 0.889 7.23695 0.929969 7.18459C0.971838 7.05436 0.988343 6.9322 1.00338 6.78496C1.01453 6.72912 1.02715 6.69836 1.06544 6.65803C1.12002 6.50837 1.14892 6.36827 1.17811 6.20401C1.19921 6.13656 1.22002 6.09328 1.26427 6.04883C1.29545 5.9703 1.30321 5.89295 1.31175 5.79113C1.33928 5.70805 1.36602 5.64942 1.42066 5.58479C1.46357 5.49098 1.47858 5.40318 1.49406 5.29472C1.50897 5.25137 1.52341 5.22868 1.56517 5.20245C1.66267 4.98365 1.73284 4.7684 1.80483 4.53222C1.82239 4.48895 1.83814 4.4666 1.88083 4.43991C1.92075 4.37094 1.93372 4.30632 1.94822 4.22113C1.96548 4.17881 1.9812 4.15704 2.02432 4.13119C2.06558 4.06233 2.07945 3.99758 2.09583 3.91236C2.11519 3.87094 2.13205 3.85 2.17594 3.82576C2.22187 3.75958 2.24076 3.69669 2.26322 3.61307C2.28385 3.57084 2.3009 3.54933 2.3435 3.5247C2.38797 3.46122 2.40687 3.40087 2.4325 3.31534C2.79463 2.8286 3.10751 2.32495 3.51334 1.91326C4.79981 0.608217 6.33799 0.617846 7.64666 1.89431C8.52974 2.75566 9.08187 3.82424 9.54358 4.94702C9.72324 5.38395 9.87608 5.83195 10.0777 6.37305C10.1792 6.06425 10.2422 5.86308 10.3112 5.66395C10.789 4.28388 11.3913 2.97072 12.4434 1.92343C13.7689 0.604016 15.3236 0.608363 16.6383 1.93216C17.6456 2.94651 18.24 4.20688 18.7135 5.53367C18.795 5.76183 18.8776 5.98955 18.9914 6.30536C19.0804 6.13417 19.1272 6.06326 19.156 5.98567C19.316 5.5552 19.4541 5.11567 19.6324 4.69305C20.0696 3.65625 20.6075 2.67699 21.4253 1.88593C22.1229 1.21105 22.9304 0.802889 23.9384 0.986858C24.6302 1.11311 25.1616 1.52174 25.6575 2.0147C25.7064 2.07617 25.7538 2.11341 25.8059 2.14646C25.8106 2.14228 25.802 2.15143 25.8027 2.17567C25.851 2.23733 25.8986 2.27476 25.9599 2.33275C26.0754 2.4845 26.1772 2.6157 26.2792 2.77125C26.3219 2.8377 26.3644 2.87979 26.4184 2.94307C26.4809 3.04507 26.5319 3.12588 26.583 3.23361C26.6767 3.40298 26.7702 3.54545 26.873 3.7079C26.8969 3.75329 26.9116 3.77869 26.921 3.82768C26.9511 3.89726 26.9865 3.94324 27.0319 4.00959C27.0567 4.0564 27.0715 4.08283 27.0795 4.13246C27.1054 4.20327 27.138 4.2509 27.1793 4.31878C27.2014 4.36496 27.2149 4.3909 27.2236 4.44476C27.9263 6.22255 28.4293 8.02857 28.6552 9.91071C28.6978 9.91535 28.7405 9.92 28.7831 9.92464C28.8486 9.69537 28.914 9.46609 28.9919 9.2154C29.0223 9.148 29.0403 9.10202 29.0809 9.04385C29.1672 8.84614 29.2308 8.66063 29.3058 8.45726C29.3311 8.41487 29.3451 8.39034 29.3814 8.35397C29.4243 8.26192 29.4449 8.18172 29.4781 8.0842C29.5002 8.03987 29.5095 8.01288 29.5407 7.97708C29.5801 7.9101 29.5977 7.85193 29.6288 7.77698C29.6535 7.73385 29.6647 7.70749 29.6979 7.6729C29.7388 7.6075 29.7577 7.55032 29.7866 7.48198C29.7966 7.47082 29.8089 7.44344 29.8316 7.43481C29.8695 7.36716 29.8847 7.30814 29.9125 7.23171C29.9406 7.19035 29.9562 7.1664 29.9936 7.13315C30.0332 7.06583 30.0508 7.0078 30.0772 6.93738C30.0858 6.92499 30.101 6.89879 30.1248 6.89459C30.1719 6.83308 30.1951 6.77577 30.2335 6.69963C30.299 6.59838 30.3493 6.51597 30.4235 6.42959C30.4699 6.36894 30.4926 6.31225 30.5303 6.23647C30.5983 6.13618 30.6513 6.05497 30.7283 5.97045C30.7796 5.91241 30.807 5.8577 30.8507 5.78421C30.967 5.63231 31.067 5.49919 31.1909 5.36259C31.2426 5.30408 31.2702 5.24907 31.3155 5.17604C32.4148 3.88606 33.6439 2.78924 35.1328 1.97645C35.2025 1.94147 35.2475 1.90207 35.3077 1.84801C35.3488 1.82248 35.3746 1.8116 35.4259 1.80828C35.4978 1.77479 35.5443 1.73373 35.6063 1.678C35.6486 1.65499 35.6755 1.64665 35.727 1.64856C35.8005 1.62046 35.8494 1.58211 35.9137 1.52942C35.9558 1.50641 35.9825 1.49775 36.0337 1.49904C36.1074 1.47095 36.1564 1.43292 36.2211 1.38082C36.2633 1.35795 36.2898 1.34915 36.3453 1.34866C36.5295 1.305 36.6888 1.26294 36.8388 1.19907C37.1924 1.04859 37.5415 0.887718 37.9139 0.720566C37.967 0.705713 37.9985 0.701346 38.0487 0.71491C38.3605 0.634959 38.6537 0.537079 38.9645 0.429534C39.0086 0.41697 39.035 0.41407 39.0928 0.424742C39.3196 0.387953 39.5151 0.337591 39.7395 0.277881C39.9775 0.253159 40.1865 0.237786 40.4153 0.243153C40.7531 0.201319 41.0711 0.138746 41.3891 0.0761719C41.8743 0.0761718 42.3596 0.0761718 42.9036 0.0921333C43.4844 0.186884 44.01 0.247489 44.5275 0.349096C45.1651 0.474272 45.796 0.633602 46.449 0.787928C46.4962 0.804348 46.5242 0.811012 46.5657 0.839264C46.7657 0.916811 46.9521 0.972771 47.1598 1.04146C47.2268 1.07347 47.2724 1.09274 47.3279 1.13405C47.3985 1.16538 47.4592 1.17469 47.5393 1.19371C47.5855 1.21431 47.6123 1.2252 47.6443 1.26006C47.7091 1.29716 47.7687 1.31029 47.8481 1.33414C47.8949 1.35795 47.9219 1.37104 47.9549 1.4096C48.0416 1.45717 48.1221 1.47927 48.2163 1.50953C48.23 1.51769 48.2575 1.53383 48.2635 1.55926C48.3498 1.60622 48.43 1.62776 48.5242 1.65792C48.5381 1.66654 48.566 1.68389 48.5701 1.70761C48.6311 1.74864 48.6879 1.76595 48.7634 1.79533C48.8077 1.82156 48.8336 1.83573 48.8637 1.87404C48.9265 1.91864 48.985 1.9391 49.0607 1.97175C49.103 1.99687 49.128 2.00979 49.1589 2.04599C49.2225 2.09036 49.2802 2.11145 49.3492 2.1425C49.3605 2.15246 49.3875 2.16581 49.3947 2.1888C49.4595 2.23195 49.517 2.2521 49.5872 2.28081C49.5998 2.28937 49.6252 2.30624 49.6286 2.33043C49.6883 2.37998 49.7447 2.40534 49.8198 2.44555C49.9181 2.51375 49.9976 2.56709 50.081 2.64453C50.1411 2.69418 50.1974 2.71972 50.2727 2.76127C50.4247 2.87665 50.5578 2.97603 50.6935 3.09968C50.7496 3.15414 50.8031 3.18434 50.8746 3.23247C53.0306 4.99257 54.4805 7.21583 55.4045 9.89655C55.4688 9.75528 55.4917 9.72556 55.4955 9.69359C55.6771 8.14757 56.048 6.64717 56.606 5.19596C57.0415 4.06344 57.5847 2.9906 58.417 2.08519C59.7833 0.598925 61.4226 0.551299 62.8275 1.99327C63.9001 3.09417 64.4844 4.47562 64.9817 5.90053C65.0195 6.00873 65.0738 6.1111 65.1285 6.23415C65.1923 6.17522 65.2203 6.16158 65.2277 6.14062C65.3036 5.9256 65.3726 5.70809 65.4502 5.49373C65.9302 4.16875 66.5277 2.90824 67.5419 1.89923C68.8227 0.62483 70.3849 0.592027 71.647 1.88806C72.2056 2.46173 72.6708 3.15449 73.0592 3.85913C73.4763 4.61578 73.7535 5.44985 74.1128 6.29998C74.282 5.83322 74.4275 5.38078 74.6082 4.94295C75.1114 3.72401 75.7136 2.5646 76.7341 1.68512C77.8877 0.691072 79.237 0.690898 80.3979 1.68054C81.0352 2.22377 81.5156 2.89053 81.8843 3.66124C81.9181 3.73471 81.9601 3.78222 82.0181 3.84291C82.0421 3.88229 82.05 3.90847 82.0469 3.96013C82.0753 4.03574 82.1146 4.08587 82.1693 4.14988C82.1913 4.19036 82.1979 4.21696 82.1938 4.26866C82.2208 4.34423 82.2584 4.39471 82.3144 4.46578C82.4047 4.6739 82.4766 4.86143 82.5307 5.06027C82.5465 5.11655 82.58 5.16151 82.6303 5.22495C82.6608 5.29113 82.6746 5.33882 82.6721 5.40902C82.6897 5.48486 82.7235 5.5382 82.7719 5.61125C82.8045 5.69271 82.8225 5.75446 82.8222 5.83394C82.8477 5.94045 82.8913 6.02924 82.9503 6.13767C82.9754 6.20608 82.9852 6.25485 82.9779 6.3292C83.0004 6.43008 83.0399 6.50536 83.0952 6.60231C83.1268 6.71103 83.1427 6.7981 83.1391 6.90071C83.1699 7.03718 83.2201 7.15811 83.2824 7.30449C83.3009 7.38552 83.3075 7.4411 83.2944 7.5107C83.3233 7.64687 83.372 7.76904 83.4321 7.91692C83.4486 7.99846 83.4536 8.05428 83.4389 8.12768C83.465 8.28685 83.5108 8.42845 83.5689 8.5932C83.5917 8.70254 83.6022 8.78873 83.5923 8.89474C83.6203 9.10606 83.6687 9.29757 83.7281 9.51439C83.7483 9.64954 83.7576 9.75937 83.7452 9.88959C83.7742 10.1779 83.8249 10.4457 83.885 10.7421C83.9047 10.9543 83.915 11.138 83.9015 11.3429C83.9439 12.064 84.0101 12.7641 84.0764 13.4642C84.0764 13.7975 84.0764 14.1308 84.0549 14.5197C83.9714 15.2094 83.9066 15.8434 83.8514 16.4782C83.8458 16.542 83.8985 16.6109 83.9202 16.7102C83.8482 17.3924 83.8325 18.0525 83.7011 18.6887C83.4518 19.8955 83.1945 21.1066 82.833 22.2827C82.409 23.6621 81.7871 24.9637 80.7783 26.0303C79.9494 26.9066 78.9817 27.4225 77.741 26.991C77.0233 26.7413 76.4813 26.2403 76.0179 25.6516C75.3108 24.7532 74.8145 23.7419 74.4353 22.6683C74.3332 22.3794 74.2242 22.0929 74.0945 21.7405C73.833 22.4188 73.6263 23.016 73.3748 23.5936C72.9457 24.5789 72.417 25.5082 71.6164 26.2446C70.8239 26.9736 69.9127 27.4127 68.8354 26.9886C68.3538 26.799 67.886 26.4855 67.5133 26.1236C66.38 25.023 65.7863 23.6003 65.2945 22.1301C65.263 22.0359 65.2163 21.9468 65.1339 21.7566C64.9061 22.364 64.7379 22.8659 64.5317 23.3516C64.0309 24.5317 63.4177 25.6411 62.403 26.4691C61.3515 27.3271 60.1823 27.4091 59.1168 26.58C58.5577 26.1449 58.0618 25.5812 57.6683 24.9884C56.5746 23.3408 56.0573 21.4616 55.6718 19.5436C55.5864 19.1188 55.5249 18.6891 55.4331 18.1479C55.3279 18.4078 55.2625 18.5571 55.2064 18.7098C54.7433 19.9696 54.1282 21.1471 53.3399 22.2355C52.1034 23.9426 50.5447 25.2797 48.6967 26.3166C48.6238 26.3515 48.5745 26.3869 48.5044 26.4246C48.4614 26.4427 48.4391 26.4586 48.3891 26.4743C48.1888 26.5633 48.0163 26.6526 47.8245 26.7499C47.783 26.775 47.7608 26.7919 47.7104 26.8043C47.3876 26.9121 47.0987 27.0432 46.7976 27.1331C46.0042 27.3699 45.2054 27.5889 44.3775 27.8138C43.9715 27.8559 43.5968 27.8991 43.2016 27.9229C42.9155 27.9101 42.6496 27.9239 42.3839 27.9217C41.6883 27.9158 40.9927 27.9029 40.2754 27.8882C40.2244 27.88 40.1951 27.8765 40.1526 27.8518C40.0465 27.8286 39.9536 27.8266 39.8405 27.8192C39.7924 27.8107 39.7647 27.8076 39.7211 27.7821C39.5966 27.7552 39.4879 27.7507 39.3578 27.7406C39.3075 27.7296 39.2785 27.7242 39.2439 27.6989C39.1914 27.6794 39.1445 27.6799 39.0776 27.6727C39.0298 27.6598 39.0019 27.6546 38.9612 27.628C38.7945 27.5817 38.6407 27.5568 38.4672 27.5229C38.4195 27.5075 38.3914 27.5012 38.3488 27.4728C37.9698 27.3451 37.6054 27.2396 37.216 27.1231C37.1239 27.0841 37.0569 27.056 36.9774 27.006C36.8022 26.9324 36.6396 26.8808 36.453 26.8167C36.2841 26.7302 36.1392 26.6564 35.984 26.5607C35.9143 26.5269 35.8548 26.515 35.773 26.4882C32.3215 24.6712 30.026 21.8927 28.7591 18.2225C28.5048 19.3378 28.2989 20.4077 28.0129 21.4555C27.6058 22.9469 27.0204 24.3645 26.0693 25.6069C24.5451 27.5978 22.6537 27.6611 21.0332 25.7586C20.1356 24.7048 19.607 23.4541 19.1712 22.1576C19.136 22.0528 19.0819 21.9544 19.0366 21.8531C18.865 22.1063 18.7893 22.3449 18.7031 22.5796C18.2041 23.9379 17.5972 25.2336 16.5241 26.2488C15.2572 27.4473 13.7869 27.4407 12.5221 26.2369C11.8209 25.5696 11.3098 24.7672 10.917 23.892C10.6135 23.2156 10.3559 22.5186 10.0534 21.7701C9.98538 21.9321 9.93168 22.0527 9.88376 22.1756C9.667 22.7315 9.48308 23.3027 9.22957 23.8411C8.7279 24.9065 8.12282 25.9054 7.13804 26.6078C6.13818 27.3209 5.04028 27.3337 4.0542 26.6208C3.74821 26.3996 3.48941 26.1129 3.20778 25.8318C3.15971 25.7691 3.11286 25.7307 3.05182 25.6719C2.93797 25.5186 2.83833 25.3858 2.73879 25.2286C2.69725 25.1612 2.6556 25.1182 2.60644 25.0624C2.59894 25.0495 2.58064 25.026 2.58375 25.0023C2.54735 24.9328 2.50784 24.887 2.46214 24.8276C2.45595 24.814 2.43562 24.7922 2.43722 24.7684C2.40216 24.6979 2.36551 24.6512 2.32075 24.5849C2.29751 24.5417 2.28238 24.518 2.26933 24.4702C2.23496 24.3992 2.19851 24.3525 2.15283 24.2863C2.12807 24.2426 2.11256 24.2184 2.09955 24.1666C1.975 23.8858 1.84794 23.6327 1.71505 23.359C1.69586 23.3136 1.6825 23.2887 1.67186 23.2339C1.48934 22.7008 1.3041 22.1976 1.11349 21.6679C1.08223 21.574 1.05635 21.5067 1.03742 21.4084C0.914091 20.8716 0.783814 20.3657 0.651816 19.839C0.642701 19.7915 0.635305 19.7648 0.643507 19.7183C0.606534 19.4972 0.553964 19.2959 0.500523 19.074C0.493599 19.0266 0.487547 18.9999 0.498631 18.9509C0.437971 18.4849 0.360172 18.0412 0.281402 17.5746C0.276166 17.5215 0.271903 17.4913 0.280529 17.4349C0.273753 17.3177 0.254088 17.2268 0.234293 17.1049C0.225419 16.9716 0.216676 16.8691 0.223418 16.7338C0.231249 16.4381 0.223594 16.1753 0.239743 15.895C0.251068 15.5669 0.251973 15.255 0.220097 14.9464C0.205582 14.8058 0.126274 14.672 0.076355 14.5352ZM44.938 16.2268C44.9492 15.883 44.9466 15.5381 44.9765 15.1959C44.9981 14.9481 44.9011 14.8972 44.6736 14.8983C42.9441 14.9063 41.2146 14.9082 39.4852 14.8968C39.2218 14.8951 39.1601 14.9817 39.1768 15.2277C39.2375 16.117 39.2576 17.0097 39.3371 17.8972C39.5375 20.1342 39.8684 22.3508 40.716 24.447C40.9497 25.0247 41.3167 25.5588 41.6851 26.0674C41.9056 26.372 42.2053 26.3468 42.4724 26.0738C42.6657 25.8763 42.8736 25.6597 42.9742 25.4108C43.3589 24.4596 43.7712 23.5112 44.0477 22.5264C44.6181 20.495 44.8076 18.3987 44.938 16.2268ZM39.7934 6.85588C39.3962 8.94301 39.2118 11.0485 39.177 13.1747C41.1413 13.1747 43.0312 13.1747 44.969 13.1747C44.969 13.0223 44.9755 12.8862 44.9679 12.751C44.9204 11.899 44.8916 11.0453 44.8156 10.1959C44.6292 8.11214 44.337 6.04234 43.5987 4.07338C43.3392 3.38144 42.9641 2.72053 42.5581 2.10052C42.2751 1.6684 41.9213 1.69383 41.5844 2.09573C41.3506 2.37473 41.1503 2.69169 40.9856 3.01735C40.3833 4.208 40.082 5.49703 39.7934 6.85588ZM33.9203 12.8772C33.8646 13.1524 34.0144 13.1955 34.2453 13.1935C35.1485 13.1856 36.0517 13.1896 36.955 13.1899C37.4697 13.19 37.4694 13.1907 37.4833 12.6776C37.556 9.99501 37.8383 7.33942 38.5564 4.74601C38.7577 4.01909 39.0267 3.31098 39.268 2.58419C39.2334 2.59181 39.1954 2.59137 39.1673 2.60784C39.0251 2.69115 38.8814 2.77294 38.7455 2.8659C36.7138 4.25546 35.5434 6.27238 34.7506 8.52515C34.266 9.90187 33.9998 11.3427 33.9203 12.8772ZM46.6739 12.9276C46.6627 13.1559 46.7958 13.1943 46.99 13.1932C47.9694 13.1874 48.9488 13.184 49.9281 13.1948C50.1874 13.1976 50.248 13.1053 50.2334 12.8557C50.1298 11.0818 49.7418 9.3703 49.0869 7.72419C48.4003 5.99819 47.4188 4.46689 45.9637 3.28034C45.6317 3.00958 45.2613 2.786 44.9067 2.53942C45.2421 3.6669 45.6182 4.72346 45.8666 5.80933C46.3964 8.12527 46.6322 10.4822 46.6739 12.9276ZM47.766 14.9023C47.5499 14.9022 47.3319 14.9202 47.1181 14.8978C46.7782 14.8622 46.6677 14.9701 46.6608 15.3355C46.6092 18.055 46.3112 20.7458 45.5873 23.375C45.3936 24.0782 45.1265 24.7612 44.8937 25.4536C47.3017 24.9547 50.3061 19.0488 50.2214 14.9023C49.4309 14.9023 48.6365 14.9023 47.766 14.9023ZM34.0472 16.4982C34.251 17.9409 34.6106 19.3411 35.1981 20.6772C35.9782 22.4515 37.0381 24.0116 38.6465 25.144C38.8334 25.2755 39.0384 25.3811 39.2852 25.5287C39.2685 25.4083 39.2713 25.37 39.2577 25.339C38.5725 23.7779 38.159 22.1365 37.9538 20.4545C37.7413 18.7128 37.6291 16.9587 37.4832 15.2091C37.4671 15.0164 37.4455 14.8977 37.2134 14.8992C36.1964 14.9057 35.1792 14.9024 34.1621 14.9001C33.97 14.8997 33.8889 14.9657 33.9161 15.1766C33.9698 15.593 33.9995 16.0125 34.0472 16.4982ZM53.9373 11.1059C53.1705 8.16239 51.5761 5.79595 49.0547 4.07478C49.1902 4.36465 49.3826 4.61693 49.5477 4.88599C51.0022 7.25607 51.7181 9.85673 51.9358 12.6111C51.9816 13.1913 51.9794 13.1913 52.5689 13.1911C53.1216 13.1908 53.6742 13.191 54.2973 13.191C54.1744 12.4664 54.0642 11.8167 53.9373 11.1059ZM30.593 13.1911C30.9615 13.191 31.3328 13.1624 31.6977 13.1987C32.0789 13.2366 32.1906 13.1088 32.2155 12.726C32.3849 10.1299 33.0364 7.66556 34.307 5.3824C34.5476 4.95007 34.8122 4.53116 35.1018 4.04563C32.6571 5.12483 29.4862 10.8067 29.9631 13.1911C30.1441 13.1911 30.3322 13.1911 30.593 13.1911ZM51.1004 19.7789C50.6441 21.2566 49.9683 22.6293 49.0545 23.9388C51.2077 23.4069 54.4304 17.7339 54.2137 14.9011C53.6003 14.9011 52.9804 14.9202 52.3625 14.8933C52.0383 14.8792 51.9583 14.9937 51.9397 15.3007C51.8486 16.8067 51.5925 18.2849 51.1004 19.7789ZM34.7462 23.841C34.8344 23.8806 34.9227 23.9202 35.0978 23.9987C34.9892 23.8215 34.9386 23.7352 34.8844 23.6513C34.2 22.591 33.6326 21.473 33.2133 20.2803C32.64 18.6491 32.3104 16.9698 32.1934 15.2455C32.1855 15.1287 32.095 14.9207 32.0376 14.9189C31.3326 14.8962 30.6266 14.9041 29.8969 14.9041C29.9889 16.1813 30.2497 17.3546 30.6937 18.4839C31.5369 20.6286 32.8855 22.3959 34.7462 23.841Z" fill="var(--fill-0, #FF6A3D)"/>
<path id="Vector_2" d="M44.4182 0.0761719C44.5991 0.155985 44.7469 0.260966 44.9114 0.310896C45.4061 0.461082 45.9073 0.589818 46.4179 0.752547C45.796 0.633602 45.1651 0.474272 44.5275 0.349096C44.01 0.247489 43.4844 0.186884 42.9394 0.0921335C43.1984 0.076172 43.4804 0.076172 43.8133 0.102081C44.0064 0.110718 44.1487 0.0934449 44.2909 0.076172C44.3248 0.076172 44.3588 0.076172 44.4182 0.0761719Z" fill="var(--fill-0, #FF6A3D)"/>
<path id="Vector_3" d="M40.9667 28.0762C40.7301 28.0301 40.5293 27.984 40.3127 27.9154C40.9927 27.903 41.6883 27.9158 42.3839 27.9217C42.6496 27.924 42.9155 27.9101 43.2017 27.923C43.1994 27.9738 43.1767 28.0053 43.1498 28.0565C42.4311 28.0762 41.7168 28.0762 40.9667 28.0762Z" fill="var(--fill-0, #FF6A3D)"/>
<path id="Vector_4" d="M0.076355 11.4345C0.108214 11.2775 0.140074 11.1563 0.199058 11.0254C0.248712 11.333 0.305287 11.6526 0.285879 11.9674C0.255922 12.4533 0.173961 12.936 0.0952058 13.4422C0.076355 12.7996 0.076355 12.135 0.076355 11.4345Z" fill="var(--fill-0, #FF6A3D)"/>
<path id="Vector_5" d="M83.9015 11.3428C83.9613 11.3439 83.9972 11.3662 84.0548 11.3935C84.0763 12.0631 84.0763 12.7277 84.0763 13.4282C84.0101 12.764 83.9439 12.0639 83.9015 11.3428Z" fill="var(--fill-0, #FF6A3D)"/>
<path id="Vector_6" d="M84.0764 16.5652C84.0404 16.6248 84.0044 16.6484 83.9463 16.6749C83.8985 16.6112 83.8458 16.5423 83.8514 16.4785C83.9066 15.8437 83.9714 15.2098 84.0549 14.5556C84.0764 15.2001 84.0764 15.8648 84.0764 16.5652Z" fill="var(--fill-0, #FF6A3D)"/>
<path id="Vector_7" d="M0.0763634 14.5711C0.126282 14.6724 0.20559 14.8062 0.220105 14.9467C0.251982 15.2553 0.251077 15.5673 0.220202 15.8799C0.143354 15.7901 0.109859 15.6983 0.0763637 15.6066C0.0763636 15.2732 0.0763636 14.9399 0.0763634 14.5711Z" fill="var(--fill-0, #FF6A3D)"/>
<path id="Vector_8" d="M40.4153 0.243153C40.4161 0.186864 40.4366 0.151316 40.465 0.0959696C40.7547 0.0761718 41.0367 0.0761718 41.3539 0.0761719C41.0711 0.138746 40.7531 0.201319 40.4153 0.243153Z" fill="var(--fill-0, #FF6A3D)"/>
<path id="Vector_9" d="M0.0763551 15.6426C0.10985 15.6987 0.143345 15.7904 0.196389 15.8977C0.223594 16.176 0.231249 16.4388 0.201228 16.7378C0.134487 16.7675 0.105421 16.761 0.076355 16.7545C0.076355 16.3957 0.076355 16.037 0.0763551 15.6426Z" fill="var(--fill-0, #FF6A3D)"/>
<path id="Vector_10" d="M0.076355 16.7879C0.105421 16.7609 0.134487 16.7675 0.185742 16.7707C0.216675 16.8698 0.225419 16.9722 0.215865 17.1224C0.157163 17.2101 0.116759 17.25 0.0763551 17.2899C0.076355 17.1338 0.076355 16.9776 0.076355 16.7879Z" fill="var(--fill-0, #FF6A3D)"/>
<path id="Vector_11" d="M0.076355 17.3155C0.116759 17.25 0.157163 17.2101 0.215995 17.1533C0.254088 17.2275 0.273753 17.3184 0.280528 17.4356C0.217496 17.4432 0.167352 17.4246 0.0967817 17.4244C0.0763549 17.409 0.0763549 17.375 0.076355 17.3155Z" fill="var(--fill-0, #FF6A3D)"/>
<path id="Vector_12" d="M44.2582 0.0761719C44.1487 0.0934448 44.0064 0.110718 43.8484 0.102081C43.9636 0.0761719 44.0945 0.0761719 44.2582 0.0761719Z" fill="var(--fill-0, #FF6A3D)"/>
<path id="Vector_13" d="M27.2236 4.44509C27.4534 4.94509 27.735 5.45674 27.8916 6.00427C28.2274 7.17794 28.4987 8.37014 28.7944 9.54706C28.8247 9.48317 28.8785 9.36954 28.9559 9.24653C28.914 9.46643 28.8486 9.6957 28.7831 9.92497C28.7405 9.92033 28.6978 9.91568 28.6552 9.91104C28.4293 8.0289 27.9263 6.22288 27.2236 4.44509Z" fill="var(--fill-0, #FF6A3D)"/>
<path id="Vector_14" d="M47.7104 26.8046C47.1656 27.0475 46.6045 27.3229 46.0159 27.5128C45.5192 27.673 44.9905 27.7341 44.4424 27.8272C45.2054 27.5892 46.0042 27.3702 46.7976 27.1334C47.0988 27.0435 47.3876 26.9125 47.7104 26.8046Z" fill="var(--fill-0, #FF6A3D)"/>
<path id="Vector_15" d="M1.03743 21.4087C0.896741 20.9342 0.763003 20.4288 0.641404 19.8918C0.783822 20.366 0.9141 20.8719 1.03743 21.4087Z" fill="var(--fill-0, #FF6A3D)"/>
<path id="Vector_16" d="M36.3454 1.34899C36.8231 1.13186 37.3298 0.923049 37.8645 0.722809C37.5415 0.888049 37.1924 1.04892 36.8389 1.1994C36.6888 1.26327 36.5295 1.30533 36.3454 1.34899Z" fill="var(--fill-0, #FF6A3D)"/>
<path id="Vector_17" d="M1.67187 23.2342C1.47827 22.7602 1.2874 22.2563 1.1077 21.7235C1.30411 22.1979 1.48935 22.7011 1.67187 23.2342Z" fill="var(--fill-0, #FF6A3D)"/>
<path id="Vector_18" d="M0.498658 18.9509C0.401522 18.5284 0.321523 18.0836 0.261963 17.6182C0.360199 18.0412 0.437997 18.4849 0.498658 18.9509Z" fill="var(--fill-0, #FF6A3D)"/>
<path id="Vector_19" d="M38.3488 27.4731C37.9967 27.3903 37.6301 27.2854 37.2522 27.1574C37.6054 27.2399 37.9698 27.3454 38.3488 27.4731Z" fill="var(--fill-0, #FF6A3D)"/>
<path id="Vector_20" d="M0.308415 10.6207C0.308039 10.3711 0.33262 10.1053 0.374876 9.81641C0.372824 10.0637 0.353098 10.3342 0.308415 10.6207Z" fill="var(--fill-0, #FF6A3D)"/>
<path id="Vector_21" d="M38.0486 0.714879C38.3217 0.602097 38.6134 0.507245 38.926 0.425781C38.6537 0.537049 38.3605 0.634929 38.0486 0.714879Z" fill="var(--fill-0, #FF6A3D)"/>
<path id="Vector_22" d="M83.7452 9.88965C83.8128 10.1349 83.8587 10.4006 83.8901 10.6899C83.8249 10.4458 83.7742 10.1779 83.7452 9.88965Z" fill="var(--fill-0, #FF6A3D)"/>
<path id="Vector_23" d="M2.09958 24.1666C1.96617 23.9411 1.83528 23.6881 1.71265 23.4072C1.84797 23.6326 1.97503 23.8858 2.09958 24.1666Z" fill="var(--fill-0, #FF6A3D)"/>
<path id="Vector_24" d="M0.460999 9.47467C0.462822 9.25721 0.491946 9.02514 0.538023 8.77148C0.532751 8.98662 0.510525 9.22334 0.460999 9.47467Z" fill="var(--fill-0, #FF6A3D)"/>
<path id="Vector_25" d="M0.643516 19.7186C0.577363 19.5448 0.526807 19.3511 0.488827 19.1262C0.553973 19.2962 0.606543 19.4975 0.643516 19.7186Z" fill="var(--fill-0, #FF6A3D)"/>
<path id="Vector_26" d="M39.0928 0.425497C39.2641 0.360913 39.4667 0.309902 39.69 0.273438C39.515 0.338346 39.3196 0.388708 39.0928 0.425497Z" fill="var(--fill-0, #FF6A3D)"/>
<path id="Vector_27" d="M83.5923 8.89551C83.6565 9.06599 83.7003 9.2563 83.7306 9.46822C83.6687 9.29833 83.6203 9.10683 83.5923 8.89551Z" fill="var(--fill-0, #FF6A3D)"/>
<path id="Vector_28" d="M48.3891 26.4746C48.2449 26.5713 48.0729 26.6678 47.8724 26.7532C48.0163 26.6529 48.1888 26.5637 48.3891 26.4746Z" fill="var(--fill-0, #FF6A3D)"/>
<path id="Vector_29" d="M1.56519 5.20324C1.61091 4.99813 1.68396 4.78948 1.78002 4.56738C1.73286 4.76919 1.66268 4.98444 1.56519 5.20324Z" fill="var(--fill-0, #FF6A3D)"/>
<path id="Vector_30" d="M46.5657 0.839844C46.74 0.873121 46.9278 0.927987 47.1271 1.00608C46.9521 0.973352 46.7657 0.917392 46.5657 0.839844Z" fill="var(--fill-0, #FF6A3D)"/>
<path id="Vector_31" d="M29.0809 9.04386C29.1204 8.86793 29.1825 8.67979 29.2695 8.4834C29.2308 8.66065 29.1672 8.84615 29.0809 9.04386Z" fill="var(--fill-0, #FF6A3D)"/>
<path id="Vector_32" d="M26.5831 3.23438C26.6783 3.34947 26.7736 3.49147 26.8663 3.66107C26.7702 3.54621 26.6767 3.40375 26.5831 3.23438Z" fill="var(--fill-0, #FF6A3D)"/>
<path id="Vector_33" d="M36.9774 27.006C36.8259 26.9772 36.6618 26.9265 36.4874 26.8525C36.6396 26.8809 36.8022 26.9324 36.9774 27.006Z" fill="var(--fill-0, #FF6A3D)"/>
<path id="Vector_34" d="M83.4389 8.12801C83.4994 8.25036 83.5402 8.39028 83.5688 8.55029C83.5108 8.42878 83.465 8.28718 83.4389 8.12801Z" fill="var(--fill-0, #FF6A3D)"/>
<path id="Vector_35" d="M0.619066 8.55964C0.615047 8.42915 0.636104 8.28738 0.675518 8.12785C0.677297 8.25619 0.66072 8.40228 0.619066 8.55964Z" fill="var(--fill-0, #FF6A3D)"/>
<path id="Vector_36" d="M38.9612 27.6283C38.8202 27.628 38.6665 27.6063 38.4997 27.5584C38.6407 27.5572 38.7946 27.582 38.9612 27.6283Z" fill="var(--fill-0, #FF6A3D)"/>
<path id="Vector_37" d="M83.1392 6.90137C83.2035 7.00064 83.2484 7.11545 83.2819 7.25498C83.2202 7.15877 83.1699 7.03784 83.1392 6.90137Z" fill="var(--fill-0, #FF6A3D)"/>
<path id="Vector_38" d="M0.929984 7.18523C0.926502 7.07674 0.94861 6.96018 0.988125 6.82715C0.988879 6.93284 0.972227 7.05499 0.929984 7.18523Z" fill="var(--fill-0, #FF6A3D)"/>
<path id="Vector_39" d="M1.06545 6.65836C1.07266 6.53313 1.10554 6.39833 1.15813 6.24602C1.14893 6.3686 1.12003 6.5087 1.06545 6.65836Z" fill="var(--fill-0, #FF6A3D)"/>
<path id="Vector_40" d="M0.777359 7.7916C0.77451 7.67288 0.799022 7.54034 0.84051 7.39067C0.839897 7.50828 0.822308 7.64303 0.777359 7.7916Z" fill="var(--fill-0, #FF6A3D)"/>
<path id="Vector_41" d="M83.2944 7.51074C83.3581 7.61207 83.4022 7.72741 83.4334 7.86699C83.372 7.76908 83.3234 7.64691 83.2944 7.51074Z" fill="var(--fill-0, #FF6A3D)"/>
<path id="Vector_42" d="M82.8223 5.83398C82.8757 5.89871 82.9109 5.98117 82.9405 6.09085C82.8913 6.02928 82.8477 5.9405 82.8223 5.83398Z" fill="var(--fill-0, #FF6A3D)"/>
<path id="Vector_43" d="M40.1526 27.8519C40.0722 27.8718 39.9787 27.8706 39.8729 27.847C39.9536 27.8266 40.0465 27.8287 40.1526 27.8519Z" fill="var(--fill-0, #FF6A3D)"/>
<path id="Vector_44" d="M39.7211 27.782C39.6281 27.8001 39.5193 27.7957 39.3948 27.7687C39.4879 27.7506 39.5966 27.7551 39.7211 27.782Z" fill="var(--fill-0, #FF6A3D)"/>
<path id="Vector_45" d="M29.3814 8.3543C29.3766 8.28164 29.3943 8.19713 29.4392 8.10724C29.4455 8.18206 29.4247 8.26225 29.3814 8.3543Z" fill="var(--fill-0, #FF6A3D)"/>
<path id="Vector_46" d="M47.955 1.41035C48.0282 1.40781 48.1075 1.43074 48.1948 1.47789C48.1221 1.48001 48.0416 1.45791 47.955 1.41035Z" fill="var(--fill-0, #FF6A3D)"/>
<path id="Vector_47" d="M48.2636 1.55959C48.3362 1.55679 48.4148 1.57941 48.5019 1.62583C48.43 1.62809 48.3498 1.60655 48.2636 1.55959Z" fill="var(--fill-0, #FF6A3D)"/>
<path id="Vector_48" d="M82.9779 6.3291C83.0272 6.37943 83.0594 6.45535 83.0855 6.55591C83.0399 6.50526 83.0004 6.42998 82.9779 6.3291Z" fill="var(--fill-0, #FF6A3D)"/>
<path id="Vector_49" d="M1.26432 6.04916C1.25101 5.98369 1.26134 5.91705 1.29155 5.83316C1.30361 5.89328 1.29579 5.97064 1.26432 6.04916Z" fill="var(--fill-0, #FF6A3D)"/>
<path id="Vector_50" d="M1.42069 5.58512C1.41191 5.50897 1.43129 5.42682 1.47246 5.33019C1.47912 5.40351 1.46398 5.49131 1.42069 5.58512Z" fill="var(--fill-0, #FF6A3D)"/>
<path id="Vector_51" d="M26.2792 2.77158C26.3225 2.78885 26.366 2.83047 26.4082 2.89715C26.3644 2.88012 26.3219 2.83803 26.2792 2.77158Z" fill="var(--fill-0, #FF6A3D)"/>
<path id="Vector_52" d="M81.8843 3.66113C81.9288 3.68397 81.9653 3.73277 82.0019 3.80559C81.9601 3.78211 81.9181 3.73461 81.8843 3.66113Z" fill="var(--fill-0, #FF6A3D)"/>
<path id="Vector_53" d="M2.17595 3.8261C2.17098 3.77066 2.19328 3.71193 2.238 3.64367C2.24135 3.69702 2.22229 3.75991 2.17595 3.8261Z" fill="var(--fill-0, #FF6A3D)"/>
<path id="Vector_54" d="M2.34352 3.5255C2.33889 3.47107 2.36004 3.41351 2.40386 3.34863C2.40746 3.40167 2.38838 3.46202 2.34352 3.5255Z" fill="var(--fill-0, #FF6A3D)"/>
<path id="Vector_55" d="M50.6935 3.09961C50.7449 3.10516 50.7989 3.13497 50.8548 3.18963C50.8032 3.18427 50.7497 3.15407 50.6935 3.09961Z" fill="var(--fill-0, #FF6A3D)"/>
<path id="Vector_56" d="M2.26933 24.4705C2.22905 24.4483 2.19084 24.4019 2.15736 24.3308C2.19852 24.3528 2.23497 24.3996 2.26933 24.4705Z" fill="var(--fill-0, #FF6A3D)"/>
<path id="Vector_57" d="M2.43722 24.7688C2.39565 24.7466 2.35568 24.7007 2.32229 24.6298C2.36552 24.6515 2.40217 24.6983 2.43722 24.7688Z" fill="var(--fill-0, #FF6A3D)"/>
<path id="Vector_58" d="M2.58378 25.0031C2.5382 24.9813 2.49574 24.9359 2.46082 24.8662C2.50787 24.8877 2.54738 24.9336 2.58378 25.0031Z" fill="var(--fill-0, #FF6A3D)"/>
<path id="Vector_59" d="M2.7388 25.2289C2.69594 25.2108 2.65318 25.1682 2.61219 25.1006C2.6556 25.1186 2.69725 25.1615 2.7388 25.2289Z" fill="var(--fill-0, #FF6A3D)"/>
<path id="Vector_60" d="M3.20778 25.8321C3.16192 25.8186 3.11482 25.7807 3.06688 25.7178C3.11287 25.7311 3.15972 25.7694 3.20778 25.8321Z" fill="var(--fill-0, #FF6A3D)"/>
<path id="Vector_61" d="M48.6967 26.3174C48.6723 26.3599 48.6243 26.402 48.5507 26.4336C48.5745 26.3877 48.6238 26.3523 48.6967 26.3174Z" fill="var(--fill-0, #FF6A3D)"/>
<path id="Vector_62" d="M35.984 26.561C35.9335 26.5721 35.8727 26.5614 35.8036 26.527C35.8548 26.5153 35.9143 26.5272 35.984 26.561Z" fill="var(--fill-0, #FF6A3D)"/>
<path id="Vector_63" d="M82.0469 3.96094C82.0906 3.9867 82.1234 4.03794 82.155 4.11299C82.1146 4.08668 82.0753 4.03655 82.0469 3.96094Z" fill="var(--fill-0, #FF6A3D)"/>
<path id="Vector_64" d="M50.081 2.64453C50.1343 2.64549 50.1914 2.67056 50.2512 2.72044C50.1975 2.71973 50.1411 2.69418 50.081 2.64453Z" fill="var(--fill-0, #FF6A3D)"/>
<path id="Vector_65" d="M48.5701 1.70795C48.6216 1.70245 48.6771 1.72068 48.7388 1.76125C48.688 1.76628 48.6311 1.74897 48.5701 1.70795Z" fill="var(--fill-0, #FF6A3D)"/>
<path id="Vector_66" d="M35.1328 1.97678C35.1536 1.93543 35.1992 1.89851 35.2686 1.86229C35.2475 1.9024 35.2025 1.9418 35.1328 1.97678Z" fill="var(--fill-0, #FF6A3D)"/>
<path id="Vector_67" d="M49.6286 2.33105C49.6822 2.33185 49.7391 2.35684 49.7986 2.40657C49.7447 2.40596 49.6883 2.38061 49.6286 2.33105Z" fill="var(--fill-0, #FF6A3D)"/>
<path id="Vector_68" d="M39.244 27.6997C39.2024 27.7208 39.1553 27.7219 39.1028 27.7021C39.1445 27.6807 39.1914 27.6802 39.244 27.6997Z" fill="var(--fill-0, #FF6A3D)"/>
<path id="Vector_69" d="M49.3947 2.18913C49.4462 2.18539 49.505 2.20463 49.5691 2.24823C49.517 2.25243 49.4595 2.23228 49.3947 2.18913Z" fill="var(--fill-0, #FF6A3D)"/>
<path id="Vector_70" d="M25.8027 2.176C25.8498 2.18868 25.8977 2.2256 25.9458 2.28752C25.8986 2.27509 25.851 2.23766 25.8027 2.176Z" fill="var(--fill-0, #FF6A3D)"/>
<path id="Vector_71" d="M49.1589 2.04632C49.2125 2.04284 49.272 2.06265 49.3347 2.10766C49.2802 2.11178 49.2225 2.09069 49.1589 2.04632Z" fill="var(--fill-0, #FF6A3D)"/>
<path id="Vector_72" d="M25.6575 2.01465C25.7044 2.02711 25.7527 2.06379 25.8011 2.12553C25.7538 2.11335 25.7064 2.07611 25.6575 2.01465Z" fill="var(--fill-0, #FF6A3D)"/>
<path id="Vector_73" d="M82.5307 5.0606C82.5726 5.0863 82.5967 5.12331 82.6172 5.18356C82.58 5.16184 82.5465 5.11688 82.5307 5.0606Z" fill="var(--fill-0, #FF6A3D)"/>
<path id="Vector_74" d="M29.5408 7.97741C29.5339 7.92477 29.5491 7.86333 29.5901 7.79799C29.5983 7.85226 29.5805 7.91043 29.5408 7.97741Z" fill="var(--fill-0, #FF6A3D)"/>
<path id="Vector_75" d="M29.8316 7.43514C29.8235 7.38391 29.8383 7.32405 29.8769 7.25682C29.8852 7.30847 29.8699 7.36749 29.8316 7.43514Z" fill="var(--fill-0, #FF6A3D)"/>
<path id="Vector_76" d="M48.8637 1.87437C48.918 1.87067 48.9765 1.89112 49.0392 1.93573C48.985 1.93943 48.9265 1.91897 48.8637 1.87437Z" fill="var(--fill-0, #FF6A3D)"/>
<path id="Vector_77" d="M29.9936 7.13348C29.9873 7.08241 30.0031 7.02204 30.0441 6.95589C30.0514 7.00813 30.0335 7.06616 29.9936 7.13348Z" fill="var(--fill-0, #FF6A3D)"/>
<path id="Vector_78" d="M30.1248 6.89492C30.1236 6.84087 30.1465 6.78263 30.1943 6.72159C30.1958 6.7761 30.1723 6.83341 30.1248 6.89492Z" fill="var(--fill-0, #FF6A3D)"/>
<path id="Vector_79" d="M30.4235 6.42955C30.4221 6.37636 30.4447 6.31921 30.4917 6.25879C30.4932 6.31221 30.4703 6.36889 30.4235 6.42955Z" fill="var(--fill-0, #FF6A3D)"/>
<path id="Vector_80" d="M35.727 1.64889C35.7521 1.60564 35.8017 1.57264 35.8748 1.54187C35.8494 1.58245 35.8005 1.6208 35.727 1.64889Z" fill="var(--fill-0, #FF6A3D)"/>
<path id="Vector_81" d="M30.7283 5.97118C30.7313 5.91887 30.7584 5.86324 30.8104 5.80566C30.8077 5.85843 30.78 5.91314 30.7283 5.97118Z" fill="var(--fill-0, #FF6A3D)"/>
<path id="Vector_82" d="M82.6721 5.40935C82.7168 5.44061 82.7453 5.49437 82.7655 5.57C82.7235 5.53853 82.6897 5.48519 82.6721 5.40935Z" fill="var(--fill-0, #FF6A3D)"/>
<path id="Vector_83" d="M31.191 5.36292C31.1941 5.31027 31.2213 5.25414 31.2737 5.1962C31.2709 5.2494 31.243 5.30441 31.191 5.36292Z" fill="var(--fill-0, #FF6A3D)"/>
<path id="Vector_84" d="M26.921 3.82801C26.9607 3.85058 26.9952 3.89673 27.0257 3.96622C26.9865 3.94357 26.9511 3.89759 26.921 3.82801Z" fill="var(--fill-0, #FF6A3D)"/>
<path id="Vector_85" d="M82.1938 4.26855C82.2359 4.2949 82.2674 4.34634 82.2975 4.42143C82.2584 4.3946 82.2208 4.34413 82.1938 4.26855Z" fill="var(--fill-0, #FF6A3D)"/>
<path id="Vector_86" d="M36.0338 1.49899C36.0589 1.45614 36.1086 1.42323 36.1819 1.39258C36.1564 1.43287 36.1074 1.47091 36.0338 1.49899Z" fill="var(--fill-0, #FF6A3D)"/>
<path id="Vector_87" d="M47.6443 1.26072C47.6969 1.25111 47.7547 1.26547 47.8204 1.30195C47.7687 1.31095 47.7091 1.29781 47.6443 1.26072Z" fill="var(--fill-0, #FF6A3D)"/>
<path id="Vector_88" d="M47.3279 1.13438C47.3798 1.12057 47.4416 1.12879 47.5117 1.16067C47.4592 1.17502 47.3985 1.16571 47.3279 1.13438Z" fill="var(--fill-0, #FF6A3D)"/>
<path id="Vector_89" d="M1.88086 4.44024C1.87087 4.38483 1.88806 4.32507 1.92628 4.25367C1.93423 4.30665 1.92114 4.37127 1.88086 4.44024Z" fill="var(--fill-0, #FF6A3D)"/>
<path id="Vector_90" d="M27.0795 4.13279C27.118 4.15746 27.1498 4.20532 27.1762 4.27602C27.1381 4.25123 27.1054 4.20361 27.0795 4.13279Z" fill="var(--fill-0, #FF6A3D)"/>
<path id="Vector_91" d="M35.4258 1.80821C35.448 1.76384 35.4956 1.72702 35.567 1.69141C35.5443 1.73366 35.4978 1.77471 35.4258 1.80821Z" fill="var(--fill-0, #FF6A3D)"/>
<path id="Vector_92" d="M29.6979 7.67323C29.6925 7.62114 29.7092 7.56082 29.7516 7.49699C29.7582 7.55065 29.7391 7.60783 29.6979 7.67323Z" fill="var(--fill-0, #FF6A3D)"/>
<path id="Vector_93" d="M2.02434 4.13185C2.01507 4.07634 2.03343 4.01674 2.07288 3.94531C2.07996 3.99825 2.06597 4.063 2.02434 4.13185Z" fill="var(--fill-0, #FF6A3D)"/>
</g>
<defs>
<clipPath id="clip0_0_9">
<rect width="84" height="28" fill="white"/>
</clipPath>
</defs>
</svg>
