<svg width="46" height="46" viewBox="0 0 46 46" fill="none" xmlns="http://www.w3.org/2000/svg">
<g clip-path="url(#clip0_409_2843)">
<path d="M0 23C0 16.9 2.42321 11.0499 6.73654 6.73654C11.0499 2.42321 16.9 0 23 0C29.1 0 34.9501 2.42321 39.2635 6.73654C43.5768 11.0499 46 16.9 46 23C46 29.1 43.5768 34.9501 39.2635 39.2635C34.9501 43.5768 29.1 46 23 46C16.9 46 11.0499 43.5768 6.73654 39.2635C2.42321 34.9501 0 29.1 0 23Z" fill="#1A4A7F"/>
<path fill-rule="evenodd" clip-rule="evenodd" d="M19.2394 45.6901C14.6295 44.9329 10.3605 42.7864 7.00342 39.5376L27.7264 20.5166L15.8814 23.3916C15.0974 23.5843 14.2828 23.619 13.4852 23.4937C12.6875 23.3684 11.9228 23.0855 11.2357 22.6617C10.5485 22.2378 9.95253 21.6814 9.48258 21.0248C9.01263 20.3683 8.67808 19.6248 8.49842 18.8376C8.13422 17.2359 8.41337 15.5552 9.27582 14.1572C10.1383 12.7592 11.5151 11.7557 13.1099 11.3626L37.7659 5.37109C40.7688 7.88553 43.0798 11.1251 44.4799 14.7829C45.8801 18.4406 46.323 22.3953 45.7667 26.2722C45.2104 30.149 43.6733 33.8196 41.3011 36.936C38.9289 40.0525 35.8002 42.5115 32.2114 44.0801C32.1424 43.2636 32.2229 42.4126 32.5104 41.5846L36.4204 29.9236L19.2394 45.6901Z" fill="url(#paint0_linear_409_2843)"/>
</g>
<defs>
<linearGradient id="paint0_linear_409_2843" x1="56.4189" y1="2.9101" x2="-22.3216" y2="75.1646" gradientUnits="userSpaceOnUse">
<stop stop-color="#FFB800"/>
<stop offset="1" stop-color="#FFF11D"/>
</linearGradient>
<clipPath id="clip0_409_2843">
<rect width="46" height="46" fill="white"/>
</clipPath>
</defs>
</svg>
