<svg width="125" height="127" viewBox="0 0 125 127" fill="none" xmlns="http://www.w3.org/2000/svg">
<g filter="url(#filter0_f_120_4206)">
<ellipse cx="70.7296" cy="66.6071" rx="23.7747" ry="29.5281" transform="rotate(8.17021 70.7296 66.6071)" fill="#638EBA"/>
</g>
<path d="M93 49.2694C93 73.846 68 101.269 41 100.269C23.0123 99.6031 8.5 89.346 8.5 64.7694C10.5 33.7694 40.4837 14.7694 56.5 14.7694C75.5 13.2694 93.5 24.2694 93 49.2694Z" fill="url(#paint0_linear_120_4206)"/>
<path d="M91.5 47.6347C91.5 72.2113 66.5 99.6347 39.5 98.6347C21.5123 97.9685 7 87.7113 7 63.1347C9 32.1347 38.9837 13.1347 55 13.1347C74 11.6347 92 22.6347 91.5 47.6347Z" fill="#D9D9D9"/>
<path d="M91.5 47.6347C91.5 72.2113 66.5 99.6347 39.5 98.6347C21.5123 97.9685 7 87.7113 7 63.1347C9 32.1347 38.9837 13.1347 55 13.1347C74 11.6347 92 22.6347 91.5 47.6347Z" fill="url(#paint1_linear_120_4206)"/>
<mask id="mask0_120_4206" style="mask-type:alpha" maskUnits="userSpaceOnUse" x="7" y="13" width="85" height="86">
<path d="M91.5 47.6347C91.5 72.2113 66.5 99.6347 39.5 98.6347C21.5123 97.9685 7 87.7113 7 63.1347C9 32.1347 38.9837 13.1347 55 13.1347C74 11.6347 92 22.6347 91.5 47.6347Z" fill="#D9D9D9"/>
<path d="M91.5 47.6347C91.5 72.2113 66.5 99.6347 39.5 98.6347C21.5123 97.9685 7 87.7113 7 63.1347C9 32.1347 38.9837 13.1347 55 13.1347C74 11.6347 92 22.6347 91.5 47.6347Z" fill="url(#paint2_linear_120_4206)"/>
</mask>
<g mask="url(#mask0_120_4206)">
<path fill-rule="evenodd" clip-rule="evenodd" d="M44.7369 102.069C36.0581 102.232 27.5375 99.7433 20.3144 94.9369L59.1811 45.9084L38.4948 55.1262C37.1262 55.7407 35.6491 56.077 34.1494 56.1155C32.6496 56.154 31.1574 55.8938 29.7596 55.3502C28.3617 54.8067 27.0863 53.9905 26.0077 52.9493C24.929 51.9082 24.0687 50.6628 23.4769 49.2859C22.2751 46.4838 22.2228 43.3219 23.3311 40.4806C24.4394 37.6394 26.6199 35.346 29.4031 34.0939L72.4606 14.8937C78.7904 18.4781 84.0984 23.6181 87.8817 29.8268C91.665 36.0355 93.7982 43.107 94.0791 50.3713C94.36 57.6356 92.7793 64.8519 89.4868 71.3363C86.1943 77.8208 81.2991 83.3585 75.2652 87.4248C74.8658 85.9572 74.728 84.3766 74.9764 82.7686L78.2194 60.1693L44.7369 102.069Z" fill="#C18600"/>
<path fill-rule="evenodd" clip-rule="evenodd" d="M44.7369 100.569C36.0581 100.732 27.5375 98.2433 20.3144 93.4369L59.1811 44.4084L38.4948 53.6262C37.1262 54.2407 35.6491 54.577 34.1494 54.6155C32.6496 54.654 31.1574 54.3938 29.7596 53.8502C28.3617 53.3067 27.0863 52.4905 26.0077 51.4493C24.929 50.4082 24.0687 49.1628 23.4769 47.7859C22.2751 44.9838 22.2228 41.8219 23.3311 38.9806C24.4394 36.1394 26.6199 33.846 29.4031 32.5939L72.4606 13.3937C78.7904 16.9781 84.0984 22.1181 87.8817 28.3268C91.665 34.5355 93.7982 41.607 94.0791 48.8713C94.36 56.1356 92.7793 63.3519 89.4868 69.8363C86.1943 76.3208 81.2991 81.8585 75.2652 85.9248C74.8658 84.4572 74.728 82.8766 74.9764 81.2686L78.2194 58.6693L44.7369 100.569Z" fill="url(#paint3_linear_120_4206)"/>
</g>
<defs>
<filter id="filter0_f_120_4206" x="16.8203" y="7.18134" width="107.818" height="118.852" filterUnits="userSpaceOnUse" color-interpolation-filters="sRGB">
<feFlood flood-opacity="0" result="BackgroundImageFix"/>
<feBlend mode="normal" in="SourceGraphic" in2="BackgroundImageFix" result="shape"/>
<feGaussianBlur stdDeviation="15" result="effect1_foregroundBlur_120_4206"/>
</filter>
<linearGradient id="paint0_linear_120_4206" x1="85.5" y1="61.6347" x2="90" y2="64.6347" gradientUnits="userSpaceOnUse">
<stop stop-color="#021C63"/>
<stop offset="1" stop-color="#04409A"/>
</linearGradient>
<linearGradient id="paint1_linear_120_4206" x1="73.2924" y1="12.2091" x2="25.8779" y2="95.9192" gradientUnits="userSpaceOnUse">
<stop stop-color="#027EE1"/>
<stop offset="1" stop-color="#012D7E"/>
</linearGradient>
<linearGradient id="paint2_linear_120_4206" x1="73.2924" y1="12.2091" x2="25.8779" y2="95.9192" gradientUnits="userSpaceOnUse">
<stop stop-color="#027EE1"/>
<stop offset="1" stop-color="#012D7E"/>
</linearGradient>
<linearGradient id="paint3_linear_120_4206" x1="84.3668" y1="24.0405" x2="30.4847" y2="98.175" gradientUnits="userSpaceOnUse">
<stop stop-color="#FFE282"/>
<stop offset="0.217477" stop-color="#FAD766"/>
<stop offset="1" stop-color="#F5CA06"/>
</linearGradient>
</defs>
</svg>
