<svg width="130" height="113" viewBox="0 0 130 113" fill="none" xmlns="http://www.w3.org/2000/svg">
<path d="M52.6452 32.5685C65.8425 25.8572 79.3071 22.9771 90.3527 23.6574C101.451 24.341 109.707 28.5602 113.283 35.5921C116.859 42.624 115.405 51.7807 109.42 61.1521C103.463 70.4786 93.2045 79.6628 80.0072 86.3741C66.8101 93.0852 53.346 95.965 42.3006 95.2847C31.2019 94.6012 22.9463 90.3819 19.3703 83.35C15.7944 76.3181 17.2478 67.1615 23.2332 57.79C29.1899 48.4636 39.4481 39.2797 52.6452 32.5685Z" stroke="url(#paint0_linear_3147_8988)" stroke-width="4"/>
<path d="M38.2289 20.7627C48.2737 15.6546 58.5016 13.4738 66.8628 13.9888C75.2772 14.507 81.4011 17.6963 84.0335 22.8727C86.6659 28.0492 85.6358 34.8765 81.0981 41.9814C76.5889 49.0414 68.8019 56.0219 58.7571 61.13C48.7125 66.238 38.4852 68.4183 30.1241 67.9035C21.7096 67.3853 15.5858 64.196 12.9534 59.0195C10.321 53.843 11.351 47.0158 15.8889 39.9108C20.398 32.8509 28.1843 25.8708 38.2289 20.7627Z" stroke="url(#paint1_linear_3147_8988)" stroke-width="4"/>
<defs>
<linearGradient id="paint0_linear_3147_8988" x1="52.0338" y1="36.6161" x2="89.0459" y2="88.7783" gradientUnits="userSpaceOnUse">
<stop stop-color="white"/>
<stop offset="0.588157" stop-color="white" stop-opacity="0"/>
</linearGradient>
<linearGradient id="paint1_linear_3147_8988" x1="37.5484" y1="23.4447" x2="65.8909" y2="63.3887" gradientUnits="userSpaceOnUse">
<stop stop-color="white" stop-opacity="0.8"/>
<stop offset="0.395023" stop-color="white" stop-opacity="0"/>
</linearGradient>
</defs>
</svg>
