<svg width="84" height="28" viewBox="0 0 84 28" fill="none" xmlns="http://www.w3.org/2000/svg">
<g clip-path="url(#clip0_600_2532)">
<path d="M0.076355 14.5352C0.0763552 14.2019 0.0763552 13.8686 0.095206 13.4776C0.173961 12.936 0.255922 12.4533 0.285879 11.9673C0.305287 11.6525 0.248712 11.333 0.23165 10.9887C0.252637 10.8535 0.268157 10.7452 0.308413 10.6208C0.352701 10.3342 0.372252 10.0638 0.389301 9.76757C0.402511 9.65768 0.418224 9.57353 0.460997 9.47478C0.510086 9.22345 0.532115 8.98673 0.553864 8.72659C0.567123 8.65898 0.580661 8.61478 0.619053 8.55931C0.660338 8.40195 0.676769 8.25586 0.6915 8.08362C0.709942 7.97334 0.730086 7.88921 0.777348 7.79127C0.8219 7.6427 0.839333 7.50795 0.857278 7.34936C0.873395 7.28124 0.889 7.23695 0.929969 7.18459C0.971838 7.05436 0.988343 6.9322 1.00338 6.78496C1.01453 6.72912 1.02715 6.69836 1.06544 6.65803C1.12002 6.50837 1.14892 6.36827 1.17811 6.20401C1.19921 6.13656 1.22002 6.09328 1.26427 6.04883C1.29545 5.9703 1.30321 5.89295 1.31175 5.79113C1.33928 5.70805 1.36602 5.64942 1.42066 5.58479C1.46357 5.49098 1.47858 5.40318 1.49406 5.29472C1.50897 5.25137 1.52341 5.22868 1.56517 5.20245C1.66267 4.98365 1.73284 4.7684 1.80483 4.53222C1.82239 4.48895 1.83814 4.4666 1.88083 4.43991C1.92075 4.37094 1.93372 4.30632 1.94822 4.22113C1.96548 4.17881 1.9812 4.15704 2.02432 4.13119C2.06558 4.06233 2.07945 3.99758 2.09583 3.91236C2.11519 3.87094 2.13205 3.85 2.17594 3.82576C2.22187 3.75958 2.24076 3.69669 2.26322 3.61307C2.28385 3.57084 2.3009 3.54933 2.3435 3.5247C2.38797 3.46122 2.40687 3.40087 2.4325 3.31534C2.79463 2.8286 3.10751 2.32495 3.51334 1.91326C4.79981 0.608217 6.33799 0.617846 7.64666 1.89431C8.52974 2.75566 9.08187 3.82424 9.54358 4.94702C9.72324 5.38395 9.87608 5.83195 10.0777 6.37305C10.1792 6.06425 10.2422 5.86308 10.3112 5.66395C10.789 4.28388 11.3913 2.97072 12.4434 1.92343C13.7689 0.604016 15.3236 0.608363 16.6383 1.93216C17.6456 2.94651 18.24 4.20688 18.7135 5.53367C18.795 5.76183 18.8776 5.98955 18.9914 6.30536C19.0804 6.13417 19.1272 6.06326 19.156 5.98567C19.316 5.5552 19.4541 5.11567 19.6324 4.69305C20.0696 3.65625 20.6075 2.67699 21.4253 1.88593C22.1229 1.21105 22.9304 0.802889 23.9384 0.986858C24.6302 1.11311 25.1616 1.52174 25.6575 2.0147C25.7064 2.07617 25.7538 2.11341 25.8059 2.14646C25.8106 2.14228 25.802 2.15143 25.8027 2.17567C25.851 2.23733 25.8986 2.27476 25.9599 2.33275C26.0754 2.4845 26.1772 2.6157 26.2792 2.77125C26.3219 2.8377 26.3644 2.87979 26.4184 2.94307C26.4809 3.04507 26.5319 3.12588 26.583 3.23361C26.6767 3.40298 26.7702 3.54545 26.873 3.7079C26.8969 3.75329 26.9116 3.77869 26.921 3.82768C26.9511 3.89726 26.9865 3.94324 27.0319 4.00959C27.0567 4.0564 27.0715 4.08283 27.0795 4.13246C27.1054 4.20327 27.138 4.2509 27.1793 4.31878C27.2014 4.36496 27.2149 4.3909 27.2236 4.44476C27.9263 6.22255 28.4293 8.02857 28.6552 9.91071C28.6978 9.91535 28.7405 9.92 28.7831 9.92464C28.8486 9.69537 28.914 9.46609 28.9919 9.2154C29.0223 9.148 29.0403 9.10202 29.0809 9.04385C29.1672 8.84614 29.2308 8.66063 29.3058 8.45726C29.3311 8.41487 29.3451 8.39034 29.3814 8.35397C29.4243 8.26192 29.4449 8.18172 29.4781 8.0842C29.5002 8.03987 29.5095 8.01288 29.5407 7.97708C29.5801 7.9101 29.5977 7.85193 29.6288 7.77698C29.6535 7.73385 29.6647 7.70749 29.6979 7.6729C29.7388 7.6075 29.7577 7.55032 29.7866 7.48198C29.7966 7.47082 29.8089 7.44344 29.8316 7.43481C29.8695 7.36716 29.8847 7.30814 29.9125 7.23171C29.9406 7.19035 29.9562 7.1664 29.9936 7.13315C30.0332 7.06583 30.0508 7.0078 30.0772 6.93738C30.0858 6.92499 30.101 6.89879 30.1248 6.89459C30.1719 6.83308 30.1952 6.77577 30.2335 6.69963C30.299 6.59838 30.3493 6.51597 30.4235 6.42959C30.4699 6.36894 30.4926 6.31225 30.5303 6.23647C30.5983 6.13618 30.6513 6.05497 30.7283 5.97045C30.7796 5.91241 30.807 5.8577 30.8507 5.78421C30.967 5.63231 31.067 5.4992 31.1909 5.36259C31.2426 5.30408 31.2702 5.24907 31.3155 5.17604C32.4148 3.88606 33.6439 2.78924 35.1328 1.97645C35.2025 1.94147 35.2475 1.90207 35.3077 1.84801C35.3488 1.82248 35.3746 1.8116 35.4259 1.80828C35.4978 1.77479 35.5443 1.73373 35.6063 1.678C35.6486 1.65499 35.6755 1.64665 35.727 1.64856C35.8005 1.62046 35.8494 1.58211 35.9137 1.52942C35.9558 1.50641 35.9825 1.49775 36.0337 1.49904C36.1074 1.47095 36.1564 1.43292 36.2211 1.38082C36.2633 1.35795 36.2898 1.34915 36.3453 1.34866C36.5295 1.305 36.6888 1.26294 36.8388 1.19907C37.1924 1.04859 37.5415 0.887718 37.9139 0.720566C37.967 0.705713 37.9985 0.701346 38.0487 0.71491C38.3605 0.634959 38.6537 0.537079 38.9645 0.429534C39.0085 0.41697 39.035 0.41407 39.0928 0.424742C39.3196 0.387953 39.5151 0.337591 39.7395 0.277881C39.9775 0.253159 40.1865 0.237786 40.4153 0.243153C40.7531 0.201319 41.0711 0.138746 41.3891 0.0761719C41.8743 0.0761718 42.3596 0.0761718 42.9036 0.0921333C43.4844 0.186884 44.01 0.247489 44.5275 0.349096C45.1651 0.474272 45.796 0.633602 46.449 0.787928C46.4962 0.804348 46.5242 0.811012 46.5657 0.839264C46.7657 0.916811 46.9521 0.972771 47.1598 1.04146C47.2268 1.07347 47.2724 1.09274 47.3279 1.13405C47.3985 1.16538 47.4592 1.17469 47.5393 1.19371C47.5855 1.21431 47.6123 1.2252 47.6443 1.26006C47.7091 1.29716 47.7687 1.31029 47.8481 1.33414C47.8949 1.35795 47.9219 1.37104 47.9549 1.4096C48.0416 1.45717 48.1221 1.47927 48.2163 1.50953C48.23 1.51769 48.2575 1.53383 48.2635 1.55926C48.3498 1.60622 48.43 1.62776 48.5242 1.65792C48.5381 1.66654 48.566 1.68389 48.5701 1.70761C48.6311 1.74864 48.688 1.76595 48.7634 1.79533C48.8077 1.82156 48.8336 1.83573 48.8637 1.87404C48.9265 1.91864 48.985 1.9391 49.0607 1.97175C49.103 1.99687 49.128 2.00979 49.1589 2.04599C49.2225 2.09036 49.2802 2.11145 49.3492 2.1425C49.3605 2.15246 49.3875 2.16581 49.3947 2.1888C49.4595 2.23195 49.517 2.2521 49.5872 2.28081C49.5998 2.28937 49.6252 2.30624 49.6286 2.33043C49.6883 2.37998 49.7447 2.40534 49.8198 2.44555C49.9181 2.51375 49.9976 2.56709 50.081 2.64453C50.1411 2.69418 50.1974 2.71972 50.2727 2.76127C50.4247 2.87665 50.5578 2.97603 50.6935 3.09968C50.7496 3.15414 50.8031 3.18434 50.8746 3.23247C53.0306 4.99257 54.4805 7.21583 55.4045 9.89655C55.4688 9.75528 55.4917 9.72556 55.4955 9.69359C55.6771 8.14757 56.048 6.64717 56.606 5.19596C57.0415 4.06344 57.5847 2.9906 58.417 2.08519C59.7833 0.598925 61.4226 0.551299 62.8275 1.99327C63.9001 3.09417 64.4844 4.47562 64.9817 5.90053C65.0195 6.00873 65.0739 6.1111 65.1285 6.23415C65.1923 6.17522 65.2203 6.16158 65.2277 6.14062C65.3036 5.9256 65.3726 5.70809 65.4502 5.49373C65.9302 4.16875 66.5277 2.90824 67.5419 1.89923C68.8227 0.62483 70.3849 0.592027 71.647 1.88806C72.2056 2.46173 72.6708 3.15449 73.0592 3.85913C73.4763 4.61578 73.7535 5.44985 74.1128 6.29998C74.282 5.83322 74.4275 5.38078 74.6082 4.94295C75.1114 3.72401 75.7136 2.5646 76.7341 1.68512C77.8877 0.691072 79.237 0.690898 80.3979 1.68054C81.0352 2.22377 81.5156 2.89053 81.8843 3.66124C81.9181 3.73471 81.9601 3.78222 82.0181 3.84291C82.0421 3.88229 82.0499 3.90847 82.0469 3.96013C82.0753 4.03574 82.1146 4.08587 82.1693 4.14988C82.1913 4.19036 82.1979 4.21696 82.1938 4.26866C82.2208 4.34423 82.2584 4.39471 82.3144 4.46578C82.4047 4.6739 82.4766 4.86143 82.5307 5.06027C82.5465 5.11655 82.58 5.16151 82.6303 5.22495C82.6608 5.29113 82.6746 5.33882 82.6721 5.40902C82.6897 5.48486 82.7235 5.5382 82.7719 5.61125C82.8045 5.69271 82.8225 5.75446 82.8223 5.83394C82.8477 5.94045 82.8913 6.02924 82.9503 6.13767C82.9754 6.20608 82.9852 6.25485 82.9779 6.3292C83.0004 6.43008 83.0399 6.50536 83.0952 6.60231C83.1268 6.71103 83.1427 6.7981 83.1391 6.90071C83.1699 7.03718 83.2201 7.15811 83.2824 7.30449C83.3009 7.38552 83.3075 7.4411 83.2944 7.5107C83.3233 7.64687 83.372 7.76904 83.4321 7.91692C83.4486 7.99846 83.4536 8.05428 83.4389 8.12768C83.465 8.28685 83.5108 8.42845 83.5689 8.5932C83.5917 8.70254 83.6022 8.78873 83.5923 8.89474C83.6203 9.10606 83.6687 9.29757 83.7281 9.51439C83.7483 9.64954 83.7576 9.75937 83.7452 9.88959C83.7742 10.1779 83.8249 10.4457 83.885 10.7421C83.9047 10.9543 83.915 11.138 83.9015 11.3429C83.9439 12.064 84.0101 12.7641 84.0764 13.4642C84.0764 13.7975 84.0764 14.1308 84.0549 14.5197C83.9714 15.2094 83.9066 15.8434 83.8514 16.4782C83.8458 16.542 83.8985 16.6109 83.9202 16.7102C83.8482 17.3924 83.8325 18.0525 83.7011 18.6887C83.4518 19.8955 83.1945 21.1066 82.833 22.2827C82.409 23.6621 81.7871 24.9637 80.7783 26.0303C79.9494 26.9066 78.9817 27.4225 77.741 26.991C77.0233 26.7413 76.4813 26.2403 76.0179 25.6516C75.3108 24.7532 74.8145 23.7419 74.4353 22.6683C74.3332 22.3794 74.2242 22.0929 74.0945 21.7405C73.833 22.4188 73.6263 23.016 73.3748 23.5936C72.9457 24.5789 72.417 25.5082 71.6164 26.2446C70.8239 26.9736 69.9127 27.4127 68.8354 26.9886C68.3538 26.799 67.886 26.4855 67.5133 26.1236C66.38 25.023 65.7863 23.6003 65.2945 22.1301C65.263 22.0359 65.2163 21.9468 65.1339 21.7566C64.9061 22.364 64.7379 22.8659 64.5317 23.3516C64.0309 24.5317 63.4177 25.6411 62.403 26.4691C61.3515 27.3271 60.1823 27.4091 59.1168 26.58C58.5577 26.1449 58.0618 25.5812 57.6683 24.9884C56.5746 23.3408 56.0573 21.4616 55.6718 19.5436C55.5864 19.1188 55.5249 18.6891 55.4331 18.1479C55.3279 18.4078 55.2625 18.5571 55.2064 18.7098C54.7433 19.9696 54.1282 21.1471 53.3399 22.2355C52.1034 23.9426 50.5447 25.2797 48.6967 26.3166C48.6238 26.3515 48.5745 26.3869 48.5044 26.4246C48.4614 26.4427 48.4391 26.4586 48.3891 26.4743C48.1888 26.5633 48.0163 26.6526 47.8245 26.7499C47.783 26.775 47.7608 26.7919 47.7104 26.8043C47.3876 26.9121 47.0987 27.0432 46.7976 27.1331C46.0042 27.3699 45.2054 27.5889 44.3775 27.8138C43.9715 27.8559 43.5968 27.8991 43.2016 27.9229C42.9155 27.9101 42.6496 27.9239 42.3839 27.9217C41.6883 27.9158 40.9927 27.9029 40.2754 27.8882C40.2244 27.88 40.1951 27.8765 40.1526 27.8518C40.0465 27.8286 39.9536 27.8266 39.8405 27.8192C39.7924 27.8107 39.7647 27.8076 39.7211 27.7821C39.5966 27.7552 39.4879 27.7507 39.3578 27.7406C39.3075 27.7296 39.2785 27.7242 39.2439 27.6989C39.1914 27.6794 39.1445 27.6799 39.0776 27.6727C39.0298 27.6598 39.0019 27.6546 38.9612 27.628C38.7945 27.5817 38.6407 27.5568 38.4672 27.5229C38.4195 27.5075 38.3914 27.5012 38.3488 27.4728C37.9698 27.3451 37.6054 27.2396 37.216 27.1231C37.1239 27.0841 37.0569 27.056 36.9774 27.006C36.8022 26.9324 36.6396 26.8808 36.453 26.8167C36.2841 26.7302 36.1392 26.6564 35.984 26.5607C35.9143 26.5269 35.8548 26.515 35.773 26.4882C32.3215 24.6712 30.026 21.8927 28.7591 18.2225C28.5048 19.3378 28.2989 20.4077 28.0129 21.4555C27.6058 22.9469 27.0204 24.3645 26.0693 25.6069C24.5451 27.5978 22.6537 27.6611 21.0332 25.7586C20.1356 24.7048 19.607 23.4541 19.1712 22.1576C19.136 22.0528 19.0819 21.9544 19.0366 21.8531C18.865 22.1063 18.7893 22.3449 18.7031 22.5795C18.2041 23.9379 17.5972 25.2336 16.5241 26.2488C15.2572 27.4473 13.7869 27.4407 12.5221 26.2369C11.8209 25.5696 11.3098 24.7672 10.917 23.892C10.6135 23.2156 10.3559 22.5186 10.0534 21.7701C9.98538 21.9321 9.93168 22.0527 9.88375 22.1756C9.667 22.7315 9.48308 23.3027 9.22957 23.8411C8.7279 24.9065 8.12282 25.9054 7.13804 26.6078C6.13818 27.3209 5.04028 27.3337 4.0542 26.6208C3.74821 26.3996 3.48941 26.1129 3.20778 25.8318C3.15971 25.7691 3.11286 25.7307 3.05182 25.6719C2.93797 25.5186 2.83833 25.3858 2.73879 25.2286C2.69725 25.1612 2.6556 25.1182 2.60644 25.0624C2.59894 25.0495 2.58064 25.026 2.58375 25.0023C2.54735 24.9328 2.50784 24.887 2.46214 24.8276C2.45595 24.814 2.43562 24.7922 2.43722 24.7684C2.40216 24.6979 2.36551 24.6512 2.32075 24.5849C2.29751 24.5417 2.28238 24.518 2.26933 24.4702C2.23496 24.3992 2.19851 24.3525 2.15283 24.2863C2.12807 24.2426 2.11256 24.2184 2.09955 24.1666C1.975 23.8858 1.84794 23.6327 1.71505 23.359C1.69586 23.3136 1.6825 23.2887 1.67186 23.2339C1.48934 22.7008 1.3041 22.1976 1.11349 21.6679C1.08223 21.574 1.05635 21.5067 1.03742 21.4084C0.914091 20.8716 0.783814 20.3657 0.651816 19.839C0.642701 19.7915 0.635305 19.7648 0.643507 19.7183C0.606534 19.4972 0.553964 19.2959 0.500523 19.074C0.493599 19.0266 0.487547 18.9999 0.498631 18.9509C0.437971 18.4849 0.360172 18.0412 0.281402 17.5746C0.276166 17.5215 0.271903 17.4913 0.280529 17.4349C0.273753 17.3177 0.254088 17.2268 0.234293 17.1049C0.225419 16.9716 0.216676 16.8691 0.223418 16.7338C0.231249 16.4381 0.223594 16.1753 0.239743 15.895C0.251068 15.5669 0.251973 15.255 0.220097 14.9464C0.205582 14.8058 0.126274 14.672 0.076355 14.5352ZM44.938 16.2268C44.9492 15.883 44.9466 15.5381 44.9765 15.1959C44.9981 14.9481 44.9011 14.8972 44.6736 14.8983C42.9441 14.9063 41.2146 14.9082 39.4852 14.8968C39.2218 14.8951 39.1601 14.9817 39.1768 15.2277C39.2375 16.117 39.2576 17.0097 39.3371 17.8972C39.5375 20.1342 39.8684 22.3508 40.716 24.447C40.9497 25.0247 41.3167 25.5588 41.6851 26.0674C41.9056 26.372 42.2053 26.3468 42.4724 26.0738C42.6657 25.8763 42.8736 25.6597 42.9742 25.4108C43.3589 24.4596 43.7712 23.5112 44.0477 22.5264C44.6181 20.495 44.8076 18.3987 44.938 16.2268ZM39.7934 6.85588C39.3962 8.94301 39.2118 11.0485 39.177 13.1747C41.1413 13.1747 43.0312 13.1747 44.969 13.1747C44.969 13.0223 44.9755 12.8862 44.9679 12.751C44.9204 11.899 44.8916 11.0453 44.8156 10.1959C44.6292 8.11214 44.337 6.04234 43.5987 4.07338C43.3392 3.38144 42.9641 2.72053 42.5581 2.10052C42.2751 1.6684 41.9213 1.69383 41.5844 2.09573C41.3506 2.37473 41.1503 2.69169 40.9856 3.01735C40.3833 4.208 40.082 5.49703 39.7934 6.85588ZM33.9203 12.8772C33.8646 13.1524 34.0144 13.1955 34.2453 13.1935C35.1485 13.1856 36.0517 13.1896 36.955 13.1899C37.4697 13.19 37.4694 13.1907 37.4833 12.6776C37.556 9.99501 37.8383 7.33942 38.5564 4.74601C38.7577 4.01909 39.0267 3.31098 39.268 2.58419C39.2334 2.59181 39.1954 2.59137 39.1673 2.60784C39.0251 2.69115 38.8814 2.77294 38.7455 2.8659C36.7138 4.25546 35.5434 6.27238 34.7506 8.52515C34.266 9.90187 33.9998 11.3427 33.9203 12.8772ZM46.6739 12.9276C46.6627 13.1559 46.7958 13.1943 46.99 13.1932C47.9693 13.1874 48.9488 13.184 49.9281 13.1948C50.1874 13.1976 50.248 13.1053 50.2334 12.8557C50.1298 11.0818 49.7418 9.3703 49.0869 7.72419C48.4003 5.99819 47.4188 4.46689 45.9637 3.28034C45.6317 3.00958 45.2613 2.786 44.9067 2.53942C45.2421 3.6669 45.6182 4.72346 45.8666 5.80933C46.3964 8.12527 46.6322 10.4822 46.6739 12.9276ZM47.766 14.9023C47.5499 14.9022 47.3319 14.9202 47.1181 14.8978C46.7782 14.8622 46.6677 14.9701 46.6608 15.3355C46.6092 18.055 46.3112 20.7458 45.5872 23.375C45.3936 24.0782 45.1265 24.7612 44.8937 25.4536C47.3017 24.9547 50.3061 19.0488 50.2214 14.9023C49.4309 14.9023 48.6365 14.9023 47.766 14.9023ZM34.0472 16.4982C34.251 17.9409 34.6106 19.3411 35.1981 20.6772C35.9782 22.4515 37.0381 24.0116 38.6465 25.144C38.8334 25.2755 39.0384 25.3811 39.2852 25.5287C39.2685 25.4083 39.2713 25.37 39.2577 25.339C38.5725 23.7779 38.159 22.1365 37.9538 20.4545C37.7413 18.7128 37.6291 16.9587 37.4832 15.2091C37.4671 15.0164 37.4455 14.8977 37.2134 14.8992C36.1964 14.9057 35.1792 14.9024 34.1621 14.9001C33.97 14.8997 33.8889 14.9657 33.9161 15.1766C33.9698 15.593 33.9995 16.0125 34.0472 16.4982ZM53.9373 11.1059C53.1705 8.16239 51.5761 5.79595 49.0547 4.07478C49.1902 4.36465 49.3826 4.61693 49.5477 4.88599C51.0022 7.25607 51.7181 9.85673 51.9358 12.6111C51.9816 13.1913 51.9794 13.1913 52.5689 13.1911C53.1216 13.1908 53.6742 13.191 54.2973 13.191C54.1744 12.4664 54.0642 11.8167 53.9373 11.1059ZM30.593 13.1911C30.9615 13.191 31.3328 13.1624 31.6977 13.1987C32.0789 13.2366 32.1906 13.1088 32.2155 12.726C32.3849 10.1299 33.0364 7.66556 34.307 5.3824C34.5476 4.95007 34.8122 4.53116 35.1018 4.04563C32.6571 5.12483 29.4862 10.8067 29.9631 13.1911C30.1441 13.1911 30.3322 13.1911 30.593 13.1911ZM51.1004 19.7789C50.6441 21.2566 49.9683 22.6293 49.0545 23.9388C51.2077 23.4069 54.4304 17.7339 54.2137 14.9011C53.6003 14.9011 52.9804 14.9202 52.3625 14.8933C52.0383 14.8792 51.9583 14.9937 51.9397 15.3007C51.8486 16.8067 51.5925 18.2849 51.1004 19.7789ZM34.7462 23.841C34.8344 23.8806 34.9227 23.9202 35.0978 23.9987C34.9892 23.8215 34.9386 23.7352 34.8844 23.6513C34.2 22.591 33.6326 21.473 33.2133 20.2803C32.64 18.6491 32.3104 16.9698 32.1934 15.2455C32.1855 15.1287 32.095 14.9207 32.0376 14.9189C31.3326 14.8962 30.6266 14.9041 29.8969 14.9041C29.9889 16.1813 30.2497 17.3546 30.6937 18.4839C31.5369 20.6286 32.8855 22.3959 34.7462 23.841Z" fill="#04A8BF"/>
<path d="M44.4182 0.0761719C44.5991 0.155985 44.7469 0.260966 44.9114 0.310896C45.4061 0.461082 45.9073 0.589818 46.4179 0.752547C45.796 0.633602 45.1651 0.474272 44.5275 0.349096C44.01 0.247489 43.4844 0.186884 42.9394 0.0921335C43.1984 0.076172 43.4804 0.076172 43.8133 0.102081C44.0064 0.110718 44.1487 0.0934449 44.2909 0.076172C44.3248 0.076172 44.3588 0.076172 44.4182 0.0761719Z" fill="#04A8BF"/>
<path d="M40.9667 28.0762C40.7301 28.0301 40.5293 27.984 40.3127 27.9154C40.9927 27.903 41.6883 27.9158 42.3839 27.9217C42.6496 27.924 42.9155 27.9101 43.2017 27.923C43.1994 27.9738 43.1767 28.0053 43.1498 28.0565C42.4311 28.0762 41.7168 28.0762 40.9667 28.0762Z" fill="#04A8BF"/>
<path d="M0.076355 11.4345C0.108214 11.2775 0.140074 11.1563 0.199058 11.0254C0.248712 11.333 0.305287 11.6526 0.285879 11.9674C0.255922 12.4533 0.173961 12.936 0.0952058 13.4422C0.076355 12.7996 0.076355 12.135 0.076355 11.4345Z" fill="#04A8BF"/>
<path d="M83.9015 11.3438C83.9613 11.3449 83.9972 11.3672 84.0548 11.3945C84.0763 12.0641 84.0763 12.7287 84.0763 13.4292C84.0101 12.765 83.9439 12.0649 83.9015 11.3438Z" fill="#04A8BF"/>
<path d="M84.0764 16.5644C84.0404 16.6239 84.0044 16.6476 83.9463 16.6741C83.8985 16.6103 83.8458 16.5415 83.8514 16.4776C83.9066 15.8429 83.9714 15.2089 84.0549 14.5547C84.0764 15.1993 84.0764 15.8639 84.0764 16.5644Z" fill="#04A8BF"/>
<path d="M0.076355 14.5703C0.126274 14.6716 0.205582 14.8054 0.220097 14.9459C0.251973 15.2545 0.251068 15.5665 0.220193 15.8791C0.143345 15.7893 0.10985 15.6976 0.0763553 15.6058C0.0763552 15.2725 0.0763552 14.9392 0.076355 14.5703Z" fill="#04A8BF"/>
<path d="M40.4153 0.243153C40.4161 0.186864 40.4366 0.151316 40.465 0.0959696C40.7547 0.0761718 41.0367 0.0761718 41.3539 0.0761719C41.0711 0.138746 40.7531 0.201319 40.4153 0.243153Z" fill="#04A8BF"/>
<path d="M0.0763551 15.6426C0.10985 15.6987 0.143345 15.7904 0.196389 15.8977C0.223594 16.176 0.231249 16.4388 0.201228 16.7378C0.134487 16.7675 0.105421 16.761 0.076355 16.7545C0.076355 16.3957 0.076355 16.037 0.0763551 15.6426Z" fill="#04A8BF"/>
<path d="M0.076355 16.7879C0.105421 16.7609 0.134487 16.7675 0.185742 16.7707C0.216675 16.8698 0.225419 16.9722 0.215865 17.1224C0.157163 17.2101 0.116759 17.25 0.0763551 17.2899C0.076355 17.1338 0.076355 16.9776 0.076355 16.7879Z" fill="#04A8BF"/>
<path d="M0.076355 17.3145C0.116759 17.249 0.157163 17.2091 0.215995 17.1523C0.254088 17.2265 0.273753 17.3174 0.280529 17.4346C0.217496 17.4422 0.167352 17.4236 0.0967817 17.4235C0.0763549 17.408 0.0763549 17.374 0.076355 17.3145Z" fill="#04A8BF"/>
<path d="M44.2582 0.0761719C44.1487 0.0934448 44.0064 0.110718 43.8484 0.102081C43.9636 0.0761719 44.0945 0.0761719 44.2582 0.0761719Z" fill="#04A8BF"/>
<path d="M27.2236 4.44531C27.4534 4.94531 27.735 5.45696 27.8917 6.00449C28.2274 7.17816 28.4987 8.37036 28.7945 9.54728C28.8247 9.48339 28.8786 9.36976 28.9559 9.24675C28.914 9.46664 28.8486 9.69591 28.7831 9.92519C28.7405 9.92054 28.6978 9.9159 28.6552 9.91126C28.4293 8.02912 27.9263 6.2231 27.2236 4.44531Z" fill="#04A8BF"/>
<path d="M47.7104 26.8047C47.1656 27.0475 46.6045 27.3229 46.0159 27.5128C45.5192 27.6731 44.9906 27.7342 44.4424 27.8272C45.2055 27.5892 46.0042 27.3703 46.7976 27.1334C47.0988 27.0436 47.3876 26.9125 47.7104 26.8047Z" fill="#04A8BF"/>
<path d="M1.03744 21.4095C0.896755 20.9351 0.763017 20.4296 0.641418 19.8926C0.783836 20.3668 0.914114 20.8727 1.03744 21.4095Z" fill="#04A8BF"/>
<path d="M36.3453 1.34884C36.8231 1.13171 37.3298 0.922896 37.8645 0.722656C37.5415 0.887897 37.1924 1.04877 36.8388 1.19924C36.6888 1.26311 36.5295 1.30518 36.3453 1.34884Z" fill="#04A8BF"/>
<path d="M1.67187 23.2333C1.47827 22.7593 1.2874 22.2554 1.1077 21.7227C1.30411 22.1971 1.48935 22.7002 1.67187 23.2333Z" fill="#04A8BF"/>
<path d="M0.498658 18.9499C0.401522 18.5274 0.321523 18.0827 0.261963 17.6172C0.360199 18.0402 0.437998 18.4839 0.498658 18.9499Z" fill="#04A8BF"/>
<path d="M38.3488 27.4739C37.9967 27.3911 37.6301 27.2861 37.2522 27.1582C37.6054 27.2407 37.9698 27.3462 38.3488 27.4739Z" fill="#04A8BF"/>
<path d="M0.308415 10.6207C0.308039 10.3711 0.33262 10.1053 0.374876 9.81641C0.372824 10.0637 0.353098 10.3342 0.308415 10.6207Z" fill="#04A8BF"/>
<path d="M38.0486 0.714879C38.3217 0.602097 38.6134 0.507245 38.926 0.425781C38.6537 0.537049 38.3605 0.634929 38.0486 0.714879Z" fill="#04A8BF"/>
<path d="M83.7452 9.89062C83.8128 10.1359 83.8587 10.4015 83.8901 10.6909C83.8249 10.4468 83.7742 10.1789 83.7452 9.89062Z" fill="#04A8BF"/>
<path d="M2.09958 24.1656C1.96617 23.9402 1.83528 23.6871 1.71265 23.4062C1.84797 23.6317 1.97503 23.8848 2.09958 24.1656Z" fill="#04A8BF"/>
<path d="M0.460999 9.47467C0.462822 9.25721 0.491946 9.02514 0.538023 8.77148C0.532751 8.98662 0.510525 9.22334 0.460999 9.47467Z" fill="#04A8BF"/>
<path d="M0.643519 19.7194C0.577366 19.5456 0.526811 19.3519 0.488831 19.127C0.553976 19.297 0.606546 19.4983 0.643519 19.7194Z" fill="#04A8BF"/>
<path d="M39.0928 0.425497C39.2641 0.360913 39.4667 0.309902 39.69 0.273438C39.515 0.338346 39.3196 0.388708 39.0928 0.425497Z" fill="#04A8BF"/>
<path d="M83.5923 8.89453C83.6565 9.06502 83.7003 9.25532 83.7306 9.46724C83.6687 9.29736 83.6203 9.10585 83.5923 8.89453Z" fill="#04A8BF"/>
<path d="M48.3891 26.4746C48.2449 26.5713 48.0729 26.6678 47.8724 26.7532C48.0163 26.6529 48.1888 26.5636 48.3891 26.4746Z" fill="#04A8BF"/>
<path d="M1.56519 5.20226C1.61091 4.99715 1.68396 4.7885 1.78002 4.56641C1.73286 4.76821 1.66268 4.98347 1.56519 5.20226Z" fill="#04A8BF"/>
<path d="M46.5657 0.839844C46.74 0.873121 46.9278 0.927987 47.1271 1.00608C46.9521 0.973352 46.7657 0.917392 46.5657 0.839844Z" fill="#04A8BF"/>
<path d="M29.0809 9.04484C29.1204 8.8689 29.1825 8.68077 29.2695 8.48438C29.2308 8.66162 29.1672 8.84713 29.0809 9.04484Z" fill="#04A8BF"/>
<path d="M26.5831 3.23438C26.6783 3.34947 26.7736 3.49147 26.8663 3.66107C26.7702 3.54621 26.6767 3.40375 26.5831 3.23438Z" fill="#04A8BF"/>
<path d="M36.9774 27.005C36.8259 26.9763 36.6618 26.9256 36.4874 26.8516C36.6396 26.8799 36.8022 26.9315 36.9774 27.005Z" fill="#04A8BF"/>
<path d="M83.439 8.12891C83.4995 8.25125 83.5403 8.39117 83.5689 8.55118C83.5108 8.42967 83.4651 8.28808 83.439 8.12891Z" fill="#04A8BF"/>
<path d="M0.619078 8.55875C0.615059 8.42825 0.636116 8.28648 0.67553 8.12695C0.677309 8.25529 0.660731 8.40138 0.619078 8.55875Z" fill="#04A8BF"/>
<path d="M38.9612 27.6285C38.8202 27.6282 38.6664 27.6065 38.4997 27.5586C38.6407 27.5574 38.7946 27.5822 38.9612 27.6285Z" fill="#04A8BF"/>
<path d="M83.1392 6.90234C83.2035 7.00162 83.2484 7.11643 83.2819 7.25596C83.2202 7.15975 83.1699 7.03881 83.1392 6.90234Z" fill="#04A8BF"/>
<path d="M0.929984 7.1862C0.926502 7.07772 0.94861 6.96116 0.988125 6.82812C0.988879 6.93381 0.972227 7.05597 0.929984 7.1862Z" fill="#04A8BF"/>
<path d="M1.06546 6.65843C1.07267 6.5332 1.10555 6.3984 1.15814 6.24609C1.14894 6.36868 1.12004 6.50877 1.06546 6.65843Z" fill="#04A8BF"/>
<path d="M0.777354 7.79156C0.774505 7.67283 0.799017 7.5403 0.840505 7.39062C0.839892 7.50824 0.822304 7.64299 0.777354 7.79156Z" fill="#04A8BF"/>
<path d="M83.2944 7.51172C83.3581 7.61305 83.4022 7.72838 83.4334 7.86797C83.372 7.77005 83.3234 7.64789 83.2944 7.51172Z" fill="#04A8BF"/>
<path d="M82.8223 5.83398C82.8757 5.89871 82.9109 5.98117 82.9405 6.09085C82.8913 6.02928 82.8477 5.9405 82.8223 5.83398Z" fill="#04A8BF"/>
<path d="M40.1526 27.8509C40.0722 27.8709 39.9787 27.8696 39.8729 27.846C39.9536 27.8257 40.0465 27.8277 40.1526 27.8509Z" fill="#04A8BF"/>
<path d="M39.7211 27.782C39.6281 27.8001 39.5193 27.7957 39.3948 27.7687C39.4879 27.7506 39.5966 27.7551 39.7211 27.782Z" fill="#04A8BF"/>
<path d="M29.3814 8.35448C29.3766 8.28182 29.3943 8.19731 29.4391 8.10742C29.4455 8.18224 29.4246 8.26243 29.3814 8.35448Z" fill="#04A8BF"/>
<path d="M47.955 1.41035C48.0282 1.40781 48.1075 1.43074 48.1948 1.47789C48.1221 1.48001 48.0416 1.45791 47.955 1.41035Z" fill="#04A8BF"/>
<path d="M48.2635 1.55883C48.3362 1.55603 48.4148 1.57865 48.5019 1.62507C48.43 1.62732 48.3498 1.60579 48.2635 1.55883Z" fill="#04A8BF"/>
<path d="M82.9779 6.32812C83.0272 6.37845 83.0594 6.45437 83.0855 6.55493C83.0399 6.50429 83.0004 6.42901 82.9779 6.32812Z" fill="#04A8BF"/>
<path d="M1.26432 6.04999C1.251 5.98451 1.26133 5.91787 1.29154 5.83398C1.3036 5.8941 1.29578 5.97146 1.26432 6.04999Z" fill="#04A8BF"/>
<path d="M1.42069 5.58501C1.41191 5.50886 1.43129 5.42671 1.47246 5.33008C1.47912 5.4034 1.46398 5.4912 1.42069 5.58501Z" fill="#04A8BF"/>
<path d="M26.2792 2.77148C26.3225 2.78875 26.366 2.83037 26.4082 2.89705C26.3644 2.88002 26.3219 2.83793 26.2792 2.77148Z" fill="#04A8BF"/>
<path d="M81.8843 3.66016C81.9288 3.68299 81.9653 3.7318 82.0019 3.80462C81.9601 3.78113 81.9181 3.73363 81.8843 3.66016Z" fill="#04A8BF"/>
<path d="M2.17595 3.82696C2.17097 3.77152 2.19327 3.7128 2.23799 3.64453C2.24134 3.69788 2.22229 3.76078 2.17595 3.82696Z" fill="#04A8BF"/>
<path d="M2.34352 3.52452C2.33889 3.47009 2.36004 3.41253 2.40386 3.34766C2.40746 3.40069 2.38838 3.46104 2.34352 3.52452Z" fill="#04A8BF"/>
<path d="M50.6935 3.09961C50.7449 3.10516 50.7989 3.13497 50.8548 3.18963C50.8032 3.18427 50.7497 3.15407 50.6935 3.09961Z" fill="#04A8BF"/>
<path d="M2.26933 24.4697C2.22904 24.4475 2.19083 24.4012 2.15735 24.3301C2.19851 24.3521 2.23496 24.3988 2.26933 24.4697Z" fill="#04A8BF"/>
<path d="M2.43723 24.7679C2.39566 24.7457 2.35569 24.6998 2.3223 24.6289C2.36552 24.6506 2.40218 24.6974 2.43723 24.7679Z" fill="#04A8BF"/>
<path d="M2.58378 25.004C2.5382 24.9823 2.49574 24.9369 2.46082 24.8672C2.50787 24.8887 2.54738 24.9345 2.58378 25.004Z" fill="#04A8BF"/>
<path d="M2.73879 25.2298C2.69593 25.2117 2.65318 25.1692 2.61218 25.1016C2.6556 25.1195 2.69725 25.1625 2.73879 25.2298Z" fill="#04A8BF"/>
<path d="M3.2078 25.8331C3.16193 25.8196 3.11484 25.7817 3.06689 25.7188C3.11289 25.732 3.15973 25.7704 3.2078 25.8331Z" fill="#04A8BF"/>
<path d="M48.6967 26.3164C48.6723 26.359 48.6243 26.401 48.5507 26.4326C48.5745 26.3867 48.6238 26.3513 48.6967 26.3164Z" fill="#04A8BF"/>
<path d="M35.984 26.5618C35.9335 26.573 35.8727 26.5622 35.8036 26.5278C35.8548 26.5161 35.9143 26.528 35.984 26.5618Z" fill="#04A8BF"/>
<path d="M82.0469 3.96094C82.0906 3.9867 82.1234 4.03794 82.155 4.11299C82.1146 4.08668 82.0753 4.03655 82.0469 3.96094Z" fill="#04A8BF"/>
<path d="M50.081 2.64453C50.1343 2.64549 50.1914 2.67056 50.2512 2.72044C50.1975 2.71973 50.1411 2.69418 50.081 2.64453Z" fill="#04A8BF"/>
<path d="M48.5701 1.70799C48.6216 1.70249 48.6771 1.72072 48.7388 1.76129C48.688 1.76632 48.6311 1.74902 48.5701 1.70799Z" fill="#04A8BF"/>
<path d="M35.1328 1.97582C35.1536 1.93447 35.1992 1.89755 35.2686 1.86133C35.2475 1.90144 35.2025 1.94084 35.1328 1.97582Z" fill="#04A8BF"/>
<path d="M49.6286 2.33203C49.6822 2.33283 49.7391 2.35782 49.7986 2.40755C49.7447 2.40694 49.6883 2.38158 49.6286 2.33203Z" fill="#04A8BF"/>
<path d="M39.244 27.6997C39.2024 27.7208 39.1553 27.7219 39.1028 27.7021C39.1445 27.6807 39.1914 27.6802 39.244 27.6997Z" fill="#04A8BF"/>
<path d="M49.3947 2.18991C49.4462 2.18616 49.505 2.20541 49.5691 2.24901C49.517 2.25321 49.4595 2.23306 49.3947 2.18991Z" fill="#04A8BF"/>
<path d="M25.8027 2.17578C25.8498 2.18847 25.8977 2.22539 25.9458 2.28731C25.8986 2.27487 25.851 2.23745 25.8027 2.17578Z" fill="#04A8BF"/>
<path d="M49.1589 2.04726C49.2125 2.04379 49.272 2.0636 49.3347 2.10861C49.2802 2.11273 49.2225 2.09163 49.1589 2.04726Z" fill="#04A8BF"/>
<path d="M25.6575 2.01562C25.7044 2.02808 25.7527 2.06477 25.8011 2.12651C25.7538 2.11433 25.7064 2.07709 25.6575 2.01562Z" fill="#04A8BF"/>
<path d="M82.5308 5.06055C82.5727 5.08624 82.5967 5.12325 82.6172 5.18351C82.5801 5.16178 82.5465 5.11682 82.5308 5.06055Z" fill="#04A8BF"/>
<path d="M29.5408 7.97825C29.5339 7.92562 29.5491 7.86417 29.5901 7.79883C29.5983 7.8531 29.5805 7.91127 29.5408 7.97825Z" fill="#04A8BF"/>
<path d="M29.8316 7.43419C29.8235 7.38295 29.8383 7.32309 29.8769 7.25586C29.8852 7.30751 29.8699 7.36654 29.8316 7.43419Z" fill="#04A8BF"/>
<path d="M48.8637 1.87347C48.918 1.86977 48.9765 1.89022 49.0392 1.93483C48.985 1.93853 48.9265 1.91808 48.8637 1.87347Z" fill="#04A8BF"/>
<path d="M29.9936 7.13268C29.9873 7.0816 30.0031 7.02123 30.0441 6.95508C30.0513 7.00733 30.0335 7.06535 29.9936 7.13268Z" fill="#04A8BF"/>
<path d="M30.1248 6.89403C30.1236 6.83998 30.1465 6.78174 30.1943 6.7207C30.1958 6.77521 30.1723 6.83252 30.1248 6.89403Z" fill="#04A8BF"/>
<path d="M30.4235 6.42857C30.4221 6.37539 30.4447 6.31823 30.4917 6.25781C30.4932 6.31123 30.4703 6.36792 30.4235 6.42857Z" fill="#04A8BF"/>
<path d="M35.7271 1.64804C35.7521 1.60479 35.8017 1.57179 35.8748 1.54102C35.8494 1.58159 35.8005 1.61994 35.7271 1.64804Z" fill="#04A8BF"/>
<path d="M30.7283 5.9702C30.7313 5.91789 30.7584 5.86226 30.8104 5.80469C30.8077 5.85746 30.78 5.91217 30.7283 5.9702Z" fill="#04A8BF"/>
<path d="M82.6721 5.41016C82.7168 5.44141 82.7453 5.49518 82.7655 5.5708C82.7235 5.53933 82.6897 5.486 82.6721 5.41016Z" fill="#04A8BF"/>
<path d="M31.1909 5.36203C31.1941 5.30939 31.2213 5.25325 31.2737 5.19531C31.2709 5.24852 31.243 5.30353 31.1909 5.36203Z" fill="#04A8BF"/>
<path d="M26.921 3.82812C26.9607 3.85069 26.9952 3.89684 27.0257 3.96633C26.9865 3.94368 26.9511 3.8977 26.921 3.82812Z" fill="#04A8BF"/>
<path d="M82.1938 4.26953C82.2359 4.29587 82.2674 4.34732 82.2975 4.42241C82.2584 4.39558 82.2208 4.34511 82.1938 4.26953Z" fill="#04A8BF"/>
<path d="M36.0338 1.49899C36.0589 1.45614 36.1086 1.42323 36.1819 1.39258C36.1564 1.43287 36.1074 1.47091 36.0338 1.49899Z" fill="#04A8BF"/>
<path d="M47.6443 1.26072C47.6969 1.25111 47.7547 1.26547 47.8204 1.30195C47.7687 1.31095 47.7091 1.29781 47.6443 1.26072Z" fill="#04A8BF"/>
<path d="M47.3279 1.13535C47.3798 1.12154 47.4416 1.12976 47.5117 1.16164C47.4592 1.17599 47.3985 1.16669 47.3279 1.13535Z" fill="#04A8BF"/>
<path d="M1.88088 4.44048C1.87088 4.38507 1.88807 4.32531 1.9263 4.25391C1.93424 4.30688 1.92116 4.37151 1.88088 4.44048Z" fill="#04A8BF"/>
<path d="M27.0795 4.13281C27.118 4.15748 27.1498 4.20534 27.1762 4.27604C27.138 4.25125 27.1054 4.20363 27.0795 4.13281Z" fill="#04A8BF"/>
<path d="M35.4258 1.80821C35.448 1.76384 35.4956 1.72702 35.567 1.69141C35.5443 1.73366 35.4978 1.77471 35.4258 1.80821Z" fill="#04A8BF"/>
<path d="M29.6979 7.67233C29.6925 7.62024 29.7092 7.55993 29.7516 7.49609C29.7582 7.54975 29.7391 7.60693 29.6979 7.67233Z" fill="#04A8BF"/>
<path d="M2.02434 4.13185C2.01507 4.07634 2.03343 4.01674 2.07288 3.94531C2.07996 3.99825 2.06597 4.063 2.02434 4.13185Z" fill="#04A8BF"/>
</g>
<defs>
<clipPath id="clip0_600_2532">
<rect width="84" height="28" fill="white"/>
</clipPath>
</defs>
</svg>
