<svg width="36" height="36" viewBox="0 0 36 36" fill="none" xmlns="http://www.w3.org/2000/svg">
<path d="M19.2482 0.425783L19.2521 0.42676L19.2608 0.428713L19.2989 0.439455C19.3972 0.465594 19.5012 0.476844 19.6144 0.485353C19.7183 0.493144 19.8764 0.500337 20.0138 0.51758C20.6398 0.596218 21.2574 0.71122 21.8683 0.862307L22.4767 1.02539L22.9122 1.15723C23.9008 1.47664 24.8444 1.89914 25.7452 2.41699C27.5023 3.42712 28.9903 4.74582 30.2159 6.35352C31.3341 7.82038 32.1741 9.43381 32.7276 11.1934C33.0667 12.2712 33.2823 13.3716 33.3771 14.4971C33.4346 15.1811 33.444 15.8662 33.4044 16.5498C33.3383 17.6906 33.1361 18.8087 32.8185 19.9033C32.3242 21.6066 31.497 23.1349 30.5636 24.5908C29.199 26.7192 27.8746 28.8607 26.5177 31.0029C25.4148 32.7439 23.9133 34.0398 22.0157 34.8662C21.1939 35.2241 20.3378 35.4552 19.4532 35.5723C19.3863 35.5811 19.318 35.5865 19.254 35.5898L19.0812 35.5967C19.0279 35.5989 18.9796 35.6021 18.9347 35.6064L18.8077 35.626L18.7726 35.6338L18.7657 35.6357H18.5294L18.5265 35.6377C18.1641 35.6418 17.8074 35.6436 17.4425 35.6436H17.3634L17.3556 35.6396L17.3439 35.6348L17.253 35.5977L17.1544 35.5967H17.1378C17.1097 35.5964 17.0674 35.596 17.0245 35.5938C16.2914 35.5553 15.5972 35.3796 14.9347 35.1631C13.8212 34.7992 12.8088 34.2458 11.8966 33.5176C10.9532 32.7644 10.1884 31.8616 9.55577 30.8506C8.22399 28.7223 6.88395 26.5985 5.54112 24.4766C4.93961 23.526 4.34535 22.5415 3.9044 21.4668C3.34868 20.1121 2.97679 18.7055 2.82335 17.2412C2.73675 16.4144 2.70541 15.5803 2.76476 14.7412C2.83532 13.7438 2.99794 12.7588 3.2589 11.79C3.74361 9.99093 4.52876 8.33115 5.6046 6.8125C6.9278 4.94484 8.58555 3.43542 10.5939 2.31543C11.3945 1.86898 12.2304 1.49099 13.1056 1.20117C14.2816 0.81184 15.4914 0.549174 16.7394 0.460939L16.7716 0.45801L16.8019 0.451174H16.8126L16.8663 0.439455L16.9015 0.431642H16.9396C17.6958 0.42551 18.4401 0.425783 19.1983 0.425783H19.2482ZM18.2452 2.2334C17.2253 2.21549 16.2107 2.32239 15.2062 2.53613C14.3332 2.72193 13.4881 2.98863 12.671 3.3418C11.1512 3.99873 9.80163 4.90603 8.62706 6.06934C7.75082 6.93722 7.01101 7.91106 6.39561 8.98145C5.29679 10.8928 4.67803 12.9435 4.57433 15.1397C4.51869 16.3188 4.64158 17.4892 4.91124 18.6494C5.22224 19.9872 5.71737 21.2489 6.42101 22.4189C7.13769 23.6106 7.89118 24.7762 8.63683 25.9639C9.45264 27.2633 10.2749 28.5652 11.09 29.8672C11.595 30.6739 12.1804 31.3942 12.9044 31.9795C14.5327 33.2953 16.3896 33.9104 18.4864 33.8184C19.3276 33.7813 20.1413 33.6183 20.9269 33.3223C22.6913 32.6573 24.0439 31.5036 25.045 29.9043C26.497 27.5844 27.9572 25.2677 29.4181 22.9541C30.1286 21.8287 30.6842 20.6397 31.0597 19.3682L31.1544 19.0283C31.6081 17.327 31.7049 15.6008 31.462 13.8486C31.3123 12.7687 31.0268 11.7212 30.6134 10.71C29.7854 8.68494 28.5708 6.93713 26.9034 5.48145C26.3653 5.01177 25.7887 4.59164 25.1788 4.21582C23.0572 2.9087 20.7381 2.27736 18.2452 2.2334Z" fill="#04A8BF"/>
<path d="M20.928 21.6688C20.6554 21.1739 20.5313 20.6531 20.4804 20.1049C20.4422 19.6941 20.4512 19.2845 20.5045 18.8822C20.5792 18.3179 20.7215 17.7644 20.9294 17.2304C21.3624 16.1184 21.9752 15.124 22.8698 14.3205C23.3878 13.8554 23.9662 13.4902 24.6496 13.3004C25.782 12.9859 26.8175 13.4294 27.3645 14.484C27.6078 14.9533 27.7288 15.4562 27.7577 15.9815C27.8647 17.9298 27.1969 19.6131 25.9809 21.1041C25.4528 21.7516 24.82 22.2756 24.0467 22.6091C23.3748 22.8988 22.6888 22.9899 21.9919 22.6786C21.5214 22.4685 21.1869 22.1175 20.928 21.6688Z" fill="#04A8BF"/>
<path d="M11.2094 22.0819C10.1069 21.2405 9.37476 20.1475 8.87703 18.8814C8.52217 17.9787 8.3278 17.0462 8.39059 16.0786C8.4471 15.2075 8.66547 14.3806 9.3489 13.7646C9.86463 13.2997 10.4739 13.1162 11.17 13.2301C12.1475 13.3901 12.9126 13.9204 13.5817 14.6073C14.5758 15.6281 15.2084 16.8458 15.5285 18.2303C15.7016 18.9794 15.7723 19.733 15.6373 20.4932C15.5074 21.2248 15.2473 21.8984 14.6445 22.3843C14.1474 22.7851 13.5786 22.9336 12.943 22.8424C12.2971 22.7497 11.7384 22.4659 11.2094 22.0819Z" fill="#04A8BF"/>
<path d="M20.0938 28.2594C20.6217 27.6626 20.9223 26.9861 20.9341 26.1941C20.9357 26.0855 20.976 26.0265 21.0934 26.0278C21.3463 26.0305 21.5993 26.0298 21.8523 26.0281C21.9558 26.0274 22.0041 26.0627 21.9998 26.1773C21.9469 27.572 21.3658 28.6974 20.2324 29.5117C19.4316 30.0871 18.5236 30.3275 17.5369 30.1539C15.8896 29.8639 14.8775 28.8534 14.3493 27.3118C14.2325 26.9709 14.1893 26.6144 14.1584 26.2571C14.1414 26.0611 14.1712 26.0307 14.3661 26.0303C14.5853 26.0299 14.8048 26.0362 15.0237 26.0277C15.163 26.0223 15.2036 26.0757 15.2136 26.2118C15.2764 27.0707 15.5798 27.8284 16.2295 28.4139C16.8766 28.9972 17.6355 29.2504 18.5125 29.1107C19.1367 29.0113 19.6505 28.7147 20.0938 28.2594Z" fill="#04A8BF"/>
</svg>
