<svg width="60" height="32" viewBox="0 0 60 32" fill="none" xmlns="http://www.w3.org/2000/svg">
<g clip-path="url(#clip0_681_4724)">
<path d="M5.41943 3.9257C8.63426 1.24946 12.4053 0.0991792 16.5402 0.430509C23.0684 0.953738 28.0365 5.30202 29.9734 10.7037C31.6828 6.24664 34.7852 3.09938 39.391 1.32714L39.4014 1.32314C48.5263 -1.96017 58.3656 3.61453 60.264 13.11C60.4328 13.9543 60.5326 14.8169 60.5313 15.6957C60.5238 20.6276 60.5287 25.5591 60.5281 30.4922C60.528 30.6618 60.5289 30.83 60.5136 30.9658C60.4987 31.0978 60.4601 31.3055 60.2961 31.4722C60.1303 31.6406 59.9212 31.6811 59.788 31.6965C59.6526 31.7122 59.4854 31.7117 59.3193 31.7118C54.264 31.7126 49.211 31.7058 44.1571 31.7134C40.7167 31.7185 37.6881 30.5483 35.0125 28.481C32.641 26.6487 31.0054 24.3151 29.979 21.5227C29.8568 21.8644 29.7259 22.2012 29.5721 22.5275C27.1709 27.6226 23.1963 30.6791 17.6414 31.6076C17.1537 31.6891 16.6776 31.7117 16.2103 31.7118C11.1379 31.7122 6.0652 31.7117 0.992797 31.7118C0.802255 31.7118 0.615684 31.713 0.466256 31.6957C0.318492 31.6787 0.0984491 31.6342 -0.0739304 31.4554C-0.242518 31.2804 -0.282137 31.0614 -0.297871 30.9153C-0.31415 30.764 -0.31391 30.5742 -0.313924 30.3744C-0.314273 25.5559 -0.347976 20.7257 -0.304292 15.9001C-0.260181 11.0313 1.7075 7.01578 5.41943 3.9257ZM12.2877 23.6188C11.8684 20.8319 9.30477 18.8115 6.48135 19.0467C3.8109 19.2692 1.62444 21.6635 1.61726 24.4097C1.61379 25.7375 1.61673 27.0643 1.61646 28.5034C1.61653 28.8138 1.6455 29.2519 1.60683 29.6429C1.60069 29.705 1.60066 29.75 1.60201 29.7815C1.63752 29.7865 1.68984 29.7924 1.76495 29.7911C3.52716 29.7592 5.29683 29.7797 7.04561 29.7783C10.2708 29.7755 12.7735 26.8476 12.2877 23.6188ZM55.7306 12.9345C53.3869 10.5093 50.5246 9.53338 47.0748 9.95294C46.8054 9.99924 46.6003 10.0249 46.3765 10.0763C41.1355 11.2813 37.9249 16.2934 38.7135 21.3456C39.1899 24.3972 40.7551 26.7565 43.3834 28.384C44.8528 29.2939 46.4286 29.7547 48.1287 29.7887C44.9806 26.7273 45.3382 22.1381 47.6744 19.5531C48.9422 18.1502 50.5322 17.2728 52.4437 17.1244C54.8785 16.9355 56.8951 17.7291 58.4837 19.4385C58.37 16.9121 57.4892 14.7544 55.7306 12.9345ZM58.3906 23.3512C57.9013 20.6786 55.2029 18.6994 52.5537 19.0531C50.3151 19.352 48.5329 20.8573 47.9986 22.9658C47.6994 24.1469 47.7219 25.2051 48.0436 26.1541C48.3642 27.0996 48.9948 27.9731 49.9699 28.7695C50.813 29.3586 51.6893 29.7468 52.6452 29.7662C54.5863 29.8058 56.4873 29.7684 58.4516 29.7871C58.469 29.7872 58.4842 29.7852 58.4973 29.7847C58.4988 29.7611 58.5009 29.7313 58.5006 29.6949C58.486 27.9638 58.4904 26.233 58.4973 24.505C58.4989 24.1189 58.4614 23.7378 58.3906 23.3512ZM21.3425 17.981C20.4493 13.2083 16.0423 9.30356 10.4994 9.90006C7.0352 10.2729 4.44957 12.1023 2.7161 15.2863C2.04864 16.5864 1.70067 17.9505 1.63091 19.4145C4.55479 16.3587 8.94748 16.5212 11.5999 18.7438C13.2986 20.1674 14.2289 22.0247 14.2807 24.231C14.3328 26.453 13.5308 28.3002 11.9699 29.7767C12.5185 29.7724 13.0307 29.7332 13.5391 29.6332C18.8489 28.5895 22.3483 23.3556 21.3425 17.981ZM28.7895 13.7286C27.2672 5.10335 18.3444 0.0684711 10.3237 3.30391C6.04188 5.03119 3.31886 8.15947 2.09725 12.6332C3.27406 11.11 4.63124 9.9166 6.18356 9.10839C8.33049 7.99065 10.8114 7.62897 13.625 8.10198C18.4091 8.90635 21.7271 11.8725 22.9622 16.59C23.7692 19.6723 23.5821 22.4061 22.4847 24.7799C21.6623 26.5586 20.3413 28.1064 18.5966 29.4377C18.6394 29.427 18.6829 29.4182 18.7258 29.4073C25.7563 27.6122 30.0316 20.7665 28.7895 13.7286ZM57.4017 10.5146C54.6682 4.35558 47.7804 1.05957 41.2595 2.78147C35.5776 4.28191 31.409 9.212 30.9848 15.0619C30.7085 18.8716 31.8391 22.2547 34.3768 25.2342L34.6144 25.4898C36.5476 27.5225 38.811 28.8413 41.4225 29.4369C37.6493 26.5767 36.1913 22.0813 36.7751 18.0884C37.4704 13.3336 40.9396 9.32987 45.6469 8.27827C48.7082 7.59447 51.3921 7.86315 53.7047 9.00823C55.4456 9.87031 56.9482 11.2159 58.2357 12.973C58.0424 12.1357 57.7581 11.3177 57.4017 10.5146Z" fill="#04A8BF"/>
</g>
<defs>
<clipPath id="clip0_681_4724">
<rect width="60" height="32" fill="white"/>
</clipPath>
</defs>
</svg>
