<svg width="36" height="36" viewBox="0 0 36 36" fill="none" xmlns="http://www.w3.org/2000/svg">
<path d="M13.9539 1.23262C15.7971 0.725676 17.6835 0.551533 19.5909 0.749934C25.9129 1.40763 30.5419 4.68894 33.4813 10.4407C34.5886 12.6074 35.1612 14.9491 35.2141 17.4073C35.2186 17.6123 35.2336 17.8021 35.2447 18.0535L35.2456 18.0658C35.2575 22.3595 33.9325 26.1506 31.2739 29.4118C28.6175 32.6701 25.2231 34.6815 21.1433 35.4396C19.5913 35.728 18.0273 35.7856 16.4657 35.6126C13.0083 35.2296 9.923 33.8996 7.25659 31.5896C4.49539 29.1973 2.65936 26.1898 1.71671 22.6152C1.25047 20.8472 1.12596 19.0489 1.20694 17.2344C1.33986 14.2563 2.18397 11.5051 3.71784 8.9917C6.1333 5.03375 9.56251 2.44035 13.9539 1.23262ZM17.5796 26.891C17.1382 27.2243 16.6872 27.575 16.2307 27.9001C14.6353 29.036 12.9646 30.0668 11.1145 30.7715C10.4266 31.0335 9.71802 31.2341 8.95705 31.3292C9.25659 31.5499 9.55738 31.7575 9.87758 31.9706L10.3189 32.2414C12.5395 33.556 14.9285 34.2934 17.5111 34.4002C17.5409 34.4014 17.5642 34.3971 17.5824 34.3964C17.5836 34.378 17.5871 34.3548 17.587 34.3251C17.5766 31.8469 17.5813 29.3676 17.5796 26.891ZM18.8656 34.3954C21.4745 34.2899 23.8875 33.5606 26.1753 32.2005C26.6197 31.9254 27.0503 31.6421 27.4631 31.3302C26.2605 31.1798 25.1415 30.7556 24.0687 30.2394C22.2012 29.3407 20.4931 28.1866 18.8656 26.9185V34.3954ZM8.38067 29.2056L8.38159 29.2065C8.13422 29.4638 7.88633 29.7205 7.63036 29.9866C8.08171 30.1426 8.54768 30.1054 9.06066 30.0303C10.0784 29.8815 11.0293 29.4784 11.9796 29.0032C13.8482 28.0687 15.5607 26.8718 17.2123 25.5588C16.2749 24.7464 15.3526 23.8859 14.4368 22.9782C12.415 25.0574 10.412 27.1168 8.38067 29.2056ZM20.6104 24.2942L20.6067 24.298C20.1484 24.7153 19.69 25.1327 19.2116 25.5683C19.4837 25.7825 19.7327 25.9809 19.9878 26.1746C21.7435 27.5076 23.5584 28.7036 25.5776 29.5191C26.5094 29.8955 27.4339 30.1511 28.4059 30.0655C28.5133 30.056 28.6096 30.0392 28.6954 30.0189C26.4332 27.6983 24.1764 25.3846 21.9103 23.0599C21.5063 23.4435 21.0704 23.8585 20.6104 24.2942ZM25.3759 19.2165C24.5753 20.2044 23.7298 21.1479 22.8669 22.0698L22.8993 22.1031C25.1504 24.4131 27.399 26.7233 29.6502 29.0327C29.6629 29.0457 29.6747 29.0596 29.6863 29.0726C29.7062 29.0014 29.725 28.9195 29.7446 28.8217C29.8736 28.1782 29.7523 27.5389 29.5706 26.8634C29.0228 24.8265 27.9751 23.0341 26.7988 21.2213C26.3427 20.5345 25.8798 19.8619 25.3759 19.2165ZM11.0396 19.2184C9.91995 20.7064 8.88884 22.2461 8.03743 23.9017C7.43931 25.0649 6.92956 26.2371 6.70704 27.5105C6.60994 28.0662 6.58166 28.5774 6.73758 29.065C9.00182 26.7395 11.2649 24.4115 13.5357 22.0917C13.5452 22.0819 13.5515 22.0715 13.5579 22.0641C13.5485 22.0533 13.5376 22.0404 13.5237 22.0261C12.8653 21.3499 12.2393 20.6441 11.6317 19.9253C11.4387 19.697 11.2469 19.4667 11.0396 19.2184ZM33.9837 18.8098C33.6876 18.8337 33.371 18.8155 33.0502 18.8155H26.6591C27.5454 19.9923 28.3572 21.2227 29.0784 22.5164C29.8321 23.8682 30.487 25.2826 30.8511 26.8321C30.9192 27.1223 30.9581 27.4161 30.9889 27.7129C32.068 26.1817 32.8693 24.5066 33.3842 22.6836C33.7338 21.4457 33.9137 20.1733 33.9929 18.8773C33.9945 18.8508 33.9947 18.8283 33.9948 18.8088C33.9913 18.8091 33.9874 18.8095 33.9837 18.8098ZM2.42538 18.8117C2.42593 18.8218 2.4267 18.8336 2.42816 18.8468C2.45083 19.0525 2.4687 19.258 2.48552 19.4597C2.50243 19.6625 2.5189 19.8614 2.53918 20.0593C2.78693 22.4761 3.57049 24.7044 4.81416 26.7713C5.00468 27.0879 5.20357 27.3953 5.42477 27.7034C5.54325 26.7622 5.79463 25.893 6.12974 25.0515C7.02049 22.8147 8.28878 20.817 9.6833 18.9153C9.70996 18.8789 9.73606 18.8463 9.76009 18.8155C8.59993 18.8156 7.43977 18.8153 6.27962 18.8155C5.01569 18.8157 3.74588 18.8234 2.47812 18.8107C2.4574 18.8105 2.43994 18.8107 2.42538 18.8117ZM15.3213 22.0736C16.0509 22.7893 16.785 23.5076 17.575 24.1934C17.5728 22.7229 17.5681 21.2532 17.5472 19.7752C16.8046 20.5407 16.0624 21.3067 15.3213 22.0736ZM18.8702 24.1659C19.6009 23.5189 20.3173 22.864 20.9944 22.1677C21.0365 22.1244 21.0659 22.0896 21.0897 22.0641C21.059 22.03 21.019 21.9848 20.9611 21.9244C20.268 21.2124 19.5745 20.5008 18.8702 19.7771V24.1659ZM12.3728 18.8392C12.8935 19.4678 13.4146 20.0663 13.9761 20.6645C14.1184 20.8086 14.2606 20.953 14.397 21.0911C15.1316 20.3369 15.8633 19.586 16.5906 18.8392H12.3728ZM22.0379 21.0883C22.7255 20.3767 23.3964 19.627 24.0631 18.8155H19.8573C20.5745 19.5628 21.3011 20.3204 22.0379 21.0883ZM30.9945 8.66199C30.9649 8.94704 30.9235 9.22707 30.8594 9.50574C30.5021 11.0575 29.8461 12.4716 29.0794 13.8661L29.0784 13.867C28.3597 15.1536 27.5362 16.366 26.6739 17.5546C29.1118 17.5571 31.5501 17.5574 33.9883 17.5632C33.9527 17.1398 33.9272 16.7352 33.8828 16.3251C33.5934 13.6524 32.6944 11.212 31.2184 8.99265C31.142 8.8779 31.0676 8.76882 30.9945 8.66199ZM5.42477 8.68004C4.57566 9.88534 3.89782 11.1878 3.39311 12.589C2.83776 14.1309 2.54088 15.731 2.43556 17.3769C2.43056 17.4551 2.4297 17.513 2.42816 17.5575C2.46732 17.5587 2.51787 17.5621 2.58544 17.5622H9.75546C9.7528 17.5586 9.75075 17.5545 9.74806 17.5508C9.03478 16.5845 8.34562 15.5914 7.73768 14.5388C6.69722 12.7373 5.7139 10.8605 5.42477 8.68004ZM21.8483 15.3626C21.1513 16.0808 20.4549 16.7998 19.7389 17.5375H24.0382C23.3691 16.7228 22.6968 15.9644 21.9852 15.2296C21.9418 15.272 21.8969 15.3146 21.8483 15.3626ZM14.4405 15.2277C13.7153 15.9845 13.0331 16.7352 12.3839 17.5309H16.7155C16.2854 17.099 15.8508 16.6627 15.399 16.2092L15.3971 16.2073C15.0801 15.8827 14.7632 15.558 14.4405 15.2277ZM22.8697 14.3117C23.7271 15.2327 24.5694 16.1732 25.3787 17.1622C26.6864 15.4134 27.8859 13.6083 28.8009 11.6256C29.2781 10.5914 29.6567 9.54441 29.7788 8.42635C29.822 8.03045 29.7955 7.65838 29.6835 7.31085C27.4114 9.64365 25.14 11.9771 22.8697 14.3117ZM6.73758 7.3118C6.6302 7.63154 6.60371 7.97702 6.63673 8.34273C6.69978 9.04058 6.87032 9.71946 7.11319 10.3846C7.8398 12.3746 8.92623 14.1669 10.1339 15.9099C10.4325 16.341 10.7291 16.7619 11.0424 17.1555C11.7954 16.2377 12.5771 15.3464 13.3886 14.4827C13.4391 14.429 13.4844 14.3833 13.5209 14.3459C13.5328 14.3337 13.5426 14.3218 13.5523 14.3117C13.5113 14.2688 13.4575 14.2125 13.3793 14.1321C11.1757 11.8673 8.97058 9.6039 6.73758 7.3118ZM17.5805 12.1814C16.783 12.8729 16.0589 13.5767 15.3499 14.2908C16.0949 15.0585 16.8309 15.8159 17.5805 16.5883V12.1814ZM18.8665 16.4961C19.5815 15.7636 20.3001 15.0258 20.9962 14.3126C20.7509 14.038 20.4928 13.7492 20.2144 13.4423C19.762 13.0248 19.3328 12.6079 18.8665 12.208V16.4961ZM8.63324 6.27707C8.27176 6.2363 7.93377 6.25698 7.60168 6.38824L8.37697 7.16737L8.37882 7.17022C10.3933 9.24155 12.4081 11.3127 14.4377 13.3995C15.3499 12.4902 16.2706 11.647 17.2095 10.8151C15.9725 9.82742 14.6988 8.9047 13.3432 8.11659C11.8357 7.24013 10.3335 6.46888 8.63324 6.27707ZM28.7102 6.35593C28.0066 6.19593 27.3076 6.3114 26.5787 6.52221C24.9056 7.00604 23.3994 7.86949 21.8742 8.85677L21.8733 8.85582C20.9617 9.4739 20.0682 10.0997 19.2088 10.8179C20.1788 11.6508 21.066 12.5068 21.9167 13.334C24.1927 10.996 26.4508 8.67689 28.7102 6.35593ZM17.5805 1.98515C17.0788 1.99604 16.5788 2.04481 16.0743 2.11343C14.1938 2.36923 12.4232 2.96874 10.7121 3.914L10.7112 3.91305C10.1085 4.25258 9.52771 4.61937 8.95242 5.0561C9.84846 5.17451 10.6662 5.42199 11.4587 5.74972C13.6939 6.67413 15.6816 8.011 17.5731 9.48009C17.5753 6.98207 17.576 4.48352 17.5805 1.98515ZM18.8794 9.45633C19.9595 8.60975 21.0798 7.81736 22.2618 7.11607C23.669 6.28122 25.14 5.53311 26.7739 5.16157L27.1115 5.09696C27.2267 5.07838 27.3428 5.06152 27.4603 5.04755C26.9849 4.68905 26.5016 4.37542 25.9838 4.06317C23.7698 2.78991 21.4114 2.08221 18.8794 1.9861V9.45633Z" fill="#04A8BF"/>
</svg>
