<svg width="34" height="34" viewBox="0 0 34 34" fill="none" xmlns="http://www.w3.org/2000/svg">
<g clip-path="url(#clip0_681_4685)">
<path fill-rule="evenodd" clip-rule="evenodd" d="M18.1927 0.494722H18.2151L18.2376 0.497414C18.8914 0.565493 19.5285 0.641711 20.1651 0.763039C21.1291 0.946734 22.07 1.21403 22.9847 1.57158C25.4196 2.52341 27.5277 3.96539 29.2852 5.90414C31.1999 8.0163 32.4991 10.4636 33.1583 13.2429C33.3065 13.8676 33.4247 14.5051 33.4859 15.157C33.5115 15.4303 33.5403 15.7011 33.5684 15.9799L33.5711 16.0024V16.0257C33.5711 16.6859 33.5708 17.3466 33.5693 18.0349V18.061L33.5666 18.087C33.5609 18.1368 33.5544 18.1793 33.5505 18.2046C33.5484 18.2181 33.5468 18.2262 33.546 18.2324L33.5451 18.2395C33.5144 18.8249 33.4441 19.4059 33.3351 19.9805C33.1592 20.9081 32.9132 21.8188 32.5867 22.7103C31.8502 24.7213 30.7614 26.5207 29.3319 28.109C27.8042 29.8063 25.9972 31.1346 23.9243 32.0924C23.0343 32.5036 22.1137 32.8327 21.1603 33.0742C20.9816 33.1194 20.8018 33.1616 20.6219 33.2016L20.3222 33.2635C19.8621 33.3575 19.3978 33.4358 18.9276 33.4897C18.8089 33.5032 18.6517 33.5081 18.5795 33.513C18.484 33.5195 18.4225 33.5295 18.374 33.5462L18.3013 33.5713H18.2241H18.1302C17.4176 33.5713 16.7023 33.5713 15.9627 33.5659L15.9268 33.565L15.8918 33.5597C15.8699 33.5561 15.8499 33.5526 15.8335 33.5498C15.8164 33.5468 15.8042 33.5444 15.7931 33.5426C15.7714 33.5391 15.7653 33.539 15.7653 33.539C15.7119 33.5367 15.6587 33.5322 15.6055 33.5291L15.2008 33.4995C15.0268 33.4833 14.8536 33.4638 14.6812 33.4403L14.1742 33.3604C13.7777 33.2908 13.3853 33.2053 12.9977 33.1074C11.463 32.7196 10.0079 32.1271 8.64275 31.3144C5.9051 29.6846 3.79167 27.4562 2.31352 24.6343C1.77522 23.6066 1.35397 22.5316 1.0509 21.41C0.832981 20.6035 0.664901 19.7832 0.572595 18.9431C0.557267 18.8036 0.551726 18.6454 0.544776 18.5402C0.536897 18.4209 0.525732 18.3274 0.504394 18.244L0.490036 18.1875V18.1301C0.490036 17.4175 0.489685 16.7042 0.490933 15.9638L0.491831 15.9297L0.496317 15.8956C0.502669 15.854 0.510047 15.8211 0.515162 15.8005C0.559199 15.1556 0.642383 14.5169 0.763737 13.8819C0.913292 13.0993 1.11774 12.3307 1.38203 11.5783C2.11639 9.48779 3.22594 7.61466 4.70952 5.96785C6.10247 4.42168 7.72772 3.17341 9.58769 2.23385C10.5729 1.73616 11.5976 1.33663 12.6666 1.04661C13.3107 0.871872 13.961 0.738489 14.6175 0.638303C14.8259 0.606511 15.0335 0.583684 15.2295 0.562923C15.4287 0.541828 15.6161 0.522959 15.8012 0.49562L15.8344 0.490235H15.8685L15.9496 0.490234C16.6874 0.490228 17.4277 0.490222 18.1927 0.494722ZM15.9797 23.8168C17.264 23.3133 18.4973 23.4031 19.6922 24.0546L19.9309 24.1928C20.8677 24.8155 21.4736 25.6363 21.7732 26.6956C22.406 28.9334 21.1313 31.2387 18.9958 31.9623C18.6707 32.0725 18.3299 32.1329 17.9639 32.1705C15.9953 32.3724 14.2211 31.1531 13.5559 29.4945C12.6636 27.2694 13.6963 24.712 15.9797 23.8168ZM15.4117 20.2605C16.0917 20.0032 16.8056 19.892 17.5475 19.906C19.5606 19.9438 21.1627 20.7668 22.4032 22.346C22.9225 23.007 23.2659 23.7658 23.4693 24.6047C23.6665 25.4183 23.6983 26.2348 23.5626 27.05C23.5088 27.3732 23.4307 27.6839 23.3329 27.9833C23.3415 27.4724 23.2804 26.9494 23.1453 26.4156C22.7905 25.0135 21.9768 23.9067 20.7951 23.0944C18.5504 21.5514 15.4894 21.861 13.5425 23.771C12.3339 24.9568 11.6649 26.7618 11.8823 28.5702C11.3683 27.4193 11.1586 26.0227 11.5189 24.5697L11.5933 24.2987C12.2358 22.3213 13.4938 20.986 15.4117 20.2605ZM16.5155 16.3398C20.4337 15.9208 23.6339 18.292 24.8145 21.3588C25.4898 23.1136 25.4974 24.8995 25.0307 26.4838C25.0536 26.0386 25.039 25.583 24.9805 25.1171C24.7187 23.0345 23.7156 21.3461 22.0748 20.0585L22.0694 20.0541C19.033 17.7397 14.7206 18.0356 12.0169 20.8563C10.4447 22.4968 9.6591 24.9196 10.0409 27.2825C9.46271 25.8891 9.25783 24.2724 9.62 22.5802C10.3708 19.0728 13.2538 16.6886 16.5155 16.3398ZM15.8272 12.7924C16.7096 12.6596 17.598 12.6484 18.4879 12.7556C18.9342 12.8095 19.3745 12.8954 19.8107 13.0096L20.2459 13.1334C22.0961 13.7333 23.6181 14.7681 24.8432 16.2438C25.7723 17.363 26.4088 18.6358 26.7717 20.0487C27.0212 21.0206 27.1095 22.0135 27.0498 23.0181C27.0096 23.6951 26.9026 24.3522 26.7304 24.9897C26.7774 24.3488 26.7568 23.6889 26.6658 23.01C26.3363 20.553 25.1792 18.5211 23.2557 16.968C19.4176 13.8691 13.911 14.2881 10.5371 17.8959C8.59715 19.9705 7.66253 22.9984 8.19496 25.94C8.13915 25.795 8.08587 25.6483 8.03612 25.4994C7.76065 24.6748 7.60581 23.825 7.5623 22.949C7.48639 21.4204 7.73722 19.9595 8.3502 18.5689C9.34359 16.3154 10.9533 14.6635 13.1772 13.5992C14.0174 13.1972 14.9043 12.9314 15.8272 12.7924ZM15.0707 9.2747C16.3121 9.04307 17.5601 9.01068 18.8101 9.19035C21.5854 9.58927 23.9046 10.8362 25.8016 12.8992C26.2867 13.4269 26.7132 14.0039 27.0893 14.6213C27.7301 15.6767 28.1831 16.7842 28.4632 17.9623C28.744 19.1432 28.8465 20.3375 28.745 21.5392C28.6883 22.2099 28.5784 22.8592 28.4201 23.4883C28.4919 22.6746 28.4737 21.8355 28.3591 20.9712C27.97 18.0351 26.5847 15.6132 24.2877 13.7571C19.7014 10.0514 13.0286 10.5453 9.0035 15.0009C6.66235 17.5925 5.68669 21.1934 6.35891 24.6172C6.2383 24.2875 6.1289 23.9494 6.03496 23.6023C5.71827 22.432 5.59239 21.2408 5.66344 20.037C5.81559 17.4602 6.70881 15.1741 8.36815 13.1963C9.50123 11.8457 10.8763 10.811 12.4898 10.0868C13.3211 9.71375 14.1812 9.4407 15.0707 9.2747ZM15.7814 5.53532C22.4886 4.89286 27.8588 9.10586 29.7034 14.3207C30.6571 17.0172 30.6815 19.6814 30.092 22.0552C30.4551 18.686 29.474 15.3263 27.5183 12.7889C23.7983 7.96258 17.4165 6.4007 12.0106 8.77307L12.0088 8.77397C10.9366 9.25117 9.96212 9.84642 9.06811 10.5714C8.02877 11.4143 7.13757 12.3949 6.3984 13.5112C5.84223 14.3512 5.38931 15.2453 5.04245 16.1917C4.7713 16.9317 4.57242 17.6897 4.44031 18.4657C4.26866 19.474 4.21054 20.4897 4.28058 21.5132C4.32437 22.1532 4.41363 22.7788 4.5462 23.3905C3.75063 21.1989 3.49978 18.7249 4.02303 16.1863C5.31621 9.9129 10.4616 6.04498 15.7814 5.53532ZM16.2849 1.88207C17.2133 1.83285 18.1375 1.88017 19.0631 2.00502C21.9669 2.3967 24.5358 3.53824 26.7815 5.41955C28.7775 7.0916 30.2392 9.14727 31.1868 11.5729C31.5255 12.44 31.7712 13.3379 31.9415 14.2615C32.141 15.344 32.2376 16.4281 32.1972 17.5163C32.1688 18.2815 32.0824 19.0437 31.9433 19.8019C31.9033 20.0199 31.8587 20.2362 31.8096 20.4507C31.9225 19.3561 31.9122 18.2254 31.7692 17.0586C31.2427 12.7635 29.1584 9.31163 25.6436 6.80511C19.5114 2.4321 11.1532 3.37483 6.14264 8.98575C3.48876 11.9577 2.20547 15.4786 2.37633 19.4699C2.41358 20.3397 2.5185 21.1801 2.69042 21.9906C2.48075 21.3829 2.31033 20.762 2.17711 20.1276C1.92746 18.9389 1.82207 17.7388 1.86124 16.5273C1.89937 15.3477 2.07676 14.1871 2.3889 13.0446C2.85408 11.342 3.5922 9.77056 4.60543 8.32886C5.93262 6.44051 7.6034 4.93073 9.61551 3.79709C10.5384 3.27713 11.5057 2.85939 12.5167 2.54614C13.7425 2.16637 14.9982 1.9503 16.2849 1.88207Z" fill="#04A8BF"/>
</g>
<defs>
<clipPath id="clip0_681_4685">
<rect width="34" height="34" fill="white"/>
</clipPath>
</defs>
</svg>
