<svg width="25" height="25" viewBox="0 0 25 25" fill="none" xmlns="http://www.w3.org/2000/svg">
<path d="M22.9166 5.73047V19.793C22.9166 21.519 18.2531 22.918 12.5 22.918C6.74686 22.918 2.08331 21.519 2.08331 19.793V5.73047" stroke="#04A8BF" stroke-width="2" stroke-linecap="round" stroke-linejoin="round"/>
<path d="M22.9166 15.1055C22.9166 16.8315 18.2531 18.2305 12.5 18.2305C6.74686 18.2305 2.08331 16.8315 2.08331 15.1055M22.9166 10.418C22.9166 12.144 18.2531 13.543 12.5 13.543C6.74686 13.543 2.08331 12.144 2.08331 10.418" stroke="#04A8BF" stroke-width="2" stroke-linecap="round" stroke-linejoin="round"/>
<path d="M12.5 8.33398C18.2529 8.33398 22.9166 6.93487 22.9166 5.20898C22.9166 3.48309 18.2529 2.08398 12.5 2.08398C6.74701 2.08398 2.08331 3.48309 2.08331 5.20898C2.08331 6.93487 6.74701 8.33398 12.5 8.33398Z" stroke="#04A8BF" stroke-width="2" stroke-linecap="round" stroke-linejoin="round"/>
</svg>
