<svg width="25" height="25" viewBox="0 0 25 25" fill="none" xmlns="http://www.w3.org/2000/svg">
<path d="M4.01788 16.0723C4.01788 13.1264 4.01788 11.6525 4.76346 10.7379C5.5082 9.82227 6.70842 9.82227 9.10717 9.82227H15.8929C18.2916 9.82227 19.4919 9.82227 20.2366 10.7379C20.9822 11.6525 20.9822 13.1264 20.9822 16.0723C20.9822 19.0181 20.9822 20.4921 20.2366 21.4066C19.4919 22.3223 18.2916 22.3223 15.8929 22.3223H9.10717C6.70842 22.3223 5.5082 22.3223 4.76346 21.4066C4.01788 20.4921 4.01788 19.0181 4.01788 16.0723Z" stroke="#04A8BF" stroke-width="2.5"/>
<path d="M6.69641 9.82059V8.03488C6.69641 6.61407 7.30786 5.25146 8.39624 4.24681C9.48462 3.24215 10.9608 2.67773 12.5 2.67773C14.0392 2.67773 15.5153 3.24215 16.6037 4.24681C17.6921 5.25146 18.3036 6.61407 18.3036 8.03488V9.82059" stroke="#04A8BF" stroke-width="2.5" stroke-linecap="round"/>
</svg>
