<svg width="25" height="25" viewBox="0 0 25 25" fill="none" xmlns="http://www.w3.org/2000/svg">
<path fill-rule="evenodd" clip-rule="evenodd" d="M14.874 2.24232C14.4886 2.08398 13.999 2.08398 13.0209 2.08398C12.0427 2.08398 11.5542 2.08398 11.1677 2.24232C10.9134 2.34622 10.6822 2.49938 10.4874 2.69299C10.2925 2.8866 10.1379 3.11683 10.0323 3.37044C9.9344 3.60273 9.8969 3.87461 9.88127 4.2694C9.87384 4.55534 9.79384 4.8347 9.6488 5.08123C9.50376 5.32776 9.29843 5.53338 9.05211 5.67878C8.8008 5.81847 8.5183 5.89247 8.23078 5.89393C7.94326 5.89538 7.66003 5.82425 7.40732 5.68711C7.05523 5.50169 6.80002 5.39961 6.54794 5.36628C5.99646 5.29432 5.43884 5.44252 4.99586 5.77878C4.66461 6.03086 4.41982 6.45169 3.93127 7.29232C3.44169 8.13294 3.19794 8.55273 3.14273 8.96419C3.06982 9.51211 3.21982 10.0663 3.5594 10.5048C3.71357 10.7048 3.93127 10.8725 4.26773 11.0829C4.76461 11.3923 5.08336 11.9194 5.08336 12.5007C5.08336 13.0819 4.76461 13.609 4.26877 13.9173C3.93127 14.1288 3.71357 14.2965 3.55836 14.4965C3.39124 14.7134 3.26851 14.9611 3.1972 15.2254C3.12588 15.4898 3.10737 15.7656 3.14273 16.0371C3.19794 16.4475 3.44169 16.8684 3.93127 17.709C4.42086 18.5496 4.66461 18.9694 4.99586 19.2225C5.43752 19.559 5.99586 19.7069 6.54794 19.635C6.80002 19.6017 7.05523 19.4996 7.40732 19.3142C7.66015 19.1769 7.94358 19.1056 8.2313 19.1071C8.51902 19.1085 8.80171 19.1827 9.05315 19.3225C9.5594 19.6142 9.8594 20.1507 9.88127 20.7319C9.8969 21.1277 9.9344 21.3986 10.0323 21.6309C10.2448 22.1413 10.6531 22.5475 11.1677 22.759C11.5531 22.9173 12.0427 22.9173 13.0209 22.9173C13.999 22.9173 14.4886 22.9173 14.874 22.759C15.1283 22.6551 15.3595 22.5019 15.5544 22.3083C15.7492 22.1147 15.9039 21.8845 16.0094 21.6309C16.1073 21.3986 16.1448 21.1277 16.1604 20.7319C16.1813 20.1507 16.4823 19.6132 16.9896 19.3225C17.2409 19.1828 17.5234 19.1088 17.8109 19.1074C18.0985 19.1059 18.3817 19.1771 18.6344 19.3142C18.9865 19.4996 19.2417 19.6017 19.4938 19.635C20.0459 19.7079 20.6042 19.559 21.0459 19.2225C21.3771 18.9704 21.6219 18.5496 22.1104 17.709C22.6 16.8684 22.8438 16.4486 22.899 16.0371C22.9342 15.7655 22.9155 15.4897 22.844 15.2253C22.7725 14.961 22.6496 14.7133 22.4823 14.4965C22.3281 14.2965 22.1104 14.1288 21.774 13.9184C21.2771 13.609 20.9584 13.0819 20.9584 12.5007C20.9584 11.9194 21.2771 11.3923 21.7729 11.084C22.1104 10.8725 22.3281 10.7048 22.4834 10.5048C22.6505 10.2879 22.7732 10.0402 22.8445 9.77588C22.9158 9.51152 22.9343 9.2357 22.899 8.96419C22.8438 8.55378 22.6 8.13294 22.1104 7.29232C21.6209 6.45169 21.3771 6.0319 21.0459 5.77878C20.6029 5.44252 20.0453 5.29432 19.4938 5.36628C19.2417 5.39961 18.9865 5.50169 18.6344 5.68711C18.3816 5.82443 18.0981 5.89567 17.8104 5.89421C17.5227 5.89276 17.24 5.81865 16.9886 5.67878C16.7424 5.53326 16.5373 5.32758 16.3925 5.08106C16.2476 4.83453 16.1678 4.55524 16.1604 4.2694C16.1448 3.87357 16.1073 3.60273 16.0094 3.37044C15.9039 3.11683 15.7492 2.8866 15.5544 2.69299C15.3595 2.49938 15.1283 2.34622 14.874 2.24232ZM13.0209 15.6257C14.7604 15.6257 16.1698 14.2267 16.1698 12.5007C16.1698 10.7746 14.7594 9.37565 13.0209 9.37565C11.2823 9.37565 9.8719 10.7746 9.8719 12.5007C9.8719 14.2267 11.2823 15.6257 13.0209 15.6257Z" fill="#04A8BF"/>
</svg>
