<svg width="25" height="25" viewBox="0 0 25 25" fill="none" xmlns="http://www.w3.org/2000/svg">
<path d="M3.12498 12.5007C7.81248 12.5007 12.5 7.81315 12.5 3.12565C12.5 7.81315 17.1875 12.5007 21.875 12.5007C17.1875 12.5007 12.5 17.1882 12.5 21.8757C12.5 17.1882 7.81248 12.5007 3.12498 12.5007ZM2.08331 20.3132C2.95102 20.3132 4.68748 18.5767 4.68748 17.709C4.68748 18.5767 6.42394 20.3132 7.29165 20.3132C6.42394 20.3132 4.68748 22.0496 4.68748 22.9173C4.68748 22.0496 2.95102 20.3132 2.08331 20.3132ZM16.6666 5.20898C17.7083 5.20898 19.7916 3.12565 19.7916 2.08398C19.7916 3.12565 21.875 5.20898 22.9166 5.20898C21.875 5.20898 19.7916 7.29232 19.7916 8.33398C19.7916 7.29232 17.7083 5.20898 16.6666 5.20898Z" fill="#04A8BF"/>
</svg>
