<svg width="84" height="28" viewBox="0 0 84 28" fill="none" xmlns="http://www.w3.org/2000/svg">
<g clip-path="url(#clip0_1041_4124)">
<path d="M0.076355 14.5371C0.0763552 14.2038 0.0763552 13.8705 0.095206 13.4796C0.173961 12.9379 0.255922 12.4552 0.285879 11.9693C0.305287 11.6545 0.248712 11.3349 0.23165 10.9906C0.252637 10.8555 0.268157 10.7471 0.308413 10.6227C0.352701 10.3362 0.372252 10.0657 0.389301 9.76952C0.402511 9.65963 0.418224 9.57549 0.460997 9.47673C0.510086 9.2254 0.532115 8.98868 0.553864 8.72854C0.567123 8.66094 0.580661 8.61674 0.619053 8.56127C0.660338 8.4039 0.676769 8.25781 0.6915 8.08557C0.709942 7.9753 0.730086 7.89116 0.777348 7.79322C0.8219 7.64466 0.839333 7.5099 0.857278 7.35132C0.873395 7.28319 0.889 7.2389 0.929969 7.18654C0.971838 7.05631 0.988343 6.93415 1.00338 6.78691C1.01453 6.73107 1.02715 6.70031 1.06544 6.65998C1.12002 6.51032 1.14892 6.37022 1.17811 6.20596C1.19921 6.13852 1.22002 6.09524 1.26427 6.05079C1.29545 5.97226 1.30321 5.8949 1.31175 5.79308C1.33928 5.71 1.36602 5.65137 1.42066 5.58674C1.46357 5.49293 1.47858 5.40513 1.49406 5.29667C1.50897 5.25333 1.52341 5.23064 1.56517 5.2044C1.66267 4.98561 1.73284 4.77035 1.80483 4.53417C1.82239 4.4909 1.83814 4.46855 1.88083 4.44186C1.92075 4.37289 1.93372 4.30827 1.94822 4.22308C1.96548 4.18076 1.9812 4.159 2.02432 4.13314C2.06558 4.06429 2.07945 3.99953 2.09583 3.91431C2.11519 3.8729 2.13205 3.85195 2.17594 3.82772C2.22187 3.76153 2.24076 3.69864 2.26322 3.61502C2.28385 3.57279 2.3009 3.55128 2.3435 3.52665C2.38797 3.46317 2.40687 3.40282 2.4325 3.31729C2.79463 2.83055 3.10751 2.3269 3.51334 1.91521C4.79981 0.610171 6.33799 0.619799 7.64666 1.89627C8.52974 2.75762 9.08187 3.82619 9.54358 4.94898C9.72324 5.3859 9.87608 5.8339 10.0777 6.375C10.1792 6.0662 10.2422 5.86503 10.3112 5.6659C10.789 4.28583 11.3913 2.97267 12.4434 1.92538C13.7689 0.605969 15.3236 0.610316 16.6383 1.93412C17.6456 2.94847 18.24 4.20883 18.7135 5.53562C18.795 5.76378 18.8776 5.9915 18.9914 6.30732C19.0804 6.13612 19.1272 6.06521 19.156 5.98762C19.316 5.55715 19.4541 5.11763 19.6324 4.69501C20.0696 3.6582 20.6075 2.67895 21.4253 1.88788C22.1229 1.213 22.9304 0.804842 23.9384 0.988811C24.6302 1.11506 25.1616 1.52369 25.6575 2.01666C25.7064 2.07812 25.7538 2.11536 25.8059 2.14841C25.8106 2.14423 25.802 2.15338 25.8027 2.17762C25.851 2.23929 25.8986 2.27671 25.9599 2.3347C26.0754 2.48646 26.1772 2.61765 26.2792 2.77321C26.3219 2.83965 26.3644 2.88174 26.4184 2.94502C26.4809 3.04702 26.5319 3.12784 26.583 3.23556C26.6767 3.40493 26.7702 3.5474 26.873 3.70985C26.8969 3.75524 26.9116 3.78064 26.921 3.82964C26.9511 3.89921 26.9865 3.9452 27.0319 4.01155C27.0567 4.05835 27.0715 4.08479 27.0795 4.13441C27.1054 4.20523 27.138 4.25285 27.1793 4.32073C27.2014 4.36692 27.2149 4.39286 27.2236 4.44672C27.9263 6.2245 28.4293 8.03052 28.6552 9.91266C28.6978 9.91731 28.7405 9.92195 28.7831 9.92659C28.8486 9.69732 28.914 9.46805 28.9919 9.21735C29.0223 9.14995 29.0403 9.10398 29.0809 9.0458C29.1672 8.84809 29.2308 8.66259 29.3058 8.45921C29.3311 8.41682 29.3451 8.39229 29.3814 8.35592C29.4243 8.26387 29.4449 8.18368 29.4781 8.08615C29.5002 8.04183 29.5095 8.01483 29.5407 7.97903C29.5801 7.91205 29.5977 7.85388 29.6288 7.77894C29.6535 7.7358 29.6647 7.70944 29.6979 7.67485C29.7388 7.60945 29.7577 7.55227 29.7866 7.48393C29.7966 7.47277 29.8089 7.44539 29.8316 7.43677C29.8695 7.36912 29.8847 7.31009 29.9125 7.23366C29.9406 7.19231 29.9562 7.16836 29.9936 7.13511C30.0332 7.06778 30.0508 7.00975 30.0772 6.93933C30.0858 6.92694 30.101 6.90074 30.1248 6.89654C30.1719 6.83503 30.1952 6.77772 30.2335 6.70158C30.299 6.60033 30.3493 6.51792 30.4235 6.43154C30.4699 6.37089 30.4926 6.3142 30.5303 6.23842C30.5983 6.13813 30.6513 6.05693 30.7283 5.9724C30.7796 5.91436 30.807 5.85965 30.8507 5.78617C30.967 5.63427 31.067 5.50115 31.1909 5.36454C31.2426 5.30604 31.2702 5.25102 31.3155 5.17799C32.4148 3.88801 33.6439 2.79119 35.1328 1.9784C35.2025 1.94342 35.2475 1.90402 35.3077 1.84996C35.3488 1.82443 35.3746 1.81356 35.4259 1.81024C35.4978 1.77674 35.5443 1.73569 35.6063 1.67996C35.6486 1.65694 35.6755 1.6486 35.727 1.65051C35.8005 1.62242 35.8494 1.58407 35.9137 1.53137C35.9558 1.50836 35.9825 1.4997 36.0337 1.50099C36.1074 1.47291 36.1564 1.43487 36.2211 1.38277C36.2633 1.35991 36.2898 1.3511 36.3453 1.35062C36.5295 1.30696 36.6888 1.26489 36.8388 1.20102C37.1924 1.05054 37.5415 0.889671 37.9139 0.722519C37.967 0.707666 37.9985 0.703299 38.0487 0.716863C38.3605 0.636912 38.6537 0.539032 38.9645 0.431487C39.0085 0.418923 39.035 0.416023 39.0928 0.426695C39.3196 0.389906 39.5151 0.339544 39.7395 0.279835C39.9775 0.255113 40.1865 0.239739 40.4153 0.245106C40.7531 0.203273 41.0711 0.140699 41.3891 0.078125C41.8743 0.0781249 42.3596 0.0781249 42.9036 0.0940865C43.4844 0.188837 44.01 0.249442 44.5275 0.351049C45.1651 0.476225 45.796 0.635555 46.449 0.789881C46.4962 0.806301 46.5242 0.812965 46.5657 0.841217C46.7657 0.918764 46.9521 0.974724 47.1598 1.04342C47.2268 1.07542 47.2724 1.0947 47.3279 1.136C47.3985 1.16733 47.4592 1.17664 47.5393 1.19566C47.5855 1.21626 47.6123 1.22716 47.6443 1.26201C47.7091 1.29911 47.7687 1.31224 47.8481 1.33609C47.8949 1.3599 47.9219 1.37299 47.9549 1.41156C48.0416 1.45913 48.1221 1.48123 48.2163 1.51149C48.23 1.51965 48.2575 1.53578 48.2635 1.56121C48.3498 1.60817 48.43 1.62971 48.5242 1.65987C48.5381 1.66849 48.566 1.68584 48.5701 1.70957C48.6311 1.7506 48.688 1.7679 48.7634 1.79728C48.8077 1.82352 48.8336 1.83768 48.8637 1.87599C48.9265 1.9206 48.985 1.94105 49.0607 1.9737C49.103 1.99882 49.128 2.01174 49.1589 2.04794C49.2225 2.09231 49.2802 2.1134 49.3492 2.14445C49.3605 2.15441 49.3875 2.16776 49.3947 2.19076C49.4595 2.2339 49.517 2.25405 49.5872 2.28276C49.5998 2.29132 49.6252 2.30819 49.6286 2.33239C49.6883 2.38194 49.7447 2.40729 49.8198 2.4475C49.9181 2.5157 49.9976 2.56904 50.081 2.64648C50.1411 2.69613 50.1974 2.72168 50.2727 2.76322C50.4247 2.8786 50.5578 2.97799 50.6935 3.10163C50.7496 3.15609 50.8031 3.18629 50.8746 3.23443C53.0306 4.99452 54.4805 7.21778 55.4045 9.89851C55.4688 9.75723 55.4917 9.72752 55.4955 9.69554C55.6771 8.14952 56.048 6.64912 56.606 5.19791C57.0415 4.06539 57.5847 2.99256 58.417 2.08715C59.7833 0.600878 61.4226 0.553252 62.8275 1.99522C63.9001 3.09612 64.4844 4.47757 64.9817 5.90248C65.0195 6.01068 65.0739 6.11305 65.1285 6.2361C65.1923 6.17718 65.2203 6.16353 65.2277 6.14257C65.3036 5.92755 65.3726 5.71005 65.4502 5.49569C65.9302 4.1707 66.5277 2.91019 67.5419 1.90119C68.8227 0.626783 70.3849 0.59398 71.647 1.89001C72.2056 2.46368 72.6708 3.15644 73.0592 3.86108C73.4763 4.61773 73.7535 5.45181 74.1128 6.30193C74.282 5.83517 74.4275 5.38273 74.6082 4.9449C75.1114 3.72597 75.7136 2.56655 76.7341 1.68707C77.8877 0.693025 79.237 0.692851 80.3979 1.68249C81.0352 2.22572 81.5156 2.89249 81.8843 3.6632C81.9181 3.73667 81.9601 3.78417 82.0181 3.84486C82.0421 3.88424 82.0499 3.91043 82.0469 3.96208C82.0753 4.03769 82.1146 4.08782 82.1693 4.15184C82.1913 4.19231 82.1979 4.21891 82.1938 4.27061C82.2208 4.34619 82.2584 4.39666 82.3144 4.46773C82.4047 4.67586 82.4766 4.86338 82.5307 5.06223C82.5465 5.1185 82.58 5.16346 82.6303 5.2269C82.6608 5.29308 82.6746 5.34077 82.6721 5.41098C82.6897 5.48682 82.7235 5.54015 82.7719 5.6132C82.8045 5.69467 82.8225 5.75641 82.8223 5.83589C82.8477 5.94241 82.8913 6.03119 82.9503 6.13962C82.9754 6.20804 82.9852 6.2568 82.9779 6.33116C83.0004 6.43203 83.0399 6.50732 83.0952 6.60426C83.1268 6.71299 83.1427 6.80005 83.1391 6.90266C83.1699 7.03913 83.2201 7.16006 83.2824 7.30644C83.3009 7.38747 83.3075 7.44306 83.2944 7.51265C83.3233 7.64883 83.372 7.77099 83.4321 7.91887C83.4486 8.00042 83.4536 8.05624 83.4389 8.12963C83.465 8.28881 83.5108 8.4304 83.5689 8.59515C83.5917 8.70449 83.6022 8.79068 83.5923 8.8967C83.6203 9.10802 83.6687 9.29952 83.7281 9.51634C83.7483 9.65149 83.7576 9.76132 83.7452 9.89155C83.7742 10.1798 83.8249 10.4477 83.885 10.744C83.9047 10.9562 83.915 11.14 83.9015 11.3448C83.9439 12.066 84.0101 12.766 84.0764 13.4661C84.0764 13.7994 84.0764 14.1327 84.0549 14.5216C83.9714 15.2114 83.9066 15.8453 83.8514 16.4801C83.8458 16.5439 83.8985 16.6128 83.9202 16.7122C83.8482 17.3943 83.8325 18.0545 83.7011 18.6907C83.4518 19.8975 83.1945 21.1085 82.833 22.2846C82.409 23.664 81.7871 24.9656 80.7783 26.0322C79.9494 26.9086 78.9817 27.4244 77.741 26.9929C77.0233 26.7433 76.4813 26.2422 76.0179 25.6535C75.3108 24.7552 74.8145 23.7438 74.4353 22.6702C74.3332 22.3813 74.2242 22.0949 74.0945 21.7424C73.833 22.4207 73.6263 23.0179 73.3748 23.5955C72.9457 24.5808 72.417 25.5101 71.6164 26.2465C70.8239 26.9756 69.9127 27.4147 68.8354 26.9906C68.3538 26.8009 67.886 26.4875 67.5133 26.1255C66.38 25.0249 65.7863 23.6022 65.2945 22.1321C65.263 22.0379 65.2163 21.9488 65.1339 21.7586C64.9061 22.366 64.7379 22.8678 64.5317 23.3535C64.0309 24.5336 63.4177 25.643 62.403 26.471C61.3515 27.3291 60.1823 27.4111 59.1168 26.5819C58.5577 26.1468 58.0618 25.5832 57.6683 24.9904C56.5746 23.3427 56.0573 21.4636 55.6718 19.5456C55.5864 19.1207 55.5249 18.691 55.4331 18.1498C55.3279 18.4098 55.2625 18.559 55.2064 18.7117C54.7433 19.9716 54.1282 21.149 53.3399 22.2374C52.1034 23.9446 50.5447 25.2817 48.6967 26.3185C48.6238 26.3534 48.5745 26.3889 48.5044 26.4265C48.4614 26.4447 48.4391 26.4606 48.3891 26.4763C48.1888 26.5653 48.0163 26.6545 47.8245 26.7519C47.783 26.7769 47.7608 26.7938 47.7104 26.8063C47.3876 26.9141 47.0987 27.0451 46.7976 27.135C46.0042 27.3719 45.2054 27.5908 44.3775 27.8158C43.9715 27.8579 43.5968 27.901 43.2016 27.9249C42.9155 27.912 42.6496 27.9259 42.3839 27.9236C41.6883 27.9178 40.9927 27.9049 40.2754 27.8901C40.2244 27.8819 40.1951 27.8785 40.1526 27.8538C40.0465 27.8306 39.9536 27.8286 39.8405 27.8211C39.7924 27.8126 39.7647 27.8096 39.7211 27.784C39.5966 27.7571 39.4879 27.7527 39.3578 27.7426C39.3075 27.7316 39.2785 27.7262 39.2439 27.7009C39.1914 27.6814 39.1445 27.6818 39.0776 27.6746C39.0298 27.6618 39.0019 27.6566 38.9612 27.6299C38.7945 27.5836 38.6407 27.5588 38.4672 27.5248C38.4195 27.5094 38.3914 27.5031 38.3488 27.4747C37.9698 27.3471 37.6054 27.2415 37.216 27.1251C37.1239 27.086 37.0569 27.058 36.9774 27.0079C36.8022 26.9344 36.6396 26.8828 36.453 26.8186C36.2841 26.7322 36.1392 26.6584 35.984 26.5626C35.9143 26.5288 35.8548 26.5169 35.773 26.4901C32.3215 24.6731 30.026 21.8947 28.7591 18.2245C28.5048 19.3398 28.2989 20.4096 28.0129 21.4575C27.6058 22.9488 27.0204 24.3665 26.0693 25.6088C24.5451 27.5998 22.6537 27.6631 21.0332 25.7606C20.1356 24.7068 19.607 23.4561 19.1712 22.1595C19.136 22.0548 19.0819 21.9564 19.0366 21.855C18.865 22.1083 18.7893 22.3468 18.7031 22.5815C18.2041 23.9399 17.5972 25.2355 16.5241 26.2507C15.2572 27.4493 13.7869 27.4426 12.5221 26.2389C11.8209 25.5715 11.3098 24.7691 10.917 23.8939C10.6135 23.2176 10.3559 22.5205 10.0534 21.772C9.98538 21.934 9.93168 22.0547 9.88375 22.1776C9.667 22.7334 9.48308 23.3046 9.22957 23.843C8.7279 24.9084 8.12282 25.9074 7.13804 26.6097C6.13818 27.3228 5.04028 27.3357 4.0542 26.6228C3.74821 26.4016 3.48941 26.1148 3.20778 25.8337C3.15971 25.771 3.11286 25.7327 3.05182 25.6738C2.93797 25.5205 2.83833 25.3877 2.73879 25.2305C2.69725 25.1632 2.6556 25.1202 2.60644 25.0643C2.59894 25.0514 2.58064 25.0279 2.58375 25.0043C2.54735 24.9348 2.50784 24.8889 2.46214 24.8295C2.45595 24.816 2.43562 24.7941 2.43722 24.7704C2.40216 24.6999 2.36551 24.6532 2.32075 24.5869C2.29751 24.5437 2.28238 24.52 2.26933 24.4721C2.23496 24.4012 2.19851 24.3545 2.15283 24.2882C2.12807 24.2445 2.11256 24.2204 2.09955 24.1686C1.975 23.8878 1.84794 23.6346 1.71505 23.3609C1.69586 23.3155 1.6825 23.2906 1.67186 23.2358C1.48934 22.7027 1.3041 22.1996 1.11349 21.6698C1.08223 21.5759 1.05635 21.5086 1.03742 21.4103C0.914091 20.8735 0.783814 20.3676 0.651816 19.841C0.642701 19.7935 0.635305 19.7668 0.643507 19.7203C0.606534 19.4991 0.553964 19.2978 0.500523 19.0759C0.493599 19.0286 0.487547 19.0019 0.498631 18.9529C0.437971 18.4869 0.360172 18.0432 0.281402 17.5766C0.276166 17.5235 0.271903 17.4933 0.280529 17.4368C0.273753 17.3197 0.254088 17.2287 0.234293 17.1069C0.225419 16.9735 0.216676 16.8711 0.223418 16.7358C0.231249 16.4401 0.223594 16.1772 0.239743 15.8969C0.251068 15.5689 0.251973 15.2569 0.220097 14.9483C0.205582 14.8078 0.126274 14.674 0.076355 14.5371ZM44.938 16.2287C44.9492 15.885 44.9466 15.54 44.9765 15.1979C44.9981 14.9501 44.9011 14.8992 44.6736 14.9002C42.9441 14.9083 41.2146 14.9102 39.4852 14.8988C39.2218 14.897 39.1601 14.9836 39.1768 15.2296C39.2375 16.119 39.2576 17.0117 39.3371 17.8991C39.5375 20.1361 39.8684 22.3528 40.716 24.4489C40.9497 25.0267 41.3167 25.5607 41.6851 26.0694C41.9056 26.374 42.2053 26.3487 42.4724 26.0757C42.6657 25.8783 42.8736 25.6617 42.9742 25.4127C43.3589 24.4616 43.7712 23.5132 44.0477 22.5284C44.6181 20.4969 44.8076 18.4007 44.938 16.2287ZM39.7934 6.85783C39.3962 8.94496 39.2118 11.0504 39.177 13.1767C41.1413 13.1767 43.0312 13.1767 44.969 13.1767C44.969 13.0243 44.9755 12.8882 44.9679 12.7529C44.9204 11.901 44.8916 11.0473 44.8156 10.1978C44.6292 8.11409 44.337 6.04429 43.5987 4.07533C43.3392 3.38339 42.9641 2.72248 42.5581 2.10247C42.2751 1.67036 41.9213 1.69578 41.5844 2.09769C41.3506 2.37669 41.1503 2.69365 40.9856 3.01931C40.3833 4.20996 40.082 5.49898 39.7934 6.85783ZM33.9203 12.8792C33.8646 13.1544 34.0144 13.1975 34.2453 13.1955C35.1485 13.1875 36.0517 13.1915 36.955 13.1918C37.4697 13.192 37.4694 13.1926 37.4833 12.6796C37.556 9.99696 37.8383 7.34138 38.5564 4.74796C38.7577 4.02105 39.0267 3.31294 39.268 2.58614C39.2334 2.59376 39.1954 2.59332 39.1673 2.6098C39.0251 2.6931 38.8814 2.7749 38.7455 2.86785C36.7138 4.25741 35.5434 6.27433 34.7506 8.5271C34.266 9.90382 33.9998 11.3447 33.9203 12.8792ZM46.6739 12.9296C46.6627 13.1579 46.7958 13.1963 46.99 13.1951C47.9693 13.1893 48.9488 13.1859 49.9281 13.1967C50.1874 13.1996 50.248 13.1073 50.2334 12.8577C50.1298 11.0837 49.7418 9.37225 49.0869 7.72614C48.4003 6.00014 47.4188 4.46884 45.9637 3.2823C45.6317 3.01153 45.2613 2.78796 44.9067 2.54137C45.2421 3.66886 45.6182 4.72541 45.8666 5.81129C46.3964 8.12722 46.6322 10.4841 46.6739 12.9296ZM47.766 14.9043C47.5499 14.9042 47.3319 14.9222 47.1181 14.8998C46.7782 14.8642 46.6677 14.972 46.6608 15.3375C46.6092 18.057 46.3112 20.7478 45.5872 23.3769C45.3936 24.0802 45.1265 24.7631 44.8937 25.4556C47.3017 24.9566 50.3061 19.0507 50.2214 14.9043C49.4309 14.9043 48.6365 14.9043 47.766 14.9043ZM34.0472 16.5001C34.251 17.9428 34.6106 19.343 35.1981 20.6791C35.9782 22.4535 37.0381 24.0135 38.6465 25.1459C38.8334 25.2775 39.0384 25.383 39.2852 25.5307C39.2685 25.4103 39.2713 25.372 39.2577 25.3409C38.5725 23.7798 38.159 22.1384 37.9538 20.4565C37.7413 18.7148 37.6291 16.9606 37.4832 15.2111C37.4671 15.0183 37.4455 14.8997 37.2134 14.9012C36.1964 14.9077 35.1792 14.9044 34.1621 14.9021C33.97 14.9017 33.8889 14.9677 33.9161 15.1786C33.9698 15.595 33.9995 16.0145 34.0472 16.5001ZM53.9373 11.1078C53.1705 8.16434 51.5761 5.79791 49.0547 4.07673C49.1902 4.3666 49.3826 4.61888 49.5477 4.88794C51.0022 7.25802 51.7181 9.85868 51.9358 12.613C51.9816 13.1933 51.9794 13.1933 52.5689 13.193C53.1216 13.1928 53.6742 13.193 54.2973 13.193C54.1744 12.4683 54.0642 11.8186 53.9373 11.1078ZM30.593 13.193C30.9615 13.1929 31.3328 13.1644 31.6977 13.2007C32.0789 13.2386 32.1906 13.1107 32.2155 12.7279C32.3849 10.1318 33.0364 7.66752 34.307 5.38435C34.5476 4.95202 34.8122 4.53311 35.1018 4.04758C32.6571 5.12678 29.4862 10.8086 29.9631 13.193C30.1441 13.193 30.3322 13.193 30.593 13.193ZM51.1004 19.7808C50.6441 21.2585 49.9683 22.6312 49.0545 23.9407C51.2077 23.4089 54.4304 17.7359 54.2137 14.903C53.6003 14.903 52.9804 14.9221 52.3625 14.8952C52.0383 14.8811 51.9583 14.9957 51.9397 15.3027C51.8486 16.8086 51.5925 18.2868 51.1004 19.7808ZM34.7462 23.8429C34.8344 23.8825 34.9227 23.9221 35.0978 24.0007C34.9892 23.8235 34.9386 23.7372 34.8844 23.6532C34.2 22.5929 33.6326 21.475 33.2133 20.2823C32.64 18.6511 32.3104 16.9717 32.1934 15.2475C32.1855 15.1307 32.095 14.9227 32.0376 14.9208C31.3326 14.8982 30.6266 14.9061 29.8969 14.9061C29.9889 16.1832 30.2497 17.3566 30.6937 18.4858C31.5369 20.6305 32.8855 22.3978 34.7462 23.8429Z" fill="#5D6BFF"/>
<path d="M44.4182 0.078125C44.5991 0.157938 44.7469 0.262919 44.9114 0.312849C45.4061 0.463035 45.9073 0.591771 46.4179 0.7545C45.796 0.635555 45.1651 0.476225 44.5275 0.351049C44.01 0.249442 43.4844 0.188837 42.9394 0.0940866C43.1984 0.0781251 43.4804 0.0781251 43.8133 0.104034C44.0064 0.112671 44.1487 0.095398 44.2909 0.0781251C44.3248 0.0781251 44.3588 0.0781251 44.4182 0.078125Z" fill="#5D6BFF"/>
<path d="M40.9667 28.0762C40.7301 28.0301 40.5293 27.984 40.3127 27.9154C40.9927 27.903 41.6883 27.9158 42.3839 27.9217C42.6496 27.924 42.9155 27.9101 43.2017 27.923C43.1994 27.9738 43.1767 28.0053 43.1498 28.0565C42.4311 28.0762 41.7168 28.0762 40.9667 28.0762Z" fill="#5D6BFF"/>
<path d="M0.076355 11.4326C0.108214 11.2755 0.140074 11.1544 0.199058 11.0234C0.248712 11.3311 0.305287 11.6506 0.285879 11.9654C0.255922 12.4514 0.173961 12.9341 0.0952058 13.4402C0.076355 12.7976 0.076355 12.133 0.076355 11.4326Z" fill="#5D6BFF"/>
<path d="M83.9015 11.3438C83.9613 11.3449 83.9972 11.3672 84.0548 11.3945C84.0763 12.0641 84.0763 12.7287 84.0763 13.4292C84.0101 12.765 83.9439 12.0649 83.9015 11.3438Z" fill="#5D6BFF"/>
<path d="M84.0764 16.5644C84.0404 16.6239 84.0044 16.6476 83.9463 16.6741C83.8985 16.6103 83.8458 16.5415 83.8514 16.4776C83.9066 15.8429 83.9714 15.2089 84.0549 14.5547C84.0764 15.1993 84.0764 15.8639 84.0764 16.5644Z" fill="#5D6BFF"/>
<path d="M0.076355 14.5703C0.126274 14.6716 0.205582 14.8054 0.220097 14.9459C0.251973 15.2545 0.251068 15.5665 0.220193 15.8791C0.143345 15.7893 0.10985 15.6976 0.0763553 15.6058C0.0763552 15.2725 0.0763552 14.9392 0.076355 14.5703Z" fill="#5D6BFF"/>
<path d="M40.4153 0.245106C40.4161 0.188817 40.4366 0.153269 40.465 0.0979228C40.7547 0.0781249 41.0367 0.0781249 41.3539 0.078125C41.0711 0.140699 40.7531 0.203273 40.4153 0.245106Z" fill="#5D6BFF"/>
<path d="M0.0763551 15.6406C0.10985 15.6967 0.143345 15.7885 0.196389 15.8957C0.223594 16.174 0.231249 16.4368 0.201228 16.7359C0.134487 16.7655 0.105421 16.759 0.076355 16.7525C0.076355 16.3938 0.076355 16.035 0.0763551 15.6406Z" fill="#5D6BFF"/>
<path d="M0.076355 16.7859C0.105421 16.759 0.134487 16.7655 0.185742 16.7687C0.216675 16.8678 0.225419 16.9703 0.215865 17.1204C0.157163 17.2081 0.116759 17.248 0.0763551 17.288C0.076355 17.1318 0.076355 16.9756 0.076355 16.7859Z" fill="#5D6BFF"/>
<path d="M0.076355 17.3145C0.116759 17.249 0.157163 17.2091 0.215995 17.1523C0.254088 17.2265 0.273753 17.3174 0.280529 17.4346C0.217496 17.4422 0.167352 17.4236 0.0967817 17.4235C0.0763549 17.408 0.0763549 17.374 0.076355 17.3145Z" fill="#5D6BFF"/>
<path d="M44.2582 0.078125C44.1487 0.0953979 44.0064 0.112671 43.8484 0.104034C43.9636 0.078125 44.0945 0.078125 44.2582 0.078125Z" fill="#5D6BFF"/>
<path d="M27.2236 4.44531C27.4534 4.94531 27.735 5.45696 27.8917 6.00449C28.2274 7.17816 28.4987 8.37036 28.7945 9.54728C28.8247 9.48339 28.8786 9.36976 28.9559 9.24675C28.914 9.46664 28.8486 9.69591 28.7831 9.92519C28.7405 9.92054 28.6978 9.9159 28.6552 9.91126C28.4293 8.02912 27.9263 6.2231 27.2236 4.44531Z" fill="#5D6BFF"/>
<path d="M47.7104 26.8047C47.1656 27.0475 46.6045 27.3229 46.0159 27.5128C45.5192 27.6731 44.9906 27.7342 44.4424 27.8272C45.2055 27.5892 46.0042 27.3703 46.7976 27.1334C47.0988 27.0436 47.3876 26.9125 47.7104 26.8047Z" fill="#5D6BFF"/>
<path d="M1.03744 21.4076C0.896755 20.9331 0.763017 20.4277 0.641418 19.8906C0.783836 20.3649 0.914114 20.8707 1.03744 21.4076Z" fill="#5D6BFF"/>
<path d="M36.3453 1.34884C36.8231 1.13171 37.3298 0.922896 37.8645 0.722656C37.5415 0.887897 37.1924 1.04877 36.8388 1.19924C36.6888 1.26311 36.5295 1.30518 36.3453 1.34884Z" fill="#5D6BFF"/>
<path d="M1.67187 23.2333C1.47827 22.7593 1.2874 22.2554 1.1077 21.7227C1.30411 22.1971 1.48935 22.7002 1.67187 23.2333Z" fill="#5D6BFF"/>
<path d="M0.498658 18.9499C0.401522 18.5274 0.321523 18.0827 0.261963 17.6172C0.360199 18.0402 0.437998 18.4839 0.498658 18.9499Z" fill="#5D6BFF"/>
<path d="M38.3488 27.4719C37.9967 27.3891 37.6301 27.2842 37.2522 27.1562C37.6054 27.2387 37.9698 27.3443 38.3488 27.4719Z" fill="#5D6BFF"/>
<path d="M0.308415 10.6207C0.308039 10.3711 0.33262 10.1053 0.374876 9.81641C0.372824 10.0637 0.353098 10.3342 0.308415 10.6207Z" fill="#5D6BFF"/>
<path d="M38.0486 0.714879C38.3217 0.602097 38.6134 0.507245 38.926 0.425781C38.6537 0.537049 38.3605 0.634929 38.0486 0.714879Z" fill="#5D6BFF"/>
<path d="M83.7452 9.89062C83.8128 10.1359 83.8587 10.4015 83.8901 10.6909C83.8249 10.4468 83.7742 10.1789 83.7452 9.89062Z" fill="#5D6BFF"/>
<path d="M2.09958 24.1656C1.96617 23.9402 1.83528 23.6871 1.71265 23.4062C1.84797 23.6317 1.97503 23.8848 2.09958 24.1656Z" fill="#5D6BFF"/>
<path d="M0.460999 9.47663C0.462822 9.25916 0.491946 9.02709 0.538023 8.77344C0.532751 8.98857 0.510525 9.2253 0.460999 9.47663Z" fill="#5D6BFF"/>
<path d="M0.643519 19.7175C0.577366 19.5436 0.526811 19.3499 0.488831 19.125C0.553976 19.2951 0.606546 19.4964 0.643519 19.7175Z" fill="#5D6BFF"/>
<path d="M39.0928 0.425497C39.2641 0.360913 39.4667 0.309902 39.69 0.273438C39.515 0.338346 39.3196 0.388708 39.0928 0.425497Z" fill="#5D6BFF"/>
<path d="M83.5923 8.89453C83.6565 9.06502 83.7003 9.25532 83.7306 9.46724C83.6687 9.29736 83.6203 9.10585 83.5923 8.89453Z" fill="#5D6BFF"/>
<path d="M48.3891 26.4766C48.2449 26.5733 48.0729 26.6698 47.8724 26.7552C48.0163 26.6548 48.1888 26.5656 48.3891 26.4766Z" fill="#5D6BFF"/>
<path d="M1.56519 5.20226C1.61091 4.99715 1.68396 4.7885 1.78002 4.56641C1.73286 4.76821 1.66268 4.98347 1.56519 5.20226Z" fill="#5D6BFF"/>
<path d="M46.5657 0.839844C46.74 0.873121 46.9278 0.927987 47.1271 1.00608C46.9521 0.973352 46.7657 0.917392 46.5657 0.839844Z" fill="#5D6BFF"/>
<path d="M29.0809 9.04484C29.1204 8.8689 29.1825 8.68077 29.2695 8.48438C29.2308 8.66162 29.1672 8.84713 29.0809 9.04484Z" fill="#5D6BFF"/>
<path d="M26.5831 3.23438C26.6783 3.34947 26.7736 3.49147 26.8663 3.66107C26.7702 3.54621 26.6767 3.40375 26.5831 3.23438Z" fill="#5D6BFF"/>
<path d="M36.9774 27.005C36.8259 26.9763 36.6618 26.9256 36.4874 26.8516C36.6396 26.8799 36.8022 26.9315 36.9774 27.005Z" fill="#5D6BFF"/>
<path d="M83.439 8.12891C83.4995 8.25125 83.5403 8.39117 83.5689 8.55118C83.5108 8.42967 83.4651 8.28808 83.439 8.12891Z" fill="#5D6BFF"/>
<path d="M0.619078 8.55679C0.615059 8.4263 0.636116 8.28453 0.67553 8.125C0.677309 8.25333 0.660731 8.39943 0.619078 8.55679Z" fill="#5D6BFF"/>
<path d="M38.9612 27.6285C38.8202 27.6282 38.6664 27.6065 38.4997 27.5586C38.6407 27.5574 38.7946 27.5822 38.9612 27.6285Z" fill="#5D6BFF"/>
<path d="M83.1392 6.90234C83.2035 7.00162 83.2484 7.11643 83.2819 7.25596C83.2202 7.15975 83.1699 7.03881 83.1392 6.90234Z" fill="#5D6BFF"/>
<path d="M0.929984 7.1862C0.926502 7.07772 0.94861 6.96116 0.988125 6.82812C0.988879 6.93381 0.972227 7.05597 0.929984 7.1862Z" fill="#5D6BFF"/>
<path d="M1.06546 6.65843C1.07267 6.5332 1.10555 6.3984 1.15814 6.24609C1.14894 6.36868 1.12004 6.50877 1.06546 6.65843Z" fill="#5D6BFF"/>
<path d="M0.777354 7.79156C0.774505 7.67283 0.799017 7.5403 0.840505 7.39062C0.839892 7.50824 0.822304 7.64299 0.777354 7.79156Z" fill="#5D6BFF"/>
<path d="M83.2944 7.51172C83.3581 7.61305 83.4022 7.72838 83.4334 7.86797C83.372 7.77005 83.3234 7.64789 83.2944 7.51172Z" fill="#5D6BFF"/>
<path d="M82.8223 5.83594C82.8757 5.90067 82.9109 5.98313 82.9405 6.0928C82.8913 6.03123 82.8477 5.94245 82.8223 5.83594Z" fill="#5D6BFF"/>
<path d="M40.1526 27.8509C40.0722 27.8709 39.9787 27.8696 39.8729 27.846C39.9536 27.8257 40.0465 27.8277 40.1526 27.8509Z" fill="#5D6BFF"/>
<path d="M39.7211 27.782C39.6281 27.8001 39.5193 27.7957 39.3948 27.7687C39.4879 27.7506 39.5966 27.7551 39.7211 27.782Z" fill="#5D6BFF"/>
<path d="M29.3814 8.35253C29.3766 8.27987 29.3943 8.19536 29.4391 8.10547C29.4455 8.18028 29.4246 8.26048 29.3814 8.35253Z" fill="#5D6BFF"/>
<path d="M47.955 1.41035C48.0282 1.40781 48.1075 1.43074 48.1948 1.47789C48.1221 1.48001 48.0416 1.45791 47.955 1.41035Z" fill="#5D6BFF"/>
<path d="M48.2635 1.55883C48.3362 1.55603 48.4148 1.57865 48.5019 1.62507C48.43 1.62732 48.3498 1.60579 48.2635 1.55883Z" fill="#5D6BFF"/>
<path d="M82.9779 6.32812C83.0272 6.37845 83.0594 6.45437 83.0855 6.55493C83.0399 6.50429 83.0004 6.42901 82.9779 6.32812Z" fill="#5D6BFF"/>
<path d="M1.26432 6.05194C1.251 5.98647 1.26133 5.91982 1.29154 5.83594C1.3036 5.89605 1.29578 5.97341 1.26432 6.05194Z" fill="#5D6BFF"/>
<path d="M1.42069 5.58696C1.41191 5.51082 1.43129 5.42866 1.47246 5.33203C1.47912 5.40535 1.46398 5.49315 1.42069 5.58696Z" fill="#5D6BFF"/>
<path d="M26.2792 2.77344C26.3225 2.7907 26.366 2.83233 26.4082 2.89901C26.3644 2.88197 26.3219 2.83988 26.2792 2.77344Z" fill="#5D6BFF"/>
<path d="M81.8843 3.66016C81.9288 3.68299 81.9653 3.7318 82.0019 3.80462C81.9601 3.78113 81.9181 3.73363 81.8843 3.66016Z" fill="#5D6BFF"/>
<path d="M2.17595 3.82696C2.17097 3.77152 2.19327 3.7128 2.23799 3.64453C2.24134 3.69788 2.22229 3.76078 2.17595 3.82696Z" fill="#5D6BFF"/>
<path d="M2.34352 3.52452C2.33889 3.47009 2.36004 3.41253 2.40386 3.34766C2.40746 3.40069 2.38838 3.46104 2.34352 3.52452Z" fill="#5D6BFF"/>
<path d="M50.6935 3.10156C50.7449 3.10712 50.7989 3.13693 50.8548 3.19158C50.8032 3.18623 50.7497 3.15602 50.6935 3.10156Z" fill="#5D6BFF"/>
<path d="M2.26933 24.4678C2.22904 24.4456 2.19083 24.3992 2.15735 24.3281C2.19851 24.3501 2.23496 24.3969 2.26933 24.4678Z" fill="#5D6BFF"/>
<path d="M2.43723 24.7679C2.39566 24.7457 2.35569 24.6998 2.3223 24.6289C2.36552 24.6506 2.40218 24.6974 2.43723 24.7679Z" fill="#5D6BFF"/>
<path d="M2.58378 25.004C2.5382 24.9823 2.49574 24.9369 2.46082 24.8672C2.50787 24.8887 2.54738 24.9345 2.58378 25.004Z" fill="#5D6BFF"/>
<path d="M2.73879 25.2298C2.69593 25.2117 2.65318 25.1692 2.61218 25.1016C2.6556 25.1195 2.69725 25.1625 2.73879 25.2298Z" fill="#5D6BFF"/>
<path d="M3.2078 25.8331C3.16193 25.8196 3.11484 25.7817 3.06689 25.7188C3.11289 25.732 3.15973 25.7704 3.2078 25.8331Z" fill="#5D6BFF"/>
<path d="M48.6967 26.3164C48.6723 26.359 48.6243 26.401 48.5507 26.4326C48.5745 26.3867 48.6238 26.3513 48.6967 26.3164Z" fill="#5D6BFF"/>
<path d="M35.984 26.5618C35.9335 26.573 35.8727 26.5622 35.8036 26.5278C35.8548 26.5161 35.9143 26.528 35.984 26.5618Z" fill="#5D6BFF"/>
<path d="M82.0469 3.96094C82.0906 3.9867 82.1234 4.03794 82.155 4.11299C82.1146 4.08668 82.0753 4.03655 82.0469 3.96094Z" fill="#5D6BFF"/>
<path d="M50.081 2.64453C50.1343 2.64549 50.1914 2.67056 50.2512 2.72044C50.1975 2.71973 50.1411 2.69418 50.081 2.64453Z" fill="#5D6BFF"/>
<path d="M48.5701 1.70799C48.6216 1.70249 48.6771 1.72072 48.7388 1.76129C48.688 1.76632 48.6311 1.74902 48.5701 1.70799Z" fill="#5D6BFF"/>
<path d="M35.1328 1.97387C35.1536 1.93252 35.1992 1.89559 35.2686 1.85938C35.2475 1.89948 35.2025 1.93889 35.1328 1.97387Z" fill="#5D6BFF"/>
<path d="M49.6286 2.33203C49.6822 2.33283 49.7391 2.35782 49.7986 2.40755C49.7447 2.40694 49.6883 2.38158 49.6286 2.33203Z" fill="#5D6BFF"/>
<path d="M39.244 27.7017C39.2024 27.7228 39.1553 27.7239 39.1028 27.704C39.1445 27.6826 39.1914 27.6822 39.244 27.7017Z" fill="#5D6BFF"/>
<path d="M49.3947 2.18796C49.4462 2.18421 49.505 2.20345 49.5691 2.24705C49.517 2.25126 49.4595 2.2311 49.3947 2.18796Z" fill="#5D6BFF"/>
<path d="M25.8027 2.17578C25.8498 2.18847 25.8977 2.22539 25.9458 2.28731C25.8986 2.27487 25.851 2.23745 25.8027 2.17578Z" fill="#5D6BFF"/>
<path d="M49.1589 2.04726C49.2125 2.04379 49.272 2.0636 49.3347 2.10861C49.2802 2.11273 49.2225 2.09163 49.1589 2.04726Z" fill="#5D6BFF"/>
<path d="M25.6575 2.01562C25.7044 2.02808 25.7527 2.06477 25.8011 2.12651C25.7538 2.11433 25.7064 2.07709 25.6575 2.01562Z" fill="#5D6BFF"/>
<path d="M82.5308 5.0625C82.5727 5.0882 82.5967 5.12521 82.6172 5.18546C82.5801 5.16374 82.5465 5.11878 82.5308 5.0625Z" fill="#5D6BFF"/>
<path d="M29.5408 7.9763C29.5339 7.92366 29.5491 7.86222 29.5901 7.79688C29.5983 7.85114 29.5805 7.90932 29.5408 7.9763Z" fill="#5D6BFF"/>
<path d="M29.8316 7.43614C29.8235 7.3849 29.8383 7.32504 29.8769 7.25781C29.8852 7.30947 29.8699 7.36849 29.8316 7.43614Z" fill="#5D6BFF"/>
<path d="M48.8637 1.87542C48.918 1.87173 48.9765 1.89218 49.0392 1.93679C48.985 1.94049 48.9265 1.92003 48.8637 1.87542Z" fill="#5D6BFF"/>
<path d="M29.9936 7.13072C29.9873 7.07965 30.0031 7.01928 30.0441 6.95312C30.0513 7.00537 30.0335 7.0634 29.9936 7.13072Z" fill="#5D6BFF"/>
<path d="M30.1248 6.89208C30.1236 6.83803 30.1465 6.77979 30.1943 6.71875C30.1958 6.77326 30.1723 6.83057 30.1248 6.89208Z" fill="#5D6BFF"/>
<path d="M30.4235 6.42857C30.4221 6.37539 30.4447 6.31823 30.4917 6.25781C30.4932 6.31123 30.4703 6.36792 30.4235 6.42857Z" fill="#5D6BFF"/>
<path d="M35.7271 1.64609C35.7521 1.60283 35.8017 1.56983 35.8748 1.53906C35.8494 1.57964 35.8005 1.61799 35.7271 1.64609Z" fill="#5D6BFF"/>
<path d="M30.7283 5.9702C30.7313 5.91789 30.7584 5.86226 30.8104 5.80469C30.8077 5.85746 30.78 5.91217 30.7283 5.9702Z" fill="#5D6BFF"/>
<path d="M82.6721 5.41016C82.7168 5.44141 82.7453 5.49518 82.7655 5.5708C82.7235 5.53933 82.6897 5.486 82.6721 5.41016Z" fill="#5D6BFF"/>
<path d="M31.1909 5.36203C31.1941 5.30939 31.2213 5.25325 31.2737 5.19531C31.2709 5.24852 31.243 5.30353 31.1909 5.36203Z" fill="#5D6BFF"/>
<path d="M26.921 3.82812C26.9607 3.85069 26.9952 3.89684 27.0257 3.96633C26.9865 3.94368 26.9511 3.8977 26.921 3.82812Z" fill="#5D6BFF"/>
<path d="M82.1938 4.26953C82.2359 4.29587 82.2674 4.34732 82.2975 4.42241C82.2584 4.39558 82.2208 4.34511 82.1938 4.26953Z" fill="#5D6BFF"/>
<path d="M36.0338 1.49704C36.0589 1.45418 36.1086 1.42128 36.1819 1.39062C36.1564 1.43092 36.1074 1.46896 36.0338 1.49704Z" fill="#5D6BFF"/>
<path d="M47.6443 1.26072C47.6969 1.25111 47.7547 1.26547 47.8204 1.30195C47.7687 1.31095 47.7091 1.29781 47.6443 1.26072Z" fill="#5D6BFF"/>
<path d="M47.3279 1.13535C47.3798 1.12154 47.4416 1.12976 47.5117 1.16164C47.4592 1.17599 47.3985 1.16669 47.3279 1.13535Z" fill="#5D6BFF"/>
<path d="M1.88088 4.44048C1.87088 4.38507 1.88807 4.32531 1.9263 4.25391C1.93424 4.30688 1.92116 4.37151 1.88088 4.44048Z" fill="#5D6BFF"/>
<path d="M27.0795 4.13281C27.118 4.15748 27.1498 4.20534 27.1762 4.27604C27.138 4.25125 27.1054 4.20363 27.0795 4.13281Z" fill="#5D6BFF"/>
<path d="M35.4258 1.80821C35.448 1.76384 35.4956 1.72702 35.567 1.69141C35.5443 1.73366 35.4978 1.77471 35.4258 1.80821Z" fill="#5D6BFF"/>
<path d="M29.6979 7.67233C29.6925 7.62024 29.7092 7.55993 29.7516 7.49609C29.7582 7.54975 29.7391 7.60693 29.6979 7.67233Z" fill="#5D6BFF"/>
<path d="M2.02434 4.13185C2.01507 4.07634 2.03343 4.01674 2.07288 3.94531C2.07996 3.99825 2.06597 4.063 2.02434 4.13185Z" fill="#5D6BFF"/>
</g>
<defs>
<clipPath id="clip0_1041_4124">
<rect width="84" height="28" fill="white"/>
</clipPath>
</defs>
</svg>
